<mxfile host="app.diagrams.net" modified="2024-01-24T13:56:02.345Z" agent="Mozilla/5.0 (Windows NT 10.0; Win64; x64) AppleWebKit/537.36 (KHTML, like Gecko) Chrome/120.0.0.0 Safari/537.36 Edg/120.0.0.0" etag="9eMGY95VE_f8IjpClNIm" version="23.0.1" type="github">
  <diagram name="default.clipboard.simple" id="hIbVIuz7iMpN_Tb1GSoR">
    <mxGraphModel dx="3880" dy="2280" grid="0" gridSize="10" guides="1" tooltips="1" connect="1" arrows="1" fold="1" page="0" pageScale="1" pageWidth="827" pageHeight="1169" math="0" shadow="0">
      <root>
        <mxCell id="0" />
        <mxCell id="1" parent="0" />
        <UserObject label="" tags="Background" id="0N5C-bSlOZF7z8Y1nU8M-36">
          <mxCell style="vsdxID=36;fillColor=none;gradientColor=none;shape=stencil(rVTLcoMwDPwaH6PxE9vnNP2PTEIKUwoZQhry9zVj85CY0h5ys8WKXa0sMbW/FcdrziS/dW3zmT/Kc1cw9cakLOsib8sunJg6MLW/NG3+0Tb3+hzv1+OAHE5fzffwhz7mCT6kSP4cr/H+HrFVWS+w/mXY072NIkRCG9A+JYwhD87FUC+nkBcJNYbUlNgrTMWfKeAMGPe70hmf7hq03BIbEkBgsYKDMSux3GGxGTgs1VsQDovVwO0fTklHyEEpwi0hI9y7oFkTduLT/7u5gRQvQdKq7VTiWPRu6sFYtAarcc3BGPI2JDhD/RabzebgM8wcuqgxc9CSmjZThwdhMTdxe/XMsDvYnNUTXsvkxKAwGUZRh6YhW0xURseH6Nya8u3tEQ7z2rmUVRW31vI7XVMhFFecOvwA);strokeColor=#82b366;strokeWidth=4;spacingTop=-3;spacingBottom=-3;spacingLeft=-3;spacingRight=-3;points=[];labelBackgroundColor=none;rounded=0;html=1;whiteSpace=wrap;fontStyle=1" vertex="1" parent="1">
            <mxGeometry x="1083" y="210" width="380" height="200" as="geometry" />
          </mxCell>
        </UserObject>
        <UserObject label="" tags="Background" id="0N5C-bSlOZF7z8Y1nU8M-30">
          <mxCell style="vsdxID=30;fillColor=none;gradientColor=none;shape=stencil(rVTLcoMwDPwaH6PxE9vnNP2PTEIKUwoZQhry9zVj85CY0h5ys8WKXa0sMbW/FcdrziS/dW3zmT/Kc1cw9cakLOsib8sunJg6MLW/NG3+0Tb3+hzv1+OAHE5fzffwhz7mCT6kSP4cr/H+HrFVWS+w/mXY072NIkRCG9A+JYwhD87FUC+nkBcJNYbUlNgrTMWfKeAMGPe70hmf7hq03BIbEkBgsYKDMSux3GGxGTgs1VsQDovVwO0fTklHyEEpwi0hI9y7oFkTduLT/7u5gRQvQdKq7VTiWPRu6sFYtAarcc3BGPI2JDhD/RabzebgM8wcuqgxc9CSmjZThwdhMTdxe/XMsDvYnNUTXsvkxKAwGUZRh6YhW0xURseH6Nya8u3tEQ7z2rmUVRW31vI7XVMhFFecOvwA);strokeColor=#ED7D31;strokeWidth=4;spacingTop=-3;spacingBottom=-3;spacingLeft=-3;spacingRight=-3;points=[];labelBackgroundColor=none;rounded=0;html=1;whiteSpace=wrap;fontStyle=1" vertex="1" parent="1">
            <mxGeometry x="633" y="210" width="380" height="200" as="geometry" />
          </mxCell>
        </UserObject>
        <UserObject label="" tags="Background" id="0N5C-bSlOZF7z8Y1nU8M-34">
          <mxCell style="vsdxID=34;fillColor=none;gradientColor=none;shape=stencil(rVRBcoMwDHyNj9XYsrHxOU3/kWlIYUoh45A2+X3tMRQkprSH3CyxZlcrS0LvLvXhXAmUlyH079VXcxxqoZ8FYtPVVWiGeBJ6L/Tu1IfqLfTX7pjj8yEh0+mj/0x/uOV7SqYrKO9TmOOXjG2bboH1D8O+XkMWoUZ0AcaPF6aUB1/k1A3nlBpRU8oBmhGlKZW8jwmvofS/K53xObag1JbWiAdFtRowbiVVllQqQllSpVG8KqlWBQ7/MAqZURIKy8gRLCN/kiAtY2c2/b+ZG0j1ECSv2oHWtOhUj6FVG3CGFh2d8bTm2INiZbjZopbgLaVG8JQ4aXGUOT4I1mtmNn9k1Btqzer9rjVKZk8aC8vt+ZmwxTgxlYrJ3Bzx7dURD/POOTVtm1fW8jvfUTGV95vefwM=);strokeColor=#82b366;strokeWidth=4;spacingTop=-3;spacingBottom=-3;spacingLeft=-3;spacingRight=-3;points=[];labelBackgroundColor=none;rounded=0;html=1;whiteSpace=wrap;fontStyle=1" vertex="1" parent="1">
            <mxGeometry x="1083" y="519" width="380" height="472" as="geometry" />
          </mxCell>
        </UserObject>
        <UserObject label="" tags="Background" id="0N5C-bSlOZF7z8Y1nU8M-28">
          <mxCell style="vsdxID=28;fillColor=none;gradientColor=none;shape=stencil(rVRBcoMwDHyNj9XYsrHxOU3/kWlIYUoh45A2+X3tMRQkprSH3CyxZlcrS0LvLvXhXAmUlyH079VXcxxqoZ8FYtPVVWiGeBJ6L/Tu1IfqLfTX7pjj8yEh0+mj/0x/uOV7SqYrKO9TmOOXjG2bboH1D8O+XkMWoUZ0AcaPF6aUB1/k1A3nlBpRU8oBmhGlKZW8jwmvofS/K53xObag1JbWiAdFtRowbiVVllQqQllSpVG8KqlWBQ7/MAqZURIKy8gRLCN/kiAtY2c2/b+ZG0j1ECSv2oHWtOhUj6FVG3CGFh2d8bTm2INiZbjZopbgLaVG8JQ4aXGUOT4I1mtmNn9k1Btqzer9rjVKZk8aC8vt+ZmwxTgxlYrJ3Bzx7dURD/POOTVtm1fW8jvfUTGV95vefwM=);strokeColor=#ED7D31;strokeWidth=4;spacingTop=-3;spacingBottom=-3;spacingLeft=-3;spacingRight=-3;points=[];labelBackgroundColor=none;rounded=0;html=1;whiteSpace=wrap;fontStyle=1" vertex="1" parent="1">
            <mxGeometry x="633" y="519" width="380" height="472" as="geometry" />
          </mxCell>
        </UserObject>
        <UserObject label="" tags="Background" id="0N5C-bSlOZF7z8Y1nU8M-11">
          <mxCell style="vsdxID=11;fillColor=none;gradientColor=none;shape=stencil(rVTLcsIwDPwaH6uRbMePM4X/YEpoMk0TJoQW/r5OnQdWaXLhJskr70qWJdTmXOxPuZB47trmI/8uD10h1KuQsqyLvC27YAm1FWpzbNr8vW0u9SH6p32P7K3P5qu/4RrzNNg+R+It+oT46+8iuCrrO7DPQNMT4W+XNmqhIcGCV0PCGPLgXAxd5RTyo+gxhGCzAaVSKrwNAetB6//FzvjoSwlol8SGBECmlgzQX7WZTNUSAhPrHWQ+lWtAqZVeGZOySyDDyMMtPiV/QSDJ2DNAl7Ivv+qEXgUHrH4OltevpsGlqTCktHwJmrVegjJp8QTaCtZ5s0QcHo+/OoLTKTOmtDTeOdGy4QzChgF42Jp0NK0DT8sS+WCGD6I9bw6x5vR/jQ3mvB7Yt3ooc2WZBGNeQ8eyquIWuz/nayuE4spT2x8=);dashed=1;dashPattern=4.00 2.00;strokeColor=#002060;strokeWidth=4;spacingTop=-3;spacingBottom=-3;spacingLeft=-3;spacingRight=-3;points=[];labelBackgroundColor=none;rounded=0;html=1;whiteSpace=wrap;fontStyle=1" vertex="1" parent="1">
            <mxGeometry x="89" y="187" width="1402" height="246" as="geometry" />
          </mxCell>
        </UserObject>
        <UserObject label="" tags="Background" id="0N5C-bSlOZF7z8Y1nU8M-12">
          <mxCell style="vsdxID=12;fillColor=none;gradientColor=none;shape=stencil(rVTLcsMgDPwajtUAAgznNP2PTOPUnrpxxnHa5O+Lix+R3NiX3EBeeZdlkcDNudidcqHluW3qz/yn3LeFwFehdXks8qZs40rgVuDmUDf5R1Nfjvu0P+06ZLf6qr+7P1xTn4Gs69HylvZKyr/9WwJX5fEOHCwY9UT4+6VJWlTfkEHAvmEoBQgmla56Kg2i9ciEAwoplbz1BR/AmcdiJ3y/V6D0ktjYAJKp9aDsTKzVVKwFHajW4MEGqhZBhRWrnKPkCmRg5A4wUPKXKNoxdgvSU/blSx3Rq+CINc/B8vPjmFs1HUzR42swzHo1uDrFBEwmmPOIS8wSLLv1GHNHmSWl9YDMc5bNGDb0j62hyYxBpuC5Qp7LeGl6Zo5i5nTvCqnMaTqwV/WvzJVZEhfTFDqUVZWG2P13PrViKU083P4C);dashed=1;dashPattern=4.00 2.00;strokeColor=#002060;strokeWidth=4;spacingTop=-3;spacingBottom=-3;spacingLeft=-3;spacingRight=-3;points=[];labelBackgroundColor=none;rounded=0;html=1;whiteSpace=wrap;fontStyle=1" vertex="1" parent="1">
            <mxGeometry x="89" y="495" width="1402" height="520" as="geometry" />
          </mxCell>
        </UserObject>
        <UserObject label="" tags="Background" id="0N5C-bSlOZF7z8Y1nU8M-39">
          <mxCell style="vsdxID=39;fillColor=#d5e8d4;gradientColor=none;shape=stencil(rVTbUoMwEP0aHt3Jbu7Ptf5Hx1JhxNKhVMvfGwwIGwZGHd+Sw1nO2Us2k7trcbjkGYlr29Sv+Ud5bItMPmZE5bnIm7INp0zuM7k71U3+0tS38zHeL4ee2Z/e6vf+D/cYZ0BgH0SiiwAK8XV/iuyqPM/YHsHpf6Q/35poBocAA3IMGCEP3kfoTguoGyEJxg4syaVENwBOgzPrZif+cFeAastsCAA03C0KkLhw+50TjUXXmpv1FqzndiW4TflQq/4rUwekRFyBMFz8QQC5RH3WpwH6VVc3yIv5+jM3zV+B4tmHxITl6dPkdECQZ45giSdO4O2WrADtuK4Cr7hs70RxXQtGculkOsPkKFqvDZ9N50cXqy7RJu9IA2FaHWu5yzCrySua9SR5Vz9rYcIOh2kTncqqiots/j3dXAGKW0/uPwE=);strokeColor=#82b366;strokeWidth=4;spacingTop=-3;spacingBottom=-3;spacingLeft=-3;spacingRight=-3;points=[];labelBackgroundColor=none;rounded=0;html=1;whiteSpace=wrap;fontStyle=1" vertex="1" parent="1">
            <mxGeometry x="1114" y="825" width="324" height="149" as="geometry" />
          </mxCell>
        </UserObject>
        <UserObject label="" tags="Background" id="0N5C-bSlOZF7z8Y1nU8M-35">
          <mxCell style="vsdxID=35;fillColor=#d5e8d4;gradientColor=none;shape=stencil(rVTbUoMwEP0aHt3Jbu7Ptf5Hx1JhxNKhVMvfGwwIGwZGHd+Sw1nO2Us2k7trcbjkGYlr29Sv+Ud5bItMPmZE5bnIm7INp0zuM7k71U3+0tS38zHeL4ee2Z/e6vf+D/cYZ0BgH0SiiwAK8XV/iuyqPM/YHsHpf6Q/35poBocAA3IMGCEP3kfoTguoGyEJxg4syaVENwBOgzPrZif+cFeAastsCAA03C0KkLhw+50TjUXXmpv1FqzndiW4TflQq/4rUwekRFyBMFz8QQC5RH3WpwH6VVc3yIv5+jM3zV+B4tmHxITl6dPkdECQZ45giSdO4O2WrADtuK4Cr7hs70RxXQtGculkOsPkKFqvDZ9N50cXqy7RJu9IA2FaHWu5yzCrySua9SR5Vz9rYcIOh2kTncqqiots/j3dXAGKW0/uPwE=);strokeColor=#82b366;strokeWidth=4;spacingTop=-3;spacingBottom=-3;spacingLeft=-3;spacingRight=-3;points=[];labelBackgroundColor=none;rounded=0;html=1;whiteSpace=wrap;fontStyle=1" vertex="1" parent="1">
            <mxGeometry x="1113" y="647" width="324" height="149" as="geometry" />
          </mxCell>
        </UserObject>
        <UserObject label="" tags="Background" id="0N5C-bSlOZF7z8Y1nU8M-32">
          <mxCell style="vsdxID=32;fillColor=#FBE5D5;gradientColor=none;shape=stencil(rVTbUoMwEP0aHt3Jbu7Ptf5Hx1JhxNKhVMvfGwwIGwZGHd+Sw1nO2Us2k7trcbjkGYlr29Sv+Ud5bItMPmZE5bnIm7INp0zuM7k71U3+0tS38zHeL4ee2Z/e6vf+D/cYZ0BgH0SiiwAK8XV/iuyqPM/YHsHpf6Q/35poBocAA3IMGCEP3kfoTguoGyEJxg4syaVENwBOgzPrZif+cFeAastsCAA03C0KkLhw+50TjUXXmpv1FqzndiW4TflQq/4rUwekRFyBMFz8QQC5RH3WpwH6VVc3yIv5+jM3zV+B4tmHxITl6dPkdECQZ45giSdO4O2WrADtuK4Cr7hs70RxXQtGculkOsPkKFqvDZ9N50cXqy7RJu9IA2FaHWu5yzCrySua9SR5Vz9rYcIOh2kTncqqiots/j3dXAGKW0/uPwE=);strokeColor=#ED7D31;strokeWidth=4;spacingTop=-3;spacingBottom=-3;spacingLeft=-3;spacingRight=-3;points=[];labelBackgroundColor=none;rounded=0;html=1;whiteSpace=wrap;fontStyle=1" vertex="1" parent="1">
            <mxGeometry x="664" y="825" width="324" height="149" as="geometry" />
          </mxCell>
        </UserObject>
        <UserObject label="" tags="Background" id="0N5C-bSlOZF7z8Y1nU8M-29">
          <mxCell style="vsdxID=29;fillColor=#FBE5D5;gradientColor=none;shape=stencil(rVTbUoMwEP0aHt3Jbu7Ptf5Hx1JhxNKhVMvfGwwIGwZGHd+Sw1nO2Us2k7trcbjkGYlr29Sv+Ud5bItMPmZE5bnIm7INp0zuM7k71U3+0tS38zHeL4ee2Z/e6vf+D/cYZ0BgH0SiiwAK8XV/iuyqPM/YHsHpf6Q/35poBocAA3IMGCEP3kfoTguoGyEJxg4syaVENwBOgzPrZif+cFeAastsCAA03C0KkLhw+50TjUXXmpv1FqzndiW4TflQq/4rUwekRFyBMFz8QQC5RH3WpwH6VVc3yIv5+jM3zV+B4tmHxITl6dPkdECQZ45giSdO4O2WrADtuK4Cr7hs70RxXQtGculkOsPkKFqvDZ9N50cXqy7RJu9IA2FaHWu5yzCrySua9SR5Vz9rYcIOh2kTncqqiots/j3dXAGKW0/uPwE=);strokeColor=#ED7D31;strokeWidth=4;spacingTop=-3;spacingBottom=-3;spacingLeft=-3;spacingRight=-3;points=[];labelBackgroundColor=none;rounded=0;html=1;whiteSpace=wrap;fontStyle=1" vertex="1" parent="1">
            <mxGeometry x="663" y="647" width="324" height="149" as="geometry" />
          </mxCell>
        </UserObject>
        <UserObject label="" tags="Background" id="0N5C-bSlOZF7z8Y1nU8M-27">
          <mxCell style="vsdxID=27;fillColor=#deebf6;gradientColor=none;shape=stencil(rVTbUoMwEP0aHt3Jbu7Ptf5Hx1JhxNKhVMvfGwwIGwZGHd+Sw1nO2Us2k7trcbjkGYlr29Sv+Ud5bItMPmZE5bnIm7INp0zuM7k71U3+0tS38zHeL4ee2Z/e6vf+D/cYZ0BgH0SiiwAK8XV/iuyqPM/YHsHpf6Q/35poBocAA3IMGCEP3kfoTguoGyEJxg4syaVENwBOgzPrZif+cFeAastsCAA03C0KkLhw+50TjUXXmpv1FqzndiW4TflQq/4rUwekRFyBMFz8QQC5RH3WpwH6VVc3yIv5+jM3zV+B4tmHxITl6dPkdECQZ45giSdO4O2WrADtuK4Cr7hs70RxXQtGculkOsPkKFqvDZ9N50cXqy7RJu9IA2FaHWu5yzCrySua9SR5Vz9rYcIOh2kTncqqiots/j3dXAGKW0/uPwE=);strokeColor=#2e75b5;strokeWidth=4;spacingTop=-3;spacingBottom=-3;spacingLeft=-3;spacingRight=-3;points=[];labelBackgroundColor=none;rounded=0;html=1;whiteSpace=wrap;fontStyle=1" vertex="1" parent="1">
            <mxGeometry x="211" y="647" width="324" height="149" as="geometry" />
          </mxCell>
        </UserObject>
        <UserObject label="" tags="Background" id="0N5C-bSlOZF7z8Y1nU8M-1">
          <mxCell style="vsdxID=1;fillColor=none;gradientColor=none;shape=stencil(rVTLcoMwDPwaH6PxE9vnNP2PTEIKUwoZQhry9zVj85CY0h5ys8WKXa0sMbW/FcdrziS/dW3zmT/Kc1cw9cakLOsib8sunJg6MLW/NG3+0Tb3+hzv1+OAHE5fzffwhz7mCT6kSP4cr/H+HrFVWS+w/mXY072NIkRCG9A+JYwhD87FUC+nkBcJNYbUlNgrTMWfKeAMGPe70hmf7hq03BIbEkBgsYKDMSux3GGxGTgs1VsQDovVwO0fTklHyEEpwi0hI9y7oFkTduLT/7u5gRQvQdKq7VTiWPRu6sFYtAarcc3BGPI2JDhD/RabzebgM8wcuqgxc9CSmjZThwdhMTdxe/XMsDvYnNUTXsvkxKAwGUZRh6YhW0xURseH6Nya8u3tEQ7z2rmUVRW31vI7XVMhFFecOvwA);strokeColor=#2e75b5;strokeWidth=4;spacingTop=-3;spacingBottom=-3;spacingLeft=-3;spacingRight=-3;points=[];labelBackgroundColor=none;rounded=0;html=1;whiteSpace=wrap;fontStyle=1" vertex="1" parent="1">
            <mxGeometry x="181" y="210" width="380" height="200" as="geometry" />
          </mxCell>
        </UserObject>
        <UserObject label="&lt;div style=&quot;font-size: 1px&quot;&gt;&lt;font style=&quot;font-size:38.8px;font-family:宋体;color:#000000;direction:ltr;letter-spacing:0px;line-height:120%;opacity:1&quot;&gt;主流架构表达能力和效率局限性的问题&lt;/font&gt;&lt;font style=&quot;font-size:11.64px;font-family:helvetica;color:#000000;direction:ltr;letter-spacing:0px;line-height:120%;opacity:1&quot;&gt;&lt;br&gt;&lt;/font&gt;&lt;font style=&quot;font-size:11.64px;font-family:Helvetica;color:#000000;direction:ltr;letter-spacing:0px;line-height:120%;opacity:1&quot;&gt;&lt;br&gt;&lt;/font&gt;&lt;/div&gt;" tags="Background" id="0N5C-bSlOZF7z8Y1nU8M-2">
          <mxCell style="verticalAlign=middle;align=center;overflow=width;vsdxID=2;fillColor=none;gradientColor=none;shape=stencil(nZBLDoAgDERP0z3SIyjew0SURgSD+Lu9kMZoXLhwN9O+tukAlrNpJg1SzDH4QW/URgNYgZTkjA4UkwJUgGXng+6DX1zLfmoymdXo17xh5zmRJ6Q42BWCfc2oJfdAr+Yv+AP9Cb7OJ3H/2JG1HNGz/84klThPVCc=);strokeColor=none;spacingTop=-3;spacingBottom=-3;spacingLeft=-3;spacingRight=-3;points=[];labelBackgroundColor=none;rounded=0;html=1;whiteSpace=wrap;fontStyle=1" vertex="1" parent="1">
            <mxGeometry x="185.5" y="259" width="371" height="102" as="geometry" />
          </mxCell>
        </UserObject>
        <UserObject label="" tags="Background" id="0N5C-bSlOZF7z8Y1nU8M-3">
          <mxCell style="vsdxID=3;fillColor=none;gradientColor=none;shape=stencil(rVRBcoMwDHyNj9XYsrHxOU3/kWlIYUoh45A2+X3tMRQkprSH3CyxZlcrS0LvLvXhXAmUlyH079VXcxxqoZ8FYtPVVWiGeBJ6L/Tu1IfqLfTX7pjj8yEh0+mj/0x/uOV7SqYrKO9TmOOXjG2bboH1D8O+XkMWoUZ0AcaPF6aUB1/k1A3nlBpRU8oBmhGlKZW8jwmvofS/K53xObag1JbWiAdFtRowbiVVllQqQllSpVG8KqlWBQ7/MAqZURIKy8gRLCN/kiAtY2c2/b+ZG0j1ECSv2oHWtOhUj6FVG3CGFh2d8bTm2INiZbjZopbgLaVG8JQ4aXGUOT4I1mtmNn9k1Btqzer9rjVKZk8aC8vt+ZmwxTgxlYrJ3Bzx7dURD/POOTVtm1fW8jvfUTGV95vefwM=);strokeColor=#2e75b5;strokeWidth=4;spacingTop=-3;spacingBottom=-3;spacingLeft=-3;spacingRight=-3;points=[];labelBackgroundColor=none;rounded=0;html=1;whiteSpace=wrap;fontStyle=1" vertex="1" parent="1">
            <mxGeometry x="181" y="519" width="380" height="472" as="geometry" />
          </mxCell>
        </UserObject>
        <UserObject label="&lt;div style=&quot;font-size: 1px&quot;&gt;&lt;font style=&quot;font-size: 38.8px; color: rgb(0, 0, 0); direction: ltr; letter-spacing: 0px; line-height: 120%; opacity: 1;&quot;&gt;下一代基础架构设计&lt;br&gt;&lt;/font&gt;&lt;font style=&quot;font-size: 11.64px; color: rgb(0, 0, 0); direction: ltr; letter-spacing: 0px; line-height: 120%; opacity: 1;&quot;&gt;&lt;br&gt;&lt;/font&gt;&lt;font style=&quot;font-size: 11.64px; color: rgb(0, 0, 0); direction: ltr; letter-spacing: 0px; line-height: 120%; opacity: 1;&quot;&gt;&lt;br&gt;&lt;/font&gt;&lt;/div&gt;" tags="Background" id="0N5C-bSlOZF7z8Y1nU8M-4">
          <mxCell style="verticalAlign=middle;align=center;overflow=width;vsdxID=4;fillColor=none;gradientColor=none;shape=stencil(nZBLDoAgDERP0z3SIyjew0SURgSD+Lu9kMZoXLhwN9O+tukAlrNpJg1SzDH4QW/URgNYgZTkjA4UkwJUgGXng+6DX1zLfmoymdXo17xh5zmRJ6Q42BWCfc2oJfdAr+Yv+AP9Cb7OJ3H/2JG1HNGz/84klThPVCc=);strokeColor=none;spacingTop=-3;spacingBottom=-3;spacingLeft=-3;spacingRight=-3;points=[];labelBackgroundColor=none;rounded=0;html=1;whiteSpace=wrap;fontStyle=1;fontFamily=黑体;" vertex="1" parent="1">
            <mxGeometry x="210" y="540" width="308" height="100" as="geometry" />
          </mxCell>
        </UserObject>
        <UserObject label="&lt;div style=&quot;font-size: 1px&quot;&gt;&lt;font style=&quot;font-size: 38.8px; color: rgb(0, 0, 0); direction: ltr; letter-spacing: 0px; line-height: 120%; opacity: 1;&quot;&gt;模型可解释性和机理研究&lt;br&gt;&lt;/font&gt;&lt;font style=&quot;font-size: 11.64px; color: rgb(0, 0, 0); direction: ltr; letter-spacing: 0px; line-height: 120%; opacity: 1;&quot;&gt;&lt;br&gt;&lt;/font&gt;&lt;font style=&quot;font-size: 11.64px; color: rgb(0, 0, 0); direction: ltr; letter-spacing: 0px; line-height: 120%; opacity: 1;&quot;&gt;&lt;br&gt;&lt;/font&gt;&lt;/div&gt;" tags="Background" id="0N5C-bSlOZF7z8Y1nU8M-5">
          <mxCell style="verticalAlign=middle;align=center;overflow=width;vsdxID=5;fillColor=none;gradientColor=none;shape=stencil(nZBLDoAgDERP0z3SIyjew0SURgSD+Lu9kMZoXLhwN9O+tukAlrNpJg1SzDH4QW/URgNYgZTkjA4UkwJUgGXng+6DX1zLfmoymdXo17xh5zmRJ6Q42BWCfc2oJfdAr+Yv+AP9Cb7OJ3H/2JG1HNGz/84klThPVCc=);strokeColor=none;spacingTop=-3;spacingBottom=-3;spacingLeft=-3;spacingRight=-3;points=[];labelBackgroundColor=none;rounded=0;html=1;whiteSpace=wrap;fontStyle=1;fontFamily=黑体;" vertex="1" parent="1">
            <mxGeometry x="670" y="540" width="311" height="93" as="geometry" />
          </mxCell>
        </UserObject>
        <UserObject label="&lt;div style=&quot;font-size: 1px&quot;&gt;&lt;font style=&quot;font-size: 38.8px; color: rgb(0, 0, 0); direction: ltr; letter-spacing: 0px; line-height: 120%; opacity: 1;&quot;&gt;模型的持续学习与演化能力研究&lt;br&gt;&lt;/font&gt;&lt;font style=&quot;font-size: 11.64px; color: rgb(0, 0, 0); direction: ltr; letter-spacing: 0px; line-height: 120%; opacity: 1;&quot;&gt;&lt;br&gt;&lt;/font&gt;&lt;font style=&quot;font-size: 11.64px; color: rgb(0, 0, 0); direction: ltr; letter-spacing: 0px; line-height: 120%; opacity: 1;&quot;&gt;&lt;br&gt;&lt;/font&gt;&lt;/div&gt;" tags="Background" id="0N5C-bSlOZF7z8Y1nU8M-6">
          <mxCell style="verticalAlign=middle;align=center;overflow=width;vsdxID=6;fillColor=none;gradientColor=none;shape=stencil(nZBLDoAgDERP0z3SIyjew0SURgSD+Lu9kMZoXLhwN9O+tukAlrNpJg1SzDH4QW/URgNYgZTkjA4UkwJUgGXng+6DX1zLfmoymdXo17xh5zmRJ6Q42BWCfc2oJfdAr+Yv+AP9Cb7OJ3H/2JG1HNGz/84klThPVCc=);strokeColor=none;spacingTop=-3;spacingBottom=-3;spacingLeft=-3;spacingRight=-3;points=[];labelBackgroundColor=none;rounded=0;html=1;whiteSpace=wrap;fontStyle=1;fontFamily=黑体;" vertex="1" parent="1">
            <mxGeometry x="1104" y="540" width="337" height="93" as="geometry" />
          </mxCell>
        </UserObject>
        <UserObject label="" tags="Background" id="0N5C-bSlOZF7z8Y1nU8M-7">
          <mxCell style="vsdxID=7;fillColor=none;gradientColor=none;shape=stencil(rVRdc4MgEPw1PvYG7kDhOU3+R6Yx1amNGWNa8++LBT84R6ft9A3WPXdvD0hodyuO1zxBcWub+i3/LE9tkdBzglheirwpW7dKaJ/Q7lw3+WtT3y8nv78ee2a/eq8/+j90vg7B2L4IxcMDUojv/cGzq/IyY9sU0uwf6S/3xpuRocCADvwBsZAGgx2OkDWBFaDMgApCHcVK4hEAjYB63evE93uVQaa3vLoCEDJ2SxoELdyOGQTIhZ4xt44lVOxX0sBaD0sxfTX9eJDPQKex/JMAZOqzOQXoV1PdIC/O15+5vH0EiXH3fWMmbl8CsfAJrI27F2CIRS/ByC3tSWjQlm7MbPLOjkAmLoBY9uyUKufYrEcUn1FtIMVNn7FJI0EtA4otjvdgMDibCrtaPxsiY7vF9Bady6ryT9n8O3+7HOTfPdp/AQ==);strokeColor=#c00000;strokeWidth=4;spacingTop=-3;spacingBottom=-3;spacingLeft=-3;spacingRight=-3;points=[];labelBackgroundColor=none;rounded=0;html=1;whiteSpace=wrap;fontStyle=1" vertex="1" parent="1">
            <mxGeometry x="88" y="40" width="1404" height="82" as="geometry" />
          </mxCell>
        </UserObject>
        <UserObject label="&lt;div style=&quot;font-size: 1px&quot;&gt;&lt;font face=&quot;黑体&quot;&gt;&lt;font style=&quot;font-size: 38.8px; color: rgb(0, 0, 0); direction: ltr; letter-spacing: 0px; line-height: 120%; opacity: 1;&quot;&gt;研究目标&lt;/font&gt;&lt;font style=&quot;font-size: 38.8px; color: rgb(0, 0, 0); direction: ltr; letter-spacing: 0px; line-height: 120%; opacity: 1;&quot;&gt;：构造通用&lt;/font&gt;&lt;font style=&quot;font-size: 38.8px; color: rgb(0, 0, 0); direction: ltr; letter-spacing: 0px; line-height: 120%; opacity: 1;&quot;&gt;、可解释、高适应性的跨模态语言智能模型&lt;/font&gt;&lt;font style=&quot;font-size: 38.8px; color: rgb(0, 0, 0); direction: ltr; letter-spacing: 0px; line-height: 120%; opacity: 1;&quot;&gt;&lt;br&gt;&lt;/font&gt;&lt;font style=&quot;font-size: 38.8px; color: rgb(0, 0, 0); direction: ltr; letter-spacing: 0px; line-height: 120%; opacity: 1;&quot;&gt;&lt;br&gt;&lt;/font&gt;&lt;font style=&quot;font-size: 11.64px; color: rgb(0, 0, 0); direction: ltr; letter-spacing: 0px; line-height: 120%; opacity: 1;&quot;&gt;&lt;br&gt;&lt;/font&gt;&lt;/font&gt;&lt;font style=&quot;font-size:11.64px;font-family:Helvetica;color:#000000;direction:ltr;letter-spacing:0px;line-height:120%;opacity:1&quot;&gt;&lt;br&gt;&lt;/font&gt;&lt;/div&gt;" tags="Background" id="0N5C-bSlOZF7z8Y1nU8M-8">
          <mxCell style="verticalAlign=middle;align=center;overflow=width;vsdxID=8;fillColor=none;gradientColor=none;shape=stencil(nZBLDoAgDERP0z3SIyjew0SURgSD+Lu9kMZoXLhwN9O+tukAlrNpJg1SzDH4QW/URgNYgZTkjA4UkwJUgGXng+6DX1zLfmoymdXo17xh5zmRJ6Q42BWCfc2oJfdAr+Yv+AP9Cb7OJ3H/2JG1HNGz/84klThPVCc=);strokeColor=none;spacingTop=-3;spacingBottom=-3;spacingLeft=-3;spacingRight=-3;points=[];labelBackgroundColor=none;rounded=0;html=1;whiteSpace=wrap;fontStyle=1" vertex="1" parent="1">
            <mxGeometry x="125" y="56.5" width="1330" height="49" as="geometry" />
          </mxCell>
        </UserObject>
        <UserObject label="&lt;div style=&quot;font-size: 1px&quot;&gt;&lt;font style=&quot;font-size: 38.8px; color: rgb(0, 0, 0); direction: ltr; letter-spacing: 0px; line-height: 120%; opacity: 1;&quot;&gt;研&lt;br&gt;&lt;/font&gt;&lt;font style=&quot;font-size: 38.8px; color: rgb(0, 0, 0); direction: ltr; letter-spacing: 0px; line-height: 120%; opacity: 1;&quot;&gt;究&lt;br&gt;&lt;/font&gt;&lt;font style=&quot;font-size: 38.8px; color: rgb(0, 0, 0); direction: ltr; letter-spacing: 0px; line-height: 120%; opacity: 1;&quot;&gt;内&lt;br&gt;&lt;/font&gt;&lt;font style=&quot;font-size: 38.8px; color: rgb(0, 0, 0); direction: ltr; letter-spacing: 0px; line-height: 120%; opacity: 1;&quot;&gt;容&lt;br&gt;&lt;/font&gt;&lt;font style=&quot;font-size: 11.64px; color: rgb(0, 0, 0); direction: ltr; letter-spacing: 0px; line-height: 120%; opacity: 1;&quot;&gt;&lt;br&gt;&lt;/font&gt;&lt;font style=&quot;font-size: 11.64px; color: rgb(0, 0, 0); direction: ltr; letter-spacing: 0px; line-height: 120%; opacity: 1;&quot;&gt;&lt;br&gt;&lt;/font&gt;&lt;/div&gt;" tags="Background" id="0N5C-bSlOZF7z8Y1nU8M-9">
          <mxCell style="verticalAlign=middle;align=center;overflow=width;vsdxID=9;fillColor=none;gradientColor=none;shape=stencil(nZBLDoAgDERP0z3SIyjew0SURgSD+Lu9kMZoXLhwN9O+tukAlrNpJg1SzDH4QW/URgNYgZTkjA4UkwJUgGXng+6DX1zLfmoymdXo17xh5zmRJ6Q42BWCfc2oJfdAr+Yv+AP9Cb7OJ3H/2JG1HNGz/84klThPVCc=);strokeColor=none;spacingTop=-3;spacingBottom=-3;spacingLeft=-3;spacingRight=-3;points=[];labelBackgroundColor=none;rounded=0;html=1;whiteSpace=wrap;fontStyle=1;fontFamily=黑体;" vertex="1" parent="1">
            <mxGeometry x="79" y="653" width="109" height="207" as="geometry" />
          </mxCell>
        </UserObject>
        <UserObject label="&lt;div style=&quot;font-size: 1px&quot;&gt;&lt;font style=&quot;font-size: 38.8px; color: rgb(0, 0, 0); direction: ltr; letter-spacing: 0px; line-height: 120%; opacity: 1;&quot;&gt;关&lt;br&gt;&lt;/font&gt;&lt;font style=&quot;font-size: 38.8px; color: rgb(0, 0, 0); direction: ltr; letter-spacing: 0px; line-height: 120%; opacity: 1;&quot;&gt;键&lt;br&gt;&lt;/font&gt;&lt;font style=&quot;font-size: 38.8px; color: rgb(0, 0, 0); direction: ltr; letter-spacing: 0px; line-height: 120%; opacity: 1;&quot;&gt;问&lt;br&gt;&lt;/font&gt;&lt;font style=&quot;font-size: 38.8px; color: rgb(0, 0, 0); direction: ltr; letter-spacing: 0px; line-height: 120%; opacity: 1;&quot;&gt;题&lt;br&gt;&lt;/font&gt;&lt;font style=&quot;font-size: 11.64px; color: rgb(0, 0, 0); direction: ltr; letter-spacing: 0px; line-height: 120%; opacity: 1;&quot;&gt;&lt;br&gt;&lt;/font&gt;&lt;font style=&quot;font-size: 11.64px; color: rgb(0, 0, 0); direction: ltr; letter-spacing: 0px; line-height: 120%; opacity: 1;&quot;&gt;&lt;br&gt;&lt;/font&gt;&lt;/div&gt;" tags="Background" id="0N5C-bSlOZF7z8Y1nU8M-10">
          <mxCell style="verticalAlign=middle;align=center;overflow=width;vsdxID=10;fillColor=none;gradientColor=none;shape=stencil(nZBLDoAgDERP0z3SIyjew0SURgSD+Lu9kMZoXLhwN9O+tukAlrNpJg1SzDH4QW/URgNYgZTkjA4UkwJUgGXng+6DX1zLfmoymdXo17xh5zmRJ6Q42BWCfc2oJfdAr+Yv+AP9Cb7OJ3H/2JG1HNGz/84klThPVCc=);strokeColor=none;spacingTop=-3;spacingBottom=-3;spacingLeft=-3;spacingRight=-3;points=[];labelBackgroundColor=none;rounded=0;html=1;whiteSpace=wrap;fontStyle=1;fontFamily=黑体;" vertex="1" parent="1">
            <mxGeometry x="79" y="221" width="109" height="205" as="geometry" />
          </mxCell>
        </UserObject>
        <UserObject label="&lt;div style=&quot;font-size: 1px&quot;&gt;&lt;font style=&quot;font-size:11.64px;font-family:helvetica;color:#000000;direction:ltr;letter-spacing:0px;line-height:120%;opacity:1&quot;&gt;&lt;br&gt;&lt;/font&gt;&lt;font style=&quot;font-size:11.64px;font-family:Helvetica;color:#000000;direction:ltr;letter-spacing:0px;line-height:120%;opacity:1&quot;&gt;&lt;br&gt;&lt;/font&gt;&lt;/div&gt;" tags="Background" id="0N5C-bSlOZF7z8Y1nU8M-13">
          <mxCell style="verticalAlign=middle;align=center;overflow=width;vsdxID=13;rotation=270;fillColor=#bdd7ee;gradientColor=none;shape=stencil(zZLNDsIgEISfZo82lDWtnGt9jyalQkRoKPXn7YVsjFWTmnrR2wzMR7LLAFaDanoJnA3Bu4M86zYowC1wrq2SXoeoAGvAqnNe7r0bbUu+b1IyqaM7pRcuxLFEcHYllzPyO4oabSdRLDLxlF4hEyIryyVIvo7IRvwauQ/6PTG7qrdwsXSE/ySQf/jw2R1F8ahhp42hFk/vX2sbj6jyWN8A);strokeColor=#0070c0;strokeWidth=4;spacingTop=-3;spacingBottom=-3;spacingLeft=-3;spacingRight=-3;flipH=1;flipV=1;points=[];labelBackgroundColor=none;rounded=0;html=1;whiteSpace=wrap;fontStyle=1" vertex="1" parent="1">
            <mxGeometry x="331" y="476" width="84" height="1" as="geometry" />
          </mxCell>
        </UserObject>
        <UserObject label="" tags="Background" id="0N5C-bSlOZF7z8Y1nU8M-14">
          <mxCell style="vsdxID=1410000;fillColor=none;gradientColor=none;strokeColor=none;spacingTop=-3;spacingBottom=-3;spacingLeft=-3;spacingRight=-3;points=[];labelBackgroundColor=none;rounded=0;html=1;whiteSpace=wrap;fontStyle=0" vertex="1" parent="1">
            <mxGeometry x="30" y="1103" width="1569" height="82" as="geometry" />
          </mxCell>
        </UserObject>
        <mxCell id="0N5C-bSlOZF7z8Y1nU8M-15" style="vsdxID=15;fillColor=none;gradientColor=none;shape=stencil(rVRdc4MgEPw1PvYG7kDhOU3+R6Yx1amNGWNa8++LBT84R6ft9A3WPXdvD0hodyuO1zxBcWub+i3/LE9tkdBzglheirwpW7dKaJ/Q7lw3+WtT3y8nv78ee2a/eq8/+j90vg7B2L4IxcMDUojv/cGzq/IyY9sU0uwf6S/3xpuRocCADvwBsZAGgx2OkDWBFaDMgApCHcVK4hEAjYB63evE93uVQaa3vLoCEDJ2SxoELdyOGQTIhZ4xt44lVOxX0sBaD0sxfTX9eJDPQKex/JMAZOqzOQXoV1PdIC/O15+5vH0EiXH3fWMmbl8CsfAJrI27F2CIRS/ByC3tSWjQlm7MbPLOjkAmLoBY9uyUKufYrEcUn1FtIMVNn7FJI0EtA4otjvdgMDibCrtaPxsiY7vF9Bady6ryT9n8O3+7HOTfPdp/AQ==);strokeColor=#c00000;strokeWidth=4;spacingTop=-3;spacingBottom=-3;spacingLeft=-3;spacingRight=-3;points=[];labelBackgroundColor=none;rounded=0;html=1;whiteSpace=wrap;fontStyle=0" vertex="1" parent="0N5C-bSlOZF7z8Y1nU8M-14">
          <mxGeometry x="54" width="1407" height="82" as="geometry" />
        </mxCell>
        <mxCell id="0N5C-bSlOZF7z8Y1nU8M-16" value="&lt;div style=&quot;font-size: 1px&quot;&gt;&lt;font face=&quot;黑体&quot; style=&quot;font-size: 38.8px; color: rgb(0, 0, 0); direction: ltr; letter-spacing: 0px; line-height: 120%; opacity: 1;&quot;&gt;&lt;b style=&quot;&quot;&gt;基础技术：模型架构设计、自主学习、强化学习、增量学习等&lt;br&gt;&lt;/b&gt;&lt;/font&gt;&lt;font style=&quot;font-size:11.64px;font-family:helvetica;color:#000000;direction:ltr;letter-spacing:0px;line-height:120%;opacity:1&quot;&gt;&lt;br&gt;&lt;/font&gt;&lt;font style=&quot;font-size:11.64px;font-family:Helvetica;color:#000000;direction:ltr;letter-spacing:0px;line-height:120%;opacity:1&quot;&gt;&lt;br&gt;&lt;/font&gt;&lt;/div&gt;" style="verticalAlign=middle;align=center;overflow=width;vsdxID=16;fillColor=none;gradientColor=none;shape=stencil(nZBLDoAgDERP0z3SIyjew0SURgSD+Lu9kMZoXLhwN9O+tukAlrNpJg1SzDH4QW/URgNYgZTkjA4UkwJUgGXng+6DX1zLfmoymdXo17xh5zmRJ6Q42BWCfc2oJfdAr+Yv+AP9Cb7OJ3H/2JG1HNGz/84klThPVCc=);strokeColor=none;spacingTop=-3;spacingBottom=-3;spacingLeft=-3;spacingRight=-3;points=[];labelBackgroundColor=none;rounded=0;html=1;whiteSpace=wrap;fontStyle=0" vertex="1" parent="0N5C-bSlOZF7z8Y1nU8M-14">
          <mxGeometry x="-38" y="17" width="1591" height="70" as="geometry" />
        </mxCell>
        <UserObject label="&lt;div style=&quot;font-size: 1px&quot;&gt;&lt;font style=&quot;font-size:11.64px;font-family:helvetica;color:#000000;direction:ltr;letter-spacing:0px;line-height:120%;opacity:1&quot;&gt;&lt;br&gt;&lt;/font&gt;&lt;font style=&quot;font-size:11.64px;font-family:Helvetica;color:#000000;direction:ltr;letter-spacing:0px;line-height:120%;opacity:1&quot;&gt;&lt;br&gt;&lt;/font&gt;&lt;/div&gt;" tags="Background" id="0N5C-bSlOZF7z8Y1nU8M-17">
          <mxCell style="verticalAlign=middle;align=center;overflow=width;vsdxID=17;rotation=270;fillColor=#bdd7ee;gradientColor=none;shape=stencil(zZLNDsIgEISfZo82lDWtnGt9jyalQkRoKPXn7YVsjFWTmnrR2wzMR7LLAFaDanoJnA3Bu4M86zYowC1wrq2SXoeoAGvAqnNe7r0bbUu+b1IyqaM7pRcuxLFEcHYllzPyO4oabSdRLDLxlF4hEyIryyVIvo7IRvwauQ/6PTG7qrdwsXSE/ySQf/jw2R1F8ahhp42hFk/vX2sbj6jyWN8A);strokeColor=#0070c0;strokeWidth=4;spacingTop=-3;spacingBottom=-3;spacingLeft=-3;spacingRight=-3;flipH=1;flipV=1;points=[];labelBackgroundColor=none;rounded=0;html=1;whiteSpace=wrap;fontStyle=1" vertex="1" parent="1">
            <mxGeometry x="331" y="165" width="84" height="1" as="geometry" />
          </mxCell>
        </UserObject>
        <UserObject label="&lt;div style=&quot;font-size: 1px&quot;&gt;&lt;font style=&quot;font-size:38.8px;font-family:宋体;color:#000000;direction:ltr;letter-spacing:0px;line-height:120%;opacity:1&quot;&gt;模型实现机理和工作机制不清晰的问题&lt;/font&gt;&lt;font style=&quot;font-size:11.64px;font-family:helvetica;color:#000000;direction:ltr;letter-spacing:0px;line-height:120%;opacity:1&quot;&gt;&lt;br&gt;&lt;/font&gt;&lt;font style=&quot;font-size:11.64px;font-family:Helvetica;color:#000000;direction:ltr;letter-spacing:0px;line-height:120%;opacity:1&quot;&gt;&lt;br&gt;&lt;/font&gt;&lt;/div&gt;" tags="Background" id="0N5C-bSlOZF7z8Y1nU8M-18">
          <mxCell style="verticalAlign=middle;align=center;overflow=width;vsdxID=18;fillColor=none;gradientColor=none;shape=stencil(nZBLDoAgDERP0z3SIyjew0SURgSD+Lu9kMZoXLhwN9O+tukAlrNpJg1SzDH4QW/URgNYgZTkjA4UkwJUgGXng+6DX1zLfmoymdXo17xh5zmRJ6Q42BWCfc2oJfdAr+Yv+AP9Cb7OJ3H/2JG1HNGz/84klThPVCc=);strokeColor=none;spacingTop=-3;spacingBottom=-3;spacingLeft=-3;spacingRight=-3;points=[];labelBackgroundColor=none;rounded=0;html=1;whiteSpace=wrap;fontStyle=1" vertex="1" parent="1">
            <mxGeometry x="645.75" y="259" width="358.5" height="102" as="geometry" />
          </mxCell>
        </UserObject>
        <UserObject label="&lt;div style=&quot;font-size: 1px&quot;&gt;&lt;font style=&quot;font-size:38.8px;font-family:宋体;color:#000000;direction:ltr;letter-spacing:0px;line-height:120%;opacity:1&quot;&gt;模型对新场景适应能力差的问题&lt;/font&gt;&lt;font style=&quot;font-size:11.64px;font-family:helvetica;color:#000000;direction:ltr;letter-spacing:0px;line-height:120%;opacity:1&quot;&gt;&lt;br&gt;&lt;/font&gt;&lt;font style=&quot;font-size:11.64px;font-family:Helvetica;color:#000000;direction:ltr;letter-spacing:0px;line-height:120%;opacity:1&quot;&gt;&lt;br&gt;&lt;/font&gt;&lt;/div&gt;" tags="Background" id="0N5C-bSlOZF7z8Y1nU8M-19">
          <mxCell style="verticalAlign=middle;align=center;overflow=width;vsdxID=19;fillColor=none;gradientColor=none;shape=stencil(nZBLDoAgDERP0z3SIyjew0SURgSD+Lu9kMZoXLhwN9O+tukAlrNpJg1SzDH4QW/URgNYgZTkjA4UkwJUgGXng+6DX1zLfmoymdXo17xh5zmRJ6Q42BWCfc2oJfdAr+Yv+AP9Cb7OJ3H/2JG1HNGz/84klThPVCc=);strokeColor=none;spacingTop=-3;spacingBottom=-3;spacingLeft=-3;spacingRight=-3;points=[];labelBackgroundColor=none;rounded=0;html=1;whiteSpace=wrap;fontStyle=1" vertex="1" parent="1">
            <mxGeometry x="1111" y="259" width="323" height="102" as="geometry" />
          </mxCell>
        </UserObject>
        <UserObject label="" tags="Background" id="0N5C-bSlOZF7z8Y1nU8M-20">
          <mxCell style="vsdxID=20;fillColor=#deebf6;gradientColor=none;shape=stencil(rVTbUoMwEP0aHt3Jbu7Ptf5Hx1JhxNKhVMvfGwwIGwZGHd+Sw1nO2Us2k7trcbjkGYlr29Sv+Ud5bItMPmZE5bnIm7INp0zuM7k71U3+0tS38zHeL4ee2Z/e6vf+D/cYZ0BgH0SiiwAK8XV/iuyqPM/YHsHpf6Q/35poBocAA3IMGCEP3kfoTguoGyEJxg4syaVENwBOgzPrZif+cFeAastsCAA03C0KkLhw+50TjUXXmpv1FqzndiW4TflQq/4rUwekRFyBMFz8QQC5RH3WpwH6VVc3yIv5+jM3zV+B4tmHxITl6dPkdECQZ45giSdO4O2WrADtuK4Cr7hs70RxXQtGculkOsPkKFqvDZ9N50cXqy7RJu9IA2FaHWu5yzCrySua9SR5Vz9rYcIOh2kTncqqiots/j3dXAGKW0/uPwE=);strokeColor=#2e75b5;strokeWidth=4;spacingTop=-3;spacingBottom=-3;spacingLeft=-3;spacingRight=-3;points=[];labelBackgroundColor=none;rounded=0;html=1;whiteSpace=wrap;fontStyle=1" vertex="1" parent="1">
            <mxGeometry x="212" y="825" width="324" height="149" as="geometry" />
          </mxCell>
        </UserObject>
        <UserObject label="&lt;div style=&quot;font-size: 1px&quot;&gt;&lt;font style=&quot;font-size:38.8px;font-family:simsun;color:#000000;direction:ltr;letter-spacing:0px;line-height:120%;opacity:1&quot;&gt;基本语言模型的探索和构建&lt;/font&gt;&lt;font style=&quot;font-size:11.64px;font-family:helvetica;color:#000000;direction:ltr;letter-spacing:0px;line-height:120%;opacity:1&quot;&gt;&lt;br&gt;&lt;/font&gt;&lt;font style=&quot;font-size:11.64px;font-family:Helvetica;color:#000000;direction:ltr;letter-spacing:0px;line-height:120%;opacity:1&quot;&gt;&lt;br&gt;&lt;/font&gt;&lt;/div&gt;" tags="Background" id="0N5C-bSlOZF7z8Y1nU8M-21">
          <mxCell style="verticalAlign=middle;align=center;overflow=width;vsdxID=21;fillColor=none;gradientColor=none;shape=stencil(nZBLDoAgDERP0z3SIyjew0SURgSD+Lu9kMZoXLhwN9O+tukAlrNpJg1SzDH4QW/URgNYgZTkjA4UkwJUgGXng+6DX1zLfmoymdXo17xh5zmRJ6Q42BWCfc2oJfdAr+Yv+AP9Cb7OJ3H/2JG1HNGz/84klThPVCc=);strokeColor=none;spacingTop=-3;spacingBottom=-3;spacingLeft=-3;spacingRight=-3;points=[];labelBackgroundColor=none;rounded=0;html=1;whiteSpace=wrap;fontStyle=1" vertex="1" parent="1">
            <mxGeometry x="249.5" y="671.5" width="243" height="100" as="geometry" />
          </mxCell>
        </UserObject>
        <UserObject label="&lt;div style=&quot;font-size: 1px&quot;&gt;&lt;font style=&quot;font-size:38.8px;font-family:宋体;color:#000000;direction:ltr;letter-spacing:0px;line-height:120%;opacity:1&quot;&gt;通用人工智能的研究和设计&lt;/font&gt;&lt;font style=&quot;font-size:11.64px;font-family:helvetica;color:#000000;direction:ltr;letter-spacing:0px;line-height:120%;opacity:1&quot;&gt;&lt;br&gt;&lt;/font&gt;&lt;font style=&quot;font-size:11.64px;font-family:Helvetica;color:#000000;direction:ltr;letter-spacing:0px;line-height:120%;opacity:1&quot;&gt;&lt;br&gt;&lt;/font&gt;&lt;/div&gt;" tags="Background" id="0N5C-bSlOZF7z8Y1nU8M-22">
          <mxCell style="verticalAlign=middle;align=center;overflow=width;vsdxID=22;fillColor=none;gradientColor=none;shape=stencil(nZBLDoAgDERP0z3SIyjew0SURgSD+Lu9kMZoXLhwN9O+tukAlrNpJg1SzDH4QW/URgNYgZTkjA4UkwJUgGXng+6DX1zLfmoymdXo17xh5zmRJ6Q42BWCfc2oJfdAr+Yv+AP9Cb7OJ3H/2JG1HNGz/84klThPVCc=);strokeColor=none;spacingTop=-3;spacingBottom=-3;spacingLeft=-3;spacingRight=-3;points=[];labelBackgroundColor=none;rounded=0;html=1;whiteSpace=wrap;fontStyle=1" vertex="1" parent="1">
            <mxGeometry x="233.75" y="848.5" width="274.5" height="102" as="geometry" />
          </mxCell>
        </UserObject>
        <UserObject label="&lt;div style=&quot;font-size: 1px&quot;&gt;&lt;font style=&quot;font-size:38.8px;font-family:宋体;color:#000000;direction:ltr;letter-spacing:0px;line-height:120%;opacity:1&quot;&gt;设计模型学习动态跟踪方法&lt;/font&gt;&lt;font style=&quot;font-size:11.64px;font-family:helvetica;color:#000000;direction:ltr;letter-spacing:0px;line-height:120%;opacity:1&quot;&gt;&lt;br&gt;&lt;/font&gt;&lt;font style=&quot;font-size:11.64px;font-family:Helvetica;color:#000000;direction:ltr;letter-spacing:0px;line-height:120%;opacity:1&quot;&gt;&lt;br&gt;&lt;/font&gt;&lt;/div&gt;" tags="Background" id="0N5C-bSlOZF7z8Y1nU8M-23">
          <mxCell style="verticalAlign=middle;align=center;overflow=width;vsdxID=23;fillColor=none;gradientColor=none;shape=stencil(nZBLDoAgDERP0z3SIyjew0SURgSD+Lu9kMZoXLhwN9O+tukAlrNpJg1SzDH4QW/URgNYgZTkjA4UkwJUgGXng+6DX1zLfmoymdXo17xh5zmRJ6Q42BWCfc2oJfdAr+Yv+AP9Cb7OJ3H/2JG1HNGz/84klThPVCc=);strokeColor=none;spacingTop=-3;spacingBottom=-3;spacingLeft=-3;spacingRight=-3;points=[];labelBackgroundColor=none;rounded=0;html=1;whiteSpace=wrap;fontStyle=1" vertex="1" parent="1">
            <mxGeometry x="705.5" y="671.5" width="241" height="100" as="geometry" />
          </mxCell>
        </UserObject>
        <UserObject label="&lt;div style=&quot;font-size: 1px&quot;&gt;&lt;font style=&quot;font-size:38.8px;font-family:宋体;color:#000000;direction:ltr;letter-spacing:0px;line-height:120%;opacity:1&quot;&gt;对模型知识提取和决策干预&lt;/font&gt;&lt;font style=&quot;font-size:11.64px;font-family:helvetica;color:#000000;direction:ltr;letter-spacing:0px;line-height:120%;opacity:1&quot;&gt;&lt;br&gt;&lt;/font&gt;&lt;font style=&quot;font-size:11.64px;font-family:Helvetica;color:#000000;direction:ltr;letter-spacing:0px;line-height:120%;opacity:1&quot;&gt;&lt;br&gt;&lt;/font&gt;&lt;/div&gt;" tags="Background" id="0N5C-bSlOZF7z8Y1nU8M-24">
          <mxCell style="verticalAlign=middle;align=center;overflow=width;vsdxID=24;fillColor=none;gradientColor=none;shape=stencil(nZBLDoAgDERP0z3SIyjew0SURgSD+Lu9kMZoXLhwN9O+tukAlrNpJg1SzDH4QW/URgNYgZTkjA4UkwJUgGXng+6DX1zLfmoymdXo17xh5zmRJ6Q42BWCfc2oJfdAr+Yv+AP9Cb7OJ3H/2JG1HNGz/84klThPVCc=);strokeColor=none;spacingTop=-3;spacingBottom=-3;spacingLeft=-3;spacingRight=-3;points=[];labelBackgroundColor=none;rounded=0;html=1;whiteSpace=wrap;fontStyle=1" vertex="1" parent="1">
            <mxGeometry x="704" y="848.5" width="238" height="92" as="geometry" />
          </mxCell>
        </UserObject>
        <UserObject label="&lt;div style=&quot;font-size: 1px&quot;&gt;&lt;font style=&quot;font-size:38.8px;font-family:宋体;color:#000000;direction:ltr;letter-spacing:0px;line-height:120%;opacity:1&quot;&gt;设计模型增量学习方法&lt;/font&gt;&lt;font style=&quot;font-size:11.64px;font-family:helvetica;color:#000000;direction:ltr;letter-spacing:0px;line-height:120%;opacity:1&quot;&gt;&lt;br&gt;&lt;/font&gt;&lt;font style=&quot;font-size:11.64px;font-family:Helvetica;color:#000000;direction:ltr;letter-spacing:0px;line-height:120%;opacity:1&quot;&gt;&lt;br&gt;&lt;/font&gt;&lt;/div&gt;" tags="Background" id="0N5C-bSlOZF7z8Y1nU8M-25">
          <mxCell style="verticalAlign=middle;align=center;overflow=width;vsdxID=25;fillColor=none;gradientColor=none;shape=stencil(nZBLDoAgDERP0z3SIyjew0SURgSD+Lu9kMZoXLhwN9O+tukAlrNpJg1SzDH4QW/URgNYgZTkjA4UkwJUgGXng+6DX1zLfmoymdXo17xh5zmRJ6Q42BWCfc2oJfdAr+Yv+AP9Cb7OJ3H/2JG1HNGz/84klThPVCc=);strokeColor=none;spacingTop=-3;spacingBottom=-3;spacingLeft=-3;spacingRight=-3;points=[];labelBackgroundColor=none;rounded=0;html=1;whiteSpace=wrap;fontStyle=1" vertex="1" parent="1">
            <mxGeometry x="1168" y="671.5" width="216" height="90" as="geometry" />
          </mxCell>
        </UserObject>
        <UserObject label="&lt;div style=&quot;font-size: 1px&quot;&gt;&lt;font style=&quot;font-size:38.8px;font-family:宋体;color:#000000;direction:ltr;letter-spacing:0px;line-height:120%;opacity:1&quot;&gt;构造模型反馈学习演化回路&lt;/font&gt;&lt;font style=&quot;font-size:11.64px;font-family:helvetica;color:#000000;direction:ltr;letter-spacing:0px;line-height:120%;opacity:1&quot;&gt;&lt;br&gt;&lt;/font&gt;&lt;font style=&quot;font-size:11.64px;font-family:Helvetica;color:#000000;direction:ltr;letter-spacing:0px;line-height:120%;opacity:1&quot;&gt;&lt;br&gt;&lt;/font&gt;&lt;/div&gt;" tags="Background" id="0N5C-bSlOZF7z8Y1nU8M-26">
          <mxCell style="verticalAlign=middle;align=center;overflow=width;vsdxID=26;fillColor=none;gradientColor=none;shape=stencil(nZBLDoAgDERP0z3SIyjew0SURgSD+Lu9kMZoXLhwN9O+tukAlrNpJg1SzDH4QW/URgNYgZTkjA4UkwJUgGXng+6DX1zLfmoymdXo17xh5zmRJ6Q42BWCfc2oJfdAr+Yv+AP9Cb7OJ3H/2JG1HNGz/84klThPVCc=);strokeColor=none;spacingTop=-3;spacingBottom=-3;spacingLeft=-3;spacingRight=-3;points=[];labelBackgroundColor=none;rounded=0;html=1;whiteSpace=wrap;fontStyle=1" vertex="1" parent="1">
            <mxGeometry x="1152" y="849.5" width="241" height="90" as="geometry" />
          </mxCell>
        </UserObject>
        <UserObject label="&lt;div style=&quot;font-size: 1px&quot;&gt;&lt;font style=&quot;font-size:11.64px;font-family:helvetica;color:#000000;direction:ltr;letter-spacing:0px;line-height:120%;opacity:1&quot;&gt;&lt;br&gt;&lt;/font&gt;&lt;font style=&quot;font-size:11.64px;font-family:Helvetica;color:#000000;direction:ltr;letter-spacing:0px;line-height:120%;opacity:1&quot;&gt;&lt;br&gt;&lt;/font&gt;&lt;/div&gt;" tags="Background" id="0N5C-bSlOZF7z8Y1nU8M-31">
          <mxCell style="verticalAlign=middle;align=center;overflow=width;vsdxID=31;rotation=270;fillColor=#ffe6cc;gradientColor=none;shape=stencil(zZLNDsIgEISfZo82lDWtnGt9jyalQkRoKPXn7YVsjFWTmnrR2wzMR7LLAFaDanoJnA3Bu4M86zYowC1wrq2SXoeoAGvAqnNe7r0bbUu+b1IyqaM7pRcuxLFEcHYllzPyO4oabSdRLDLxlF4hEyIryyVIvo7IRvwauQ/6PTG7qrdwsXSE/ySQf/jw2R1F8ahhp42hFk/vX2sbj6jyWN8A);strokeColor=#ED7D31;strokeWidth=4;spacingTop=-3;spacingBottom=-3;spacingLeft=-3;spacingRight=-3;flipH=1;flipV=1;points=[];labelBackgroundColor=none;rounded=0;html=1;whiteSpace=wrap;fontStyle=1" vertex="1" parent="1">
            <mxGeometry x="783" y="165" width="84" height="1" as="geometry" />
          </mxCell>
        </UserObject>
        <UserObject label="&lt;div style=&quot;font-size: 1px&quot;&gt;&lt;font style=&quot;font-size:11.64px;font-family:helvetica;color:#000000;direction:ltr;letter-spacing:0px;line-height:120%;opacity:1&quot;&gt;&lt;br&gt;&lt;/font&gt;&lt;font style=&quot;font-size:11.64px;font-family:Helvetica;color:#000000;direction:ltr;letter-spacing:0px;line-height:120%;opacity:1&quot;&gt;&lt;br&gt;&lt;/font&gt;&lt;/div&gt;" tags="Background" id="0N5C-bSlOZF7z8Y1nU8M-33">
          <mxCell style="verticalAlign=middle;align=center;overflow=width;vsdxID=33;rotation=270;fillColor=#ffe6cc;gradientColor=none;shape=stencil(zZLNDsIgEISfZo82lDWtnGt9jyalQkRoKPXn7YVsjFWTmnrR2wzMR7LLAFaDanoJnA3Bu4M86zYowC1wrq2SXoeoAGvAqnNe7r0bbUu+b1IyqaM7pRcuxLFEcHYllzPyO4oabSdRLDLxlF4hEyIryyVIvo7IRvwauQ/6PTG7qrdwsXSE/ySQf/jw2R1F8ahhp42hFk/vX2sbj6jyWN8A);strokeColor=#ED7D31;strokeWidth=4;spacingTop=-3;spacingBottom=-3;spacingLeft=-3;spacingRight=-3;flipH=1;flipV=1;points=[];labelBackgroundColor=none;rounded=0;html=1;whiteSpace=wrap;fontStyle=1" vertex="1" parent="1">
            <mxGeometry x="784" y="476" width="84" height="1" as="geometry" />
          </mxCell>
        </UserObject>
        <UserObject label="&lt;div style=&quot;font-size: 1px&quot;&gt;&lt;font style=&quot;font-size:11.64px;font-family:helvetica;color:#000000;direction:ltr;letter-spacing:0px;line-height:120%;opacity:1&quot;&gt;&lt;br&gt;&lt;/font&gt;&lt;font style=&quot;font-size:11.64px;font-family:Helvetica;color:#000000;direction:ltr;letter-spacing:0px;line-height:120%;opacity:1&quot;&gt;&lt;br&gt;&lt;/font&gt;&lt;/div&gt;" tags="Background" id="0N5C-bSlOZF7z8Y1nU8M-37">
          <mxCell style="verticalAlign=middle;align=center;overflow=width;vsdxID=37;rotation=270;fillColor=#d5e8d4;gradientColor=none;shape=stencil(zZLNDsIgEISfZo82lDWtnGt9jyalQkRoKPXn7YVsjFWTmnrR2wzMR7LLAFaDanoJnA3Bu4M86zYowC1wrq2SXoeoAGvAqnNe7r0bbUu+b1IyqaM7pRcuxLFEcHYllzPyO4oabSdRLDLxlF4hEyIryyVIvo7IRvwauQ/6PTG7qrdwsXSE/ySQf/jw2R1F8ahhp42hFk/vX2sbj6jyWN8A);strokeColor=#82b366;strokeWidth=4;spacingTop=-3;spacingBottom=-3;spacingLeft=-3;spacingRight=-3;flipH=1;flipV=1;points=[];labelBackgroundColor=none;rounded=0;html=1;whiteSpace=wrap;fontStyle=1" vertex="1" parent="1">
            <mxGeometry x="1233" y="476" width="84" height="1" as="geometry" />
          </mxCell>
        </UserObject>
        <UserObject label="&lt;div style=&quot;font-size: 1px&quot;&gt;&lt;font style=&quot;font-size:11.64px;font-family:helvetica;color:#000000;direction:ltr;letter-spacing:0px;line-height:120%;opacity:1&quot;&gt;&lt;br&gt;&lt;/font&gt;&lt;font style=&quot;font-size:11.64px;font-family:Helvetica;color:#000000;direction:ltr;letter-spacing:0px;line-height:120%;opacity:1&quot;&gt;&lt;br&gt;&lt;/font&gt;&lt;/div&gt;" tags="Background" id="0N5C-bSlOZF7z8Y1nU8M-38">
          <mxCell style="verticalAlign=middle;align=center;overflow=width;vsdxID=38;rotation=270;fillColor=#d5e8d4;gradientColor=none;shape=stencil(zZLNDsIgEISfZo82lDWtnGt9jyalQkRoKPXn7YVsjFWTmnrR2wzMR7LLAFaDanoJnA3Bu4M86zYowC1wrq2SXoeoAGvAqnNe7r0bbUu+b1IyqaM7pRcuxLFEcHYllzPyO4oabSdRLDLxlF4hEyIryyVIvo7IRvwauQ/6PTG7qrdwsXSE/ySQf/jw2R1F8ahhp42hFk/vX2sbj6jyWN8A);strokeColor=#82b366;strokeWidth=4;spacingTop=-3;spacingBottom=-3;spacingLeft=-3;spacingRight=-3;flipH=1;flipV=1;points=[];labelBackgroundColor=none;rounded=0;html=1;whiteSpace=wrap;fontStyle=1" vertex="1" parent="1">
            <mxGeometry x="1233" y="165" width="84" height="1" as="geometry" />
          </mxCell>
        </UserObject>
        <UserObject label="&lt;div style=&quot;font-size: 1px&quot;&gt;&lt;font style=&quot;font-size:11.64px;font-family:helvetica;color:#000000;direction:ltr;letter-spacing:0px;line-height:120%;opacity:1&quot;&gt;&lt;br&gt;&lt;/font&gt;&lt;font style=&quot;font-size:11.64px;font-family:Helvetica;color:#000000;direction:ltr;letter-spacing:0px;line-height:120%;opacity:1&quot;&gt;&lt;br&gt;&lt;/font&gt;&lt;/div&gt;" tags="Background" id="0N5C-bSlOZF7z8Y1nU8M-40">
          <mxCell style="verticalAlign=middle;align=center;overflow=width;vsdxID=40;rotation=270;fillColor=#bdd7ee;gradientColor=none;shape=stencil(zZLNDsIgEISfZo82lDWtnGt9jyalQkRoKPXn7YVsjFWTmnrR2wzMR7LLAFaDanoJnA3Bu4M86zYowC1wrq2SXoeoAGvAqnNe7r0bbUu+b1IyqaM7pRcuxLFEcHYllzPyO4oabSdRLDLxlF4hEyIryyVIvo7IRvwauQ/6PTG7qrdwsXSE/ySQf/jw2R1F8ahhp42hFk/vX2sbj6jyWN8A);strokeColor=#0070c0;strokeWidth=4;spacingTop=-3;spacingBottom=-3;spacingLeft=-3;spacingRight=-3;flipH=1;flipV=1;points=[];labelBackgroundColor=none;rounded=0;html=1;whiteSpace=wrap;fontStyle=1" vertex="1" parent="1">
            <mxGeometry x="331" y="1058" width="84" height="1" as="geometry" />
          </mxCell>
        </UserObject>
        <UserObject label="&lt;div style=&quot;font-size: 1px&quot;&gt;&lt;font style=&quot;font-size:11.64px;font-family:helvetica;color:#000000;direction:ltr;letter-spacing:0px;line-height:120%;opacity:1&quot;&gt;&lt;br&gt;&lt;/font&gt;&lt;font style=&quot;font-size:11.64px;font-family:Helvetica;color:#000000;direction:ltr;letter-spacing:0px;line-height:120%;opacity:1&quot;&gt;&lt;br&gt;&lt;/font&gt;&lt;/div&gt;" tags="Background" id="0N5C-bSlOZF7z8Y1nU8M-41">
          <mxCell style="verticalAlign=middle;align=center;overflow=width;vsdxID=41;rotation=270;fillColor=#ffe6cc;gradientColor=none;shape=stencil(zZLNDsIgEISfZo82lDWtnGt9jyalQkRoKPXn7YVsjFWTmnrR2wzMR7LLAFaDanoJnA3Bu4M86zYowC1wrq2SXoeoAGvAqnNe7r0bbUu+b1IyqaM7pRcuxLFEcHYllzPyO4oabSdRLDLxlF4hEyIryyVIvo7IRvwauQ/6PTG7qrdwsXSE/ySQf/jw2R1F8ahhp42hFk/vX2sbj6jyWN8A);strokeColor=#ED7D31;strokeWidth=4;spacingTop=-3;spacingBottom=-3;spacingLeft=-3;spacingRight=-3;flipH=1;flipV=1;points=[];labelBackgroundColor=none;rounded=0;html=1;whiteSpace=wrap;fontStyle=1" vertex="1" parent="1">
            <mxGeometry x="783" y="1058" width="84" height="1" as="geometry" />
          </mxCell>
        </UserObject>
        <UserObject label="&lt;div style=&quot;font-size: 1px&quot;&gt;&lt;font style=&quot;font-size:11.64px;font-family:helvetica;color:#000000;direction:ltr;letter-spacing:0px;line-height:120%;opacity:1&quot;&gt;&lt;br&gt;&lt;/font&gt;&lt;font style=&quot;font-size:11.64px;font-family:Helvetica;color:#000000;direction:ltr;letter-spacing:0px;line-height:120%;opacity:1&quot;&gt;&lt;br&gt;&lt;/font&gt;&lt;/div&gt;" tags="Background" id="0N5C-bSlOZF7z8Y1nU8M-42">
          <mxCell style="verticalAlign=middle;align=center;overflow=width;vsdxID=42;rotation=270;fillColor=#d5e8d4;gradientColor=none;shape=stencil(zZLNDsIgEISfZo82lDWtnGt9jyalQkRoKPXn7YVsjFWTmnrR2wzMR7LLAFaDanoJnA3Bu4M86zYowC1wrq2SXoeoAGvAqnNe7r0bbUu+b1IyqaM7pRcuxLFEcHYllzPyO4oabSdRLDLxlF4hEyIryyVIvo7IRvwauQ/6PTG7qrdwsXSE/ySQf/jw2R1F8ahhp42hFk/vX2sbj6jyWN8A);strokeColor=#82b366;strokeWidth=4;spacingTop=-3;spacingBottom=-3;spacingLeft=-3;spacingRight=-3;flipH=1;flipV=1;points=[];labelBackgroundColor=none;rounded=0;html=1;whiteSpace=wrap;fontStyle=1" vertex="1" parent="1">
            <mxGeometry x="1233" y="1058" width="84" height="1" as="geometry" />
          </mxCell>
        </UserObject>
        <UserObject label="" tags="Background" id="0N5C-bSlOZF7z8Y1nU8M-127">
          <mxCell style="vsdxID=36;fillColor=none;gradientColor=none;shape=stencil(rVTLcoMwDPwaH6PxE9vnNP2PTEIKUwoZQhry9zVj85CY0h5ys8WKXa0sMbW/FcdrziS/dW3zmT/Kc1cw9cakLOsib8sunJg6MLW/NG3+0Tb3+hzv1+OAHE5fzffwhz7mCT6kSP4cr/H+HrFVWS+w/mXY072NIkRCG9A+JYwhD87FUC+nkBcJNYbUlNgrTMWfKeAMGPe70hmf7hq03BIbEkBgsYKDMSux3GGxGTgs1VsQDovVwO0fTklHyEEpwi0hI9y7oFkTduLT/7u5gRQvQdKq7VTiWPRu6sFYtAarcc3BGPI2JDhD/RabzebgM8wcuqgxc9CSmjZThwdhMTdxe/XMsDvYnNUTXsvkxKAwGUZRh6YhW0xURseH6Nya8u3tEQ7z2rmUVRW31vI7XVMhFFecOvwA);strokeColor=#82b366;strokeWidth=4;spacingTop=-3;spacingBottom=-3;spacingLeft=-3;spacingRight=-3;points=[];labelBackgroundColor=none;rounded=0;html=1;whiteSpace=wrap;fontStyle=1" vertex="1" parent="1">
            <mxGeometry x="1091.5" y="1600" width="380" height="200" as="geometry" />
          </mxCell>
        </UserObject>
        <UserObject label="" tags="Background" id="0N5C-bSlOZF7z8Y1nU8M-128">
          <mxCell style="vsdxID=30;fillColor=none;gradientColor=none;shape=stencil(rVTLcoMwDPwaH6PxE9vnNP2PTEIKUwoZQhry9zVj85CY0h5ys8WKXa0sMbW/FcdrziS/dW3zmT/Kc1cw9cakLOsib8sunJg6MLW/NG3+0Tb3+hzv1+OAHE5fzffwhz7mCT6kSP4cr/H+HrFVWS+w/mXY072NIkRCG9A+JYwhD87FUC+nkBcJNYbUlNgrTMWfKeAMGPe70hmf7hq03BIbEkBgsYKDMSux3GGxGTgs1VsQDovVwO0fTklHyEEpwi0hI9y7oFkTduLT/7u5gRQvQdKq7VTiWPRu6sFYtAarcc3BGPI2JDhD/RabzebgM8wcuqgxc9CSmjZThwdhMTdxe/XMsDvYnNUTXsvkxKAwGUZRh6YhW0xURseH6Nya8u3tEQ7z2rmUVRW31vI7XVMhFFecOvwA);strokeColor=#ED7D31;strokeWidth=4;spacingTop=-3;spacingBottom=-3;spacingLeft=-3;spacingRight=-3;points=[];labelBackgroundColor=none;rounded=0;html=1;whiteSpace=wrap;fontStyle=1" vertex="1" parent="1">
            <mxGeometry x="641.5" y="1600" width="380" height="200" as="geometry" />
          </mxCell>
        </UserObject>
        <UserObject label="" tags="Background" id="0N5C-bSlOZF7z8Y1nU8M-129">
          <mxCell style="vsdxID=34;fillColor=none;gradientColor=none;shape=stencil(rVRBcoMwDHyNj9XYsrHxOU3/kWlIYUoh45A2+X3tMRQkprSH3CyxZlcrS0LvLvXhXAmUlyH079VXcxxqoZ8FYtPVVWiGeBJ6L/Tu1IfqLfTX7pjj8yEh0+mj/0x/uOV7SqYrKO9TmOOXjG2bboH1D8O+XkMWoUZ0AcaPF6aUB1/k1A3nlBpRU8oBmhGlKZW8jwmvofS/K53xObag1JbWiAdFtRowbiVVllQqQllSpVG8KqlWBQ7/MAqZURIKy8gRLCN/kiAtY2c2/b+ZG0j1ECSv2oHWtOhUj6FVG3CGFh2d8bTm2INiZbjZopbgLaVG8JQ4aXGUOT4I1mtmNn9k1Btqzer9rjVKZk8aC8vt+ZmwxTgxlYrJ3Bzx7dURD/POOTVtm1fW8jvfUTGV95vefwM=);strokeColor=#82b366;strokeWidth=4;spacingTop=-3;spacingBottom=-3;spacingLeft=-3;spacingRight=-3;points=[];labelBackgroundColor=none;rounded=0;html=1;whiteSpace=wrap;fontStyle=1" vertex="1" parent="1">
            <mxGeometry x="1091.5" y="1909" width="380" height="472" as="geometry" />
          </mxCell>
        </UserObject>
        <UserObject label="" tags="Background" id="0N5C-bSlOZF7z8Y1nU8M-130">
          <mxCell style="vsdxID=28;fillColor=none;gradientColor=none;shape=stencil(rVRBcoMwDHyNj9XYsrHxOU3/kWlIYUoh45A2+X3tMRQkprSH3CyxZlcrS0LvLvXhXAmUlyH079VXcxxqoZ8FYtPVVWiGeBJ6L/Tu1IfqLfTX7pjj8yEh0+mj/0x/uOV7SqYrKO9TmOOXjG2bboH1D8O+XkMWoUZ0AcaPF6aUB1/k1A3nlBpRU8oBmhGlKZW8jwmvofS/K53xObag1JbWiAdFtRowbiVVllQqQllSpVG8KqlWBQ7/MAqZURIKy8gRLCN/kiAtY2c2/b+ZG0j1ECSv2oHWtOhUj6FVG3CGFh2d8bTm2INiZbjZopbgLaVG8JQ4aXGUOT4I1mtmNn9k1Btqzer9rjVKZk8aC8vt+ZmwxTgxlYrJ3Bzx7dURD/POOTVtm1fW8jvfUTGV95vefwM=);strokeColor=#ED7D31;strokeWidth=4;spacingTop=-3;spacingBottom=-3;spacingLeft=-3;spacingRight=-3;points=[];labelBackgroundColor=none;rounded=0;html=1;whiteSpace=wrap;fontStyle=1" vertex="1" parent="1">
            <mxGeometry x="641.5" y="1909" width="380" height="472" as="geometry" />
          </mxCell>
        </UserObject>
        <UserObject label="" tags="Background" id="0N5C-bSlOZF7z8Y1nU8M-131">
          <mxCell style="vsdxID=11;fillColor=none;gradientColor=none;shape=stencil(rVTLcsIwDPwaH6uRbMePM4X/YEpoMk0TJoQW/r5OnQdWaXLhJskr70qWJdTmXOxPuZB47trmI/8uD10h1KuQsqyLvC27YAm1FWpzbNr8vW0u9SH6p32P7K3P5qu/4RrzNNg+R+It+oT46+8iuCrrO7DPQNMT4W+XNmqhIcGCV0PCGPLgXAxd5RTyo+gxhGCzAaVSKrwNAetB6//FzvjoSwlol8SGBECmlgzQX7WZTNUSAhPrHWQ+lWtAqZVeGZOySyDDyMMtPiV/QSDJ2DNAl7Ivv+qEXgUHrH4OltevpsGlqTCktHwJmrVegjJp8QTaCtZ5s0QcHo+/OoLTKTOmtDTeOdGy4QzChgF42Jp0NK0DT8sS+WCGD6I9bw6x5vR/jQ3mvB7Yt3ooc2WZBGNeQ8eyquIWuz/nayuE4spT2x8=);dashed=1;dashPattern=4.00 2.00;strokeColor=#002060;strokeWidth=4;spacingTop=-3;spacingBottom=-3;spacingLeft=-3;spacingRight=-3;points=[];labelBackgroundColor=none;rounded=0;html=1;whiteSpace=wrap;fontStyle=1" vertex="1" parent="1">
            <mxGeometry x="97.5" y="1577" width="1402" height="246" as="geometry" />
          </mxCell>
        </UserObject>
        <UserObject label="" tags="Background" id="0N5C-bSlOZF7z8Y1nU8M-132">
          <mxCell style="vsdxID=12;fillColor=none;gradientColor=none;shape=stencil(rVTLcsMgDPwajtUAAgznNP2PTOPUnrpxxnHa5O+Lix+R3NiX3EBeeZdlkcDNudidcqHluW3qz/yn3LeFwFehdXks8qZs40rgVuDmUDf5R1Nfjvu0P+06ZLf6qr+7P1xTn4Gs69HylvZKyr/9WwJX5fEOHCwY9UT4+6VJWlTfkEHAvmEoBQgmla56Kg2i9ciEAwoplbz1BR/AmcdiJ3y/V6D0ktjYAJKp9aDsTKzVVKwFHajW4MEGqhZBhRWrnKPkCmRg5A4wUPKXKNoxdgvSU/blSx3Rq+CINc/B8vPjmFs1HUzR42swzHo1uDrFBEwmmPOIS8wSLLv1GHNHmSWl9YDMc5bNGDb0j62hyYxBpuC5Qp7LeGl6Zo5i5nTvCqnMaTqwV/WvzJVZEhfTFDqUVZWG2P13PrViKU083P4C);dashed=1;dashPattern=4.00 2.00;strokeColor=#002060;strokeWidth=4;spacingTop=-3;spacingBottom=-3;spacingLeft=-3;spacingRight=-3;points=[];labelBackgroundColor=none;rounded=0;html=1;whiteSpace=wrap;fontStyle=1" vertex="1" parent="1">
            <mxGeometry x="97.5" y="1885" width="1402" height="520" as="geometry" />
          </mxCell>
        </UserObject>
        <UserObject label="" tags="Background" id="0N5C-bSlOZF7z8Y1nU8M-133">
          <mxCell style="vsdxID=39;fillColor=#d5e8d4;gradientColor=none;shape=stencil(rVTbUoMwEP0aHt3Jbu7Ptf5Hx1JhxNKhVMvfGwwIGwZGHd+Sw1nO2Us2k7trcbjkGYlr29Sv+Ud5bItMPmZE5bnIm7INp0zuM7k71U3+0tS38zHeL4ee2Z/e6vf+D/cYZ0BgH0SiiwAK8XV/iuyqPM/YHsHpf6Q/35poBocAA3IMGCEP3kfoTguoGyEJxg4syaVENwBOgzPrZif+cFeAastsCAA03C0KkLhw+50TjUXXmpv1FqzndiW4TflQq/4rUwekRFyBMFz8QQC5RH3WpwH6VVc3yIv5+jM3zV+B4tmHxITl6dPkdECQZ45giSdO4O2WrADtuK4Cr7hs70RxXQtGculkOsPkKFqvDZ9N50cXqy7RJu9IA2FaHWu5yzCrySua9SR5Vz9rYcIOh2kTncqqiots/j3dXAGKW0/uPwE=);strokeColor=#82b366;strokeWidth=4;spacingTop=-3;spacingBottom=-3;spacingLeft=-3;spacingRight=-3;points=[];labelBackgroundColor=none;rounded=0;html=1;whiteSpace=wrap;fontStyle=1" vertex="1" parent="1">
            <mxGeometry x="1122.5" y="2215" width="324" height="149" as="geometry" />
          </mxCell>
        </UserObject>
        <UserObject label="" tags="Background" id="0N5C-bSlOZF7z8Y1nU8M-134">
          <mxCell style="vsdxID=35;fillColor=#d5e8d4;gradientColor=none;shape=stencil(rVTbUoMwEP0aHt3Jbu7Ptf5Hx1JhxNKhVMvfGwwIGwZGHd+Sw1nO2Us2k7trcbjkGYlr29Sv+Ud5bItMPmZE5bnIm7INp0zuM7k71U3+0tS38zHeL4ee2Z/e6vf+D/cYZ0BgH0SiiwAK8XV/iuyqPM/YHsHpf6Q/35poBocAA3IMGCEP3kfoTguoGyEJxg4syaVENwBOgzPrZif+cFeAastsCAA03C0KkLhw+50TjUXXmpv1FqzndiW4TflQq/4rUwekRFyBMFz8QQC5RH3WpwH6VVc3yIv5+jM3zV+B4tmHxITl6dPkdECQZ45giSdO4O2WrADtuK4Cr7hs70RxXQtGculkOsPkKFqvDZ9N50cXqy7RJu9IA2FaHWu5yzCrySua9SR5Vz9rYcIOh2kTncqqiots/j3dXAGKW0/uPwE=);strokeColor=#82b366;strokeWidth=4;spacingTop=-3;spacingBottom=-3;spacingLeft=-3;spacingRight=-3;points=[];labelBackgroundColor=none;rounded=0;html=1;whiteSpace=wrap;fontStyle=1" vertex="1" parent="1">
            <mxGeometry x="1121.5" y="2037" width="324" height="149" as="geometry" />
          </mxCell>
        </UserObject>
        <UserObject label="" tags="Background" id="0N5C-bSlOZF7z8Y1nU8M-135">
          <mxCell style="vsdxID=32;fillColor=#FBE5D5;gradientColor=none;shape=stencil(rVTbUoMwEP0aHt3Jbu7Ptf5Hx1JhxNKhVMvfGwwIGwZGHd+Sw1nO2Us2k7trcbjkGYlr29Sv+Ud5bItMPmZE5bnIm7INp0zuM7k71U3+0tS38zHeL4ee2Z/e6vf+D/cYZ0BgH0SiiwAK8XV/iuyqPM/YHsHpf6Q/35poBocAA3IMGCEP3kfoTguoGyEJxg4syaVENwBOgzPrZif+cFeAastsCAA03C0KkLhw+50TjUXXmpv1FqzndiW4TflQq/4rUwekRFyBMFz8QQC5RH3WpwH6VVc3yIv5+jM3zV+B4tmHxITl6dPkdECQZ45giSdO4O2WrADtuK4Cr7hs70RxXQtGculkOsPkKFqvDZ9N50cXqy7RJu9IA2FaHWu5yzCrySua9SR5Vz9rYcIOh2kTncqqiots/j3dXAGKW0/uPwE=);strokeColor=#ED7D31;strokeWidth=4;spacingTop=-3;spacingBottom=-3;spacingLeft=-3;spacingRight=-3;points=[];labelBackgroundColor=none;rounded=0;html=1;whiteSpace=wrap;fontStyle=1" vertex="1" parent="1">
            <mxGeometry x="672.5" y="2215" width="324" height="149" as="geometry" />
          </mxCell>
        </UserObject>
        <UserObject label="" tags="Background" id="0N5C-bSlOZF7z8Y1nU8M-136">
          <mxCell style="vsdxID=29;fillColor=#FBE5D5;gradientColor=none;shape=stencil(rVTbUoMwEP0aHt3Jbu7Ptf5Hx1JhxNKhVMvfGwwIGwZGHd+Sw1nO2Us2k7trcbjkGYlr29Sv+Ud5bItMPmZE5bnIm7INp0zuM7k71U3+0tS38zHeL4ee2Z/e6vf+D/cYZ0BgH0SiiwAK8XV/iuyqPM/YHsHpf6Q/35poBocAA3IMGCEP3kfoTguoGyEJxg4syaVENwBOgzPrZif+cFeAastsCAA03C0KkLhw+50TjUXXmpv1FqzndiW4TflQq/4rUwekRFyBMFz8QQC5RH3WpwH6VVc3yIv5+jM3zV+B4tmHxITl6dPkdECQZ45giSdO4O2WrADtuK4Cr7hs70RxXQtGculkOsPkKFqvDZ9N50cXqy7RJu9IA2FaHWu5yzCrySua9SR5Vz9rYcIOh2kTncqqiots/j3dXAGKW0/uPwE=);strokeColor=#ED7D31;strokeWidth=4;spacingTop=-3;spacingBottom=-3;spacingLeft=-3;spacingRight=-3;points=[];labelBackgroundColor=none;rounded=0;html=1;whiteSpace=wrap;fontStyle=1" vertex="1" parent="1">
            <mxGeometry x="671.5" y="2037" width="324" height="149" as="geometry" />
          </mxCell>
        </UserObject>
        <UserObject label="" tags="Background" id="0N5C-bSlOZF7z8Y1nU8M-137">
          <mxCell style="vsdxID=27;fillColor=#deebf6;gradientColor=none;shape=stencil(rVTbUoMwEP0aHt3Jbu7Ptf5Hx1JhxNKhVMvfGwwIGwZGHd+Sw1nO2Us2k7trcbjkGYlr29Sv+Ud5bItMPmZE5bnIm7INp0zuM7k71U3+0tS38zHeL4ee2Z/e6vf+D/cYZ0BgH0SiiwAK8XV/iuyqPM/YHsHpf6Q/35poBocAA3IMGCEP3kfoTguoGyEJxg4syaVENwBOgzPrZif+cFeAastsCAA03C0KkLhw+50TjUXXmpv1FqzndiW4TflQq/4rUwekRFyBMFz8QQC5RH3WpwH6VVc3yIv5+jM3zV+B4tmHxITl6dPkdECQZ45giSdO4O2WrADtuK4Cr7hs70RxXQtGculkOsPkKFqvDZ9N50cXqy7RJu9IA2FaHWu5yzCrySua9SR5Vz9rYcIOh2kTncqqiots/j3dXAGKW0/uPwE=);strokeColor=#2e75b5;strokeWidth=4;spacingTop=-3;spacingBottom=-3;spacingLeft=-3;spacingRight=-3;points=[];labelBackgroundColor=none;rounded=0;html=1;whiteSpace=wrap;fontStyle=1" vertex="1" parent="1">
            <mxGeometry x="219.5" y="2037" width="324" height="149" as="geometry" />
          </mxCell>
        </UserObject>
        <UserObject label="" tags="Background" id="0N5C-bSlOZF7z8Y1nU8M-138">
          <mxCell style="vsdxID=1;fillColor=none;gradientColor=none;shape=stencil(rVTLcoMwDPwaH6PxE9vnNP2PTEIKUwoZQhry9zVj85CY0h5ys8WKXa0sMbW/FcdrziS/dW3zmT/Kc1cw9cakLOsib8sunJg6MLW/NG3+0Tb3+hzv1+OAHE5fzffwhz7mCT6kSP4cr/H+HrFVWS+w/mXY072NIkRCG9A+JYwhD87FUC+nkBcJNYbUlNgrTMWfKeAMGPe70hmf7hq03BIbEkBgsYKDMSux3GGxGTgs1VsQDovVwO0fTklHyEEpwi0hI9y7oFkTduLT/7u5gRQvQdKq7VTiWPRu6sFYtAarcc3BGPI2JDhD/RabzebgM8wcuqgxc9CSmjZThwdhMTdxe/XMsDvYnNUTXsvkxKAwGUZRh6YhW0xURseH6Nya8u3tEQ7z2rmUVRW31vI7XVMhFFecOvwA);strokeColor=#2e75b5;strokeWidth=4;spacingTop=-3;spacingBottom=-3;spacingLeft=-3;spacingRight=-3;points=[];labelBackgroundColor=none;rounded=0;html=1;whiteSpace=wrap;fontStyle=1" vertex="1" parent="1">
            <mxGeometry x="189.5" y="1600" width="380" height="200" as="geometry" />
          </mxCell>
        </UserObject>
        <UserObject label="&lt;div style=&quot;font-size: 1px&quot;&gt;&lt;font style=&quot;font-size:38.8px;font-family:宋体;color:#000000;direction:ltr;letter-spacing:0px;line-height:120%;opacity:1&quot;&gt;多模态信息的表征不充分的问题&lt;/font&gt;&lt;font style=&quot;font-size:11.64px;font-family:helvetica;color:#000000;direction:ltr;letter-spacing:0px;line-height:120%;opacity:1&quot;&gt;&lt;br&gt;&lt;/font&gt;&lt;font style=&quot;font-size:11.64px;font-family:Helvetica;color:#000000;direction:ltr;letter-spacing:0px;line-height:120%;opacity:1&quot;&gt;&lt;br&gt;&lt;/font&gt;&lt;/div&gt;" tags="Background" id="0N5C-bSlOZF7z8Y1nU8M-139">
          <mxCell style="verticalAlign=middle;align=center;overflow=width;vsdxID=2;fillColor=none;gradientColor=none;shape=stencil(nZBLDoAgDERP0z3SIyjew0SURgSD+Lu9kMZoXLhwN9O+tukAlrNpJg1SzDH4QW/URgNYgZTkjA4UkwJUgGXng+6DX1zLfmoymdXo17xh5zmRJ6Q42BWCfc2oJfdAr+Yv+AP9Cb7OJ3H/2JG1HNGz/84klThPVCc=);strokeColor=none;spacingTop=-3;spacingBottom=-3;spacingLeft=-3;spacingRight=-3;points=[];labelBackgroundColor=none;rounded=0;html=1;whiteSpace=wrap;fontStyle=1" vertex="1" parent="1">
            <mxGeometry x="201.5" y="1650.5" width="356" height="99" as="geometry" />
          </mxCell>
        </UserObject>
        <UserObject label="" tags="Background" id="0N5C-bSlOZF7z8Y1nU8M-140">
          <mxCell style="vsdxID=3;fillColor=none;gradientColor=none;shape=stencil(rVRBcoMwDHyNj9XYsrHxOU3/kWlIYUoh45A2+X3tMRQkprSH3CyxZlcrS0LvLvXhXAmUlyH079VXcxxqoZ8FYtPVVWiGeBJ6L/Tu1IfqLfTX7pjj8yEh0+mj/0x/uOV7SqYrKO9TmOOXjG2bboH1D8O+XkMWoUZ0AcaPF6aUB1/k1A3nlBpRU8oBmhGlKZW8jwmvofS/K53xObag1JbWiAdFtRowbiVVllQqQllSpVG8KqlWBQ7/MAqZURIKy8gRLCN/kiAtY2c2/b+ZG0j1ECSv2oHWtOhUj6FVG3CGFh2d8bTm2INiZbjZopbgLaVG8JQ4aXGUOT4I1mtmNn9k1Btqzer9rjVKZk8aC8vt+ZmwxTgxlYrJ3Bzx7dURD/POOTVtm1fW8jvfUTGV95vefwM=);strokeColor=#2e75b5;strokeWidth=4;spacingTop=-3;spacingBottom=-3;spacingLeft=-3;spacingRight=-3;points=[];labelBackgroundColor=none;rounded=0;html=1;whiteSpace=wrap;fontStyle=1" vertex="1" parent="1">
            <mxGeometry x="189.5" y="1909" width="380" height="472" as="geometry" />
          </mxCell>
        </UserObject>
        <UserObject label="&lt;div style=&quot;font-size: 1px&quot;&gt;&lt;font style=&quot;font-size: 38.8px; color: rgb(0, 0, 0); direction: ltr; letter-spacing: 0px; line-height: 120%; opacity: 1;&quot;&gt;跨模态信息智能表征&lt;br&gt;&lt;/font&gt;&lt;font style=&quot;font-size: 11.64px; color: rgb(0, 0, 0); direction: ltr; letter-spacing: 0px; line-height: 120%; opacity: 1;&quot;&gt;&lt;br&gt;&lt;/font&gt;&lt;font style=&quot;font-size: 11.64px; color: rgb(0, 0, 0); direction: ltr; letter-spacing: 0px; line-height: 120%; opacity: 1;&quot;&gt;&lt;br&gt;&lt;/font&gt;&lt;/div&gt;" tags="Background" id="0N5C-bSlOZF7z8Y1nU8M-141">
          <mxCell style="verticalAlign=middle;align=center;overflow=width;vsdxID=4;fillColor=none;gradientColor=none;shape=stencil(nZBLDoAgDERP0z3SIyjew0SURgSD+Lu9kMZoXLhwN9O+tukAlrNpJg1SzDH4QW/URgNYgZTkjA4UkwJUgGXng+6DX1zLfmoymdXo17xh5zmRJ6Q42BWCfc2oJfdAr+Yv+AP9Cb7OJ3H/2JG1HNGz/84klThPVCc=);strokeColor=none;spacingTop=-3;spacingBottom=-3;spacingLeft=-3;spacingRight=-3;points=[];labelBackgroundColor=none;rounded=0;html=1;whiteSpace=wrap;fontStyle=1;fontFamily=黑体;" vertex="1" parent="1">
            <mxGeometry x="238.5" y="1930" width="288" height="100" as="geometry" />
          </mxCell>
        </UserObject>
        <UserObject label="&lt;div style=&quot;&quot;&gt;&lt;font style=&quot;color: rgb(0, 0, 0); direction: ltr; letter-spacing: 0px; line-height: 120%; opacity: 1; font-size: 38.8px;&quot;&gt;跨模态特征智能理解&lt;/font&gt;&lt;/div&gt;" tags="Background" id="0N5C-bSlOZF7z8Y1nU8M-142">
          <mxCell style="verticalAlign=middle;align=center;overflow=width;vsdxID=5;fillColor=none;gradientColor=none;shape=stencil(nZBLDoAgDERP0z3SIyjew0SURgSD+Lu9kMZoXLhwN9O+tukAlrNpJg1SzDH4QW/URgNYgZTkjA4UkwJUgGXng+6DX1zLfmoymdXo17xh5zmRJ6Q42BWCfc2oJfdAr+Yv+AP9Cb7OJ3H/2JG1HNGz/84klThPVCc=);strokeColor=none;spacingTop=-3;spacingBottom=-3;spacingLeft=-3;spacingRight=-3;points=[];labelBackgroundColor=none;rounded=0;html=1;whiteSpace=wrap;fontStyle=1;fontFamily=黑体;" vertex="1" parent="1">
            <mxGeometry x="691.5" y="1930" width="280" height="93" as="geometry" />
          </mxCell>
        </UserObject>
        <UserObject label="&lt;div style=&quot;&quot;&gt;&lt;font style=&quot;color: rgb(0, 0, 0); direction: ltr; letter-spacing: 0px; line-height: 120%; opacity: 1; font-size: 38.8px;&quot;&gt;跨模态模型的轻量化部署&lt;/font&gt;&lt;/div&gt;" tags="Background" id="0N5C-bSlOZF7z8Y1nU8M-143">
          <mxCell style="verticalAlign=middle;align=center;overflow=width;vsdxID=6;fillColor=none;gradientColor=none;shape=stencil(nZBLDoAgDERP0z3SIyjew0SURgSD+Lu9kMZoXLhwN9O+tukAlrNpJg1SzDH4QW/URgNYgZTkjA4UkwJUgGXng+6DX1zLfmoymdXo17xh5zmRJ6Q42BWCfc2oJfdAr+Yv+AP9Cb7OJ3H/2JG1HNGz/84klThPVCc=);strokeColor=none;spacingTop=-3;spacingBottom=-3;spacingLeft=-3;spacingRight=-3;points=[];labelBackgroundColor=none;rounded=0;html=1;whiteSpace=wrap;fontStyle=1;fontFamily=黑体;" vertex="1" parent="1">
            <mxGeometry x="1128.5" y="1930" width="306" height="93" as="geometry" />
          </mxCell>
        </UserObject>
        <UserObject label="" tags="Background" id="0N5C-bSlOZF7z8Y1nU8M-144">
          <mxCell style="vsdxID=7;fillColor=none;gradientColor=none;shape=stencil(rVRdc4MgEPw1PvYG7kDhOU3+R6Yx1amNGWNa8++LBT84R6ft9A3WPXdvD0hodyuO1zxBcWub+i3/LE9tkdBzglheirwpW7dKaJ/Q7lw3+WtT3y8nv78ee2a/eq8/+j90vg7B2L4IxcMDUojv/cGzq/IyY9sU0uwf6S/3xpuRocCADvwBsZAGgx2OkDWBFaDMgApCHcVK4hEAjYB63evE93uVQaa3vLoCEDJ2SxoELdyOGQTIhZ4xt44lVOxX0sBaD0sxfTX9eJDPQKex/JMAZOqzOQXoV1PdIC/O15+5vH0EiXH3fWMmbl8CsfAJrI27F2CIRS/ByC3tSWjQlm7MbPLOjkAmLoBY9uyUKufYrEcUn1FtIMVNn7FJI0EtA4otjvdgMDibCrtaPxsiY7vF9Bady6ryT9n8O3+7HOTfPdp/AQ==);strokeColor=#c00000;strokeWidth=4;spacingTop=-3;spacingBottom=-3;spacingLeft=-3;spacingRight=-3;points=[];labelBackgroundColor=none;rounded=0;html=1;whiteSpace=wrap;fontStyle=1;fontFamily=黑体;" vertex="1" parent="1">
            <mxGeometry x="96.5" y="1430" width="1404" height="82" as="geometry" />
          </mxCell>
        </UserObject>
        <UserObject label="&lt;div style=&quot;font-size: 1px&quot;&gt;&lt;font style=&quot;font-size: 11.64px; color: rgb(0, 0, 0); direction: ltr; letter-spacing: 0px; line-height: 120%; opacity: 1;&quot;&gt;&lt;font style=&quot;border-color: var(--border-color); letter-spacing: 0px; font-size: 38.8px; direction: ltr; line-height: 46.56px; opacity: 1;&quot;&gt;研究目标&lt;/font&gt;&lt;font style=&quot;border-color: var(--border-color); letter-spacing: 0px; font-size: 38.8px; direction: ltr; line-height: 46.56px; opacity: 1;&quot;&gt;：构造智能&lt;/font&gt;&lt;font style=&quot;border-color: var(--border-color); letter-spacing: 0px; font-size: 38.8px; direction: ltr; line-height: 46.56px; opacity: 1;&quot;&gt;、泛化、轻量的跨模态语言智能模型&lt;/font&gt;&lt;font style=&quot;border-color: var(--border-color); letter-spacing: 0px; font-size: 38.8px; direction: ltr; line-height: 46.56px; opacity: 1;&quot;&gt;&lt;br style=&quot;border-color: var(--border-color);&quot;&gt;&lt;/font&gt;&lt;/font&gt;&lt;/div&gt;" tags="Background" id="0N5C-bSlOZF7z8Y1nU8M-145">
          <mxCell style="verticalAlign=middle;align=center;overflow=width;vsdxID=8;fillColor=none;gradientColor=none;shape=stencil(nZBLDoAgDERP0z3SIyjew0SURgSD+Lu9kMZoXLhwN9O+tukAlrNpJg1SzDH4QW/URgNYgZTkjA4UkwJUgGXng+6DX1zLfmoymdXo17xh5zmRJ6Q42BWCfc2oJfdAr+Yv+AP9Cb7OJ3H/2JG1HNGz/84klThPVCc=);strokeColor=none;spacingTop=-3;spacingBottom=-3;spacingLeft=-3;spacingRight=-3;points=[];labelBackgroundColor=none;rounded=0;html=1;whiteSpace=wrap;fontStyle=1;fontFamily=黑体;" vertex="1" parent="1">
            <mxGeometry x="133.5" y="1446.5" width="1330" height="49" as="geometry" />
          </mxCell>
        </UserObject>
        <UserObject label="&lt;div style=&quot;font-size: 1px&quot;&gt;&lt;font style=&quot;font-size: 38.8px; color: rgb(0, 0, 0); direction: ltr; letter-spacing: 0px; line-height: 120%; opacity: 1;&quot;&gt;研&lt;br&gt;&lt;/font&gt;&lt;font style=&quot;font-size: 38.8px; color: rgb(0, 0, 0); direction: ltr; letter-spacing: 0px; line-height: 120%; opacity: 1;&quot;&gt;究&lt;br&gt;&lt;/font&gt;&lt;font style=&quot;font-size: 38.8px; color: rgb(0, 0, 0); direction: ltr; letter-spacing: 0px; line-height: 120%; opacity: 1;&quot;&gt;内&lt;br&gt;&lt;/font&gt;&lt;font style=&quot;font-size: 38.8px; color: rgb(0, 0, 0); direction: ltr; letter-spacing: 0px; line-height: 120%; opacity: 1;&quot;&gt;容&lt;br&gt;&lt;/font&gt;&lt;font style=&quot;font-size: 11.64px; color: rgb(0, 0, 0); direction: ltr; letter-spacing: 0px; line-height: 120%; opacity: 1;&quot;&gt;&lt;br&gt;&lt;/font&gt;&lt;font style=&quot;font-size: 11.64px; color: rgb(0, 0, 0); direction: ltr; letter-spacing: 0px; line-height: 120%; opacity: 1;&quot;&gt;&lt;br&gt;&lt;/font&gt;&lt;/div&gt;" tags="Background" id="0N5C-bSlOZF7z8Y1nU8M-146">
          <mxCell style="verticalAlign=middle;align=center;overflow=width;vsdxID=9;fillColor=none;gradientColor=none;shape=stencil(nZBLDoAgDERP0z3SIyjew0SURgSD+Lu9kMZoXLhwN9O+tukAlrNpJg1SzDH4QW/URgNYgZTkjA4UkwJUgGXng+6DX1zLfmoymdXo17xh5zmRJ6Q42BWCfc2oJfdAr+Yv+AP9Cb7OJ3H/2JG1HNGz/84klThPVCc=);strokeColor=none;spacingTop=-3;spacingBottom=-3;spacingLeft=-3;spacingRight=-3;points=[];labelBackgroundColor=none;rounded=0;html=1;whiteSpace=wrap;fontStyle=1;fontFamily=黑体;" vertex="1" parent="1">
            <mxGeometry x="87.5" y="2043" width="109" height="207" as="geometry" />
          </mxCell>
        </UserObject>
        <UserObject label="&lt;div style=&quot;font-size: 1px&quot;&gt;&lt;font style=&quot;font-size: 38.8px; color: rgb(0, 0, 0); direction: ltr; letter-spacing: 0px; line-height: 120%; opacity: 1;&quot;&gt;关&lt;br&gt;&lt;/font&gt;&lt;font style=&quot;font-size: 38.8px; color: rgb(0, 0, 0); direction: ltr; letter-spacing: 0px; line-height: 120%; opacity: 1;&quot;&gt;键&lt;br&gt;&lt;/font&gt;&lt;font style=&quot;font-size: 38.8px; color: rgb(0, 0, 0); direction: ltr; letter-spacing: 0px; line-height: 120%; opacity: 1;&quot;&gt;问&lt;br&gt;&lt;/font&gt;&lt;font style=&quot;font-size: 38.8px; color: rgb(0, 0, 0); direction: ltr; letter-spacing: 0px; line-height: 120%; opacity: 1;&quot;&gt;题&lt;br&gt;&lt;/font&gt;&lt;font style=&quot;font-size: 11.64px; color: rgb(0, 0, 0); direction: ltr; letter-spacing: 0px; line-height: 120%; opacity: 1;&quot;&gt;&lt;br&gt;&lt;/font&gt;&lt;font style=&quot;font-size: 11.64px; color: rgb(0, 0, 0); direction: ltr; letter-spacing: 0px; line-height: 120%; opacity: 1;&quot;&gt;&lt;br&gt;&lt;/font&gt;&lt;/div&gt;" tags="Background" id="0N5C-bSlOZF7z8Y1nU8M-147">
          <mxCell style="verticalAlign=middle;align=center;overflow=width;vsdxID=10;fillColor=none;gradientColor=none;shape=stencil(nZBLDoAgDERP0z3SIyjew0SURgSD+Lu9kMZoXLhwN9O+tukAlrNpJg1SzDH4QW/URgNYgZTkjA4UkwJUgGXng+6DX1zLfmoymdXo17xh5zmRJ6Q42BWCfc2oJfdAr+Yv+AP9Cb7OJ3H/2JG1HNGz/84klThPVCc=);strokeColor=none;spacingTop=-3;spacingBottom=-3;spacingLeft=-3;spacingRight=-3;points=[];labelBackgroundColor=none;rounded=0;html=1;whiteSpace=wrap;fontStyle=1;fontFamily=黑体;" vertex="1" parent="1">
            <mxGeometry x="87.5" y="1611" width="109" height="205" as="geometry" />
          </mxCell>
        </UserObject>
        <UserObject label="&lt;div style=&quot;font-size: 1px&quot;&gt;&lt;font style=&quot;font-size:11.64px;font-family:helvetica;color:#000000;direction:ltr;letter-spacing:0px;line-height:120%;opacity:1&quot;&gt;&lt;br&gt;&lt;/font&gt;&lt;font style=&quot;font-size:11.64px;font-family:Helvetica;color:#000000;direction:ltr;letter-spacing:0px;line-height:120%;opacity:1&quot;&gt;&lt;br&gt;&lt;/font&gt;&lt;/div&gt;" tags="Background" id="0N5C-bSlOZF7z8Y1nU8M-148">
          <mxCell style="verticalAlign=middle;align=center;overflow=width;vsdxID=13;rotation=270;fillColor=#bdd7ee;gradientColor=none;shape=stencil(zZLNDsIgEISfZo82lDWtnGt9jyalQkRoKPXn7YVsjFWTmnrR2wzMR7LLAFaDanoJnA3Bu4M86zYowC1wrq2SXoeoAGvAqnNe7r0bbUu+b1IyqaM7pRcuxLFEcHYllzPyO4oabSdRLDLxlF4hEyIryyVIvo7IRvwauQ/6PTG7qrdwsXSE/ySQf/jw2R1F8ahhp42hFk/vX2sbj6jyWN8A);strokeColor=#0070c0;strokeWidth=4;spacingTop=-3;spacingBottom=-3;spacingLeft=-3;spacingRight=-3;flipH=1;flipV=1;points=[];labelBackgroundColor=none;rounded=0;html=1;whiteSpace=wrap;fontStyle=1" vertex="1" parent="1">
            <mxGeometry x="339.5" y="1866" width="84" height="1" as="geometry" />
          </mxCell>
        </UserObject>
        <UserObject label="" tags="Background" id="0N5C-bSlOZF7z8Y1nU8M-149">
          <mxCell style="vsdxID=1410000;fillColor=none;gradientColor=none;strokeColor=none;spacingTop=-3;spacingBottom=-3;spacingLeft=-3;spacingRight=-3;points=[];labelBackgroundColor=none;rounded=0;html=1;whiteSpace=wrap;fontStyle=1" vertex="1" parent="1">
            <mxGeometry x="38.5" y="2493" width="1569" height="82" as="geometry" />
          </mxCell>
        </UserObject>
        <mxCell id="0N5C-bSlOZF7z8Y1nU8M-150" style="vsdxID=15;fillColor=none;gradientColor=none;shape=stencil(rVRdc4MgEPw1PvYG7kDhOU3+R6Yx1amNGWNa8++LBT84R6ft9A3WPXdvD0hodyuO1zxBcWub+i3/LE9tkdBzglheirwpW7dKaJ/Q7lw3+WtT3y8nv78ee2a/eq8/+j90vg7B2L4IxcMDUojv/cGzq/IyY9sU0uwf6S/3xpuRocCADvwBsZAGgx2OkDWBFaDMgApCHcVK4hEAjYB63evE93uVQaa3vLoCEDJ2SxoELdyOGQTIhZ4xt44lVOxX0sBaD0sxfTX9eJDPQKex/JMAZOqzOQXoV1PdIC/O15+5vH0EiXH3fWMmbl8CsfAJrI27F2CIRS/ByC3tSWjQlm7MbPLOjkAmLoBY9uyUKufYrEcUn1FtIMVNn7FJI0EtA4otjvdgMDibCrtaPxsiY7vF9Bady6ryT9n8O3+7HOTfPdp/AQ==);strokeColor=#c00000;strokeWidth=4;spacingTop=-3;spacingBottom=-3;spacingLeft=-3;spacingRight=-3;points=[];labelBackgroundColor=none;rounded=0;html=1;whiteSpace=wrap;fontStyle=1" vertex="1" parent="0N5C-bSlOZF7z8Y1nU8M-149">
          <mxGeometry x="54" width="1407" height="82" as="geometry" />
        </mxCell>
        <mxCell id="0N5C-bSlOZF7z8Y1nU8M-151" value="&lt;div style=&quot;font-size: 1px&quot;&gt;&lt;font face=&quot;黑体&quot; style=&quot;font-size: 38.8px; color: rgb(0, 0, 0); direction: ltr; letter-spacing: 0px; line-height: 120%; opacity: 1;&quot;&gt;&lt;span style=&quot;&quot;&gt;基础技术：对比学习、具身学习、模仿学习、蒸馏学习、模型量化等&lt;br&gt;&lt;/span&gt;&lt;/font&gt;&lt;font style=&quot;font-size:11.64px;font-family:helvetica;color:#000000;direction:ltr;letter-spacing:0px;line-height:120%;opacity:1&quot;&gt;&lt;br&gt;&lt;/font&gt;&lt;font style=&quot;font-size:11.64px;font-family:Helvetica;color:#000000;direction:ltr;letter-spacing:0px;line-height:120%;opacity:1&quot;&gt;&lt;br&gt;&lt;/font&gt;&lt;/div&gt;" style="verticalAlign=middle;align=center;overflow=width;vsdxID=16;fillColor=none;gradientColor=none;shape=stencil(nZBLDoAgDERP0z3SIyjew0SURgSD+Lu9kMZoXLhwN9O+tukAlrNpJg1SzDH4QW/URgNYgZTkjA4UkwJUgGXng+6DX1zLfmoymdXo17xh5zmRJ6Q42BWCfc2oJfdAr+Yv+AP9Cb7OJ3H/2JG1HNGz/84klThPVCc=);strokeColor=none;spacingTop=-3;spacingBottom=-3;spacingLeft=-3;spacingRight=-3;points=[];labelBackgroundColor=none;rounded=0;html=1;whiteSpace=wrap;fontStyle=1" vertex="1" parent="0N5C-bSlOZF7z8Y1nU8M-149">
          <mxGeometry x="-22" y="17" width="1591" height="70" as="geometry" />
        </mxCell>
        <UserObject label="&lt;div style=&quot;font-size: 1px&quot;&gt;&lt;font style=&quot;font-size:11.64px;font-family:helvetica;color:#000000;direction:ltr;letter-spacing:0px;line-height:120%;opacity:1&quot;&gt;&lt;br&gt;&lt;/font&gt;&lt;font style=&quot;font-size:11.64px;font-family:Helvetica;color:#000000;direction:ltr;letter-spacing:0px;line-height:120%;opacity:1&quot;&gt;&lt;br&gt;&lt;/font&gt;&lt;/div&gt;" tags="Background" id="0N5C-bSlOZF7z8Y1nU8M-152">
          <mxCell style="verticalAlign=middle;align=center;overflow=width;vsdxID=17;rotation=270;fillColor=#bdd7ee;gradientColor=none;shape=stencil(zZLNDsIgEISfZo82lDWtnGt9jyalQkRoKPXn7YVsjFWTmnrR2wzMR7LLAFaDanoJnA3Bu4M86zYowC1wrq2SXoeoAGvAqnNe7r0bbUu+b1IyqaM7pRcuxLFEcHYllzPyO4oabSdRLDLxlF4hEyIryyVIvo7IRvwauQ/6PTG7qrdwsXSE/ySQf/jw2R1F8ahhp42hFk/vX2sbj6jyWN8A);strokeColor=#0070c0;strokeWidth=4;spacingTop=-3;spacingBottom=-3;spacingLeft=-3;spacingRight=-3;flipH=1;flipV=1;points=[];labelBackgroundColor=none;rounded=0;html=1;whiteSpace=wrap;fontStyle=1" vertex="1" parent="1">
            <mxGeometry x="339.5" y="1555" width="84" height="1" as="geometry" />
          </mxCell>
        </UserObject>
        <UserObject label="&lt;div style=&quot;font-size: 1px&quot;&gt;&lt;font style=&quot;font-size:38.8px;font-family:宋体;color:#000000;direction:ltr;letter-spacing:0px;line-height:120%;opacity:1&quot;&gt;多模态特征的理解不透彻的问题&lt;/font&gt;&lt;font style=&quot;font-size:11.64px;font-family:helvetica;color:#000000;direction:ltr;letter-spacing:0px;line-height:120%;opacity:1&quot;&gt;&lt;br&gt;&lt;/font&gt;&lt;font style=&quot;font-size:11.64px;font-family:Helvetica;color:#000000;direction:ltr;letter-spacing:0px;line-height:120%;opacity:1&quot;&gt;&lt;br&gt;&lt;/font&gt;&lt;/div&gt;" tags="Background" id="0N5C-bSlOZF7z8Y1nU8M-153">
          <mxCell style="verticalAlign=middle;align=center;overflow=width;vsdxID=18;fillColor=none;gradientColor=none;shape=stencil(nZBLDoAgDERP0z3SIyjew0SURgSD+Lu9kMZoXLhwN9O+tukAlrNpJg1SzDH4QW/URgNYgZTkjA4UkwJUgGXng+6DX1zLfmoymdXo17xh5zmRJ6Q42BWCfc2oJfdAr+Yv+AP9Cb7OJ3H/2JG1HNGz/84klThPVCc=);strokeColor=none;spacingTop=-3;spacingBottom=-3;spacingLeft=-3;spacingRight=-3;points=[];labelBackgroundColor=none;rounded=0;html=1;whiteSpace=wrap;fontStyle=1" vertex="1" parent="1">
            <mxGeometry x="652.25" y="1650.5" width="358.5" height="112" as="geometry" />
          </mxCell>
        </UserObject>
        <UserObject label="&lt;div style=&quot;font-size: 1px&quot;&gt;&lt;font style=&quot;font-size:38.8px;font-family:宋体;color:#000000;direction:ltr;letter-spacing:0px;line-height:120%;opacity:1&quot;&gt;计算资源和存储空间的要求难以满足的问题&lt;/font&gt;&lt;font style=&quot;font-size:11.64px;font-family:helvetica;color:#000000;direction:ltr;letter-spacing:0px;line-height:120%;opacity:1&quot;&gt;&lt;br&gt;&lt;/font&gt;&lt;font style=&quot;font-size:11.64px;font-family:Helvetica;color:#000000;direction:ltr;letter-spacing:0px;line-height:120%;opacity:1&quot;&gt;&lt;br&gt;&lt;/font&gt;&lt;/div&gt;" tags="Background" id="0N5C-bSlOZF7z8Y1nU8M-154">
          <mxCell style="verticalAlign=middle;align=center;overflow=width;vsdxID=19;fillColor=none;gradientColor=none;shape=stencil(nZBLDoAgDERP0z3SIyjew0SURgSD+Lu9kMZoXLhwN9O+tukAlrNpJg1SzDH4QW/URgNYgZTkjA4UkwJUgGXng+6DX1zLfmoymdXo17xh5zmRJ6Q42BWCfc2oJfdAr+Yv+AP9Cb7OJ3H/2JG1HNGz/84klThPVCc=);strokeColor=none;spacingTop=-3;spacingBottom=-3;spacingLeft=-3;spacingRight=-3;points=[];labelBackgroundColor=none;rounded=0;html=1;whiteSpace=wrap;fontStyle=1" vertex="1" parent="1">
            <mxGeometry x="1121" y="1629" width="323" height="142" as="geometry" />
          </mxCell>
        </UserObject>
        <UserObject label="" tags="Background" id="0N5C-bSlOZF7z8Y1nU8M-155">
          <mxCell style="vsdxID=20;fillColor=#deebf6;gradientColor=none;shape=stencil(rVTbUoMwEP0aHt3Jbu7Ptf5Hx1JhxNKhVMvfGwwIGwZGHd+Sw1nO2Us2k7trcbjkGYlr29Sv+Ud5bItMPmZE5bnIm7INp0zuM7k71U3+0tS38zHeL4ee2Z/e6vf+D/cYZ0BgH0SiiwAK8XV/iuyqPM/YHsHpf6Q/35poBocAA3IMGCEP3kfoTguoGyEJxg4syaVENwBOgzPrZif+cFeAastsCAA03C0KkLhw+50TjUXXmpv1FqzndiW4TflQq/4rUwekRFyBMFz8QQC5RH3WpwH6VVc3yIv5+jM3zV+B4tmHxITl6dPkdECQZ45giSdO4O2WrADtuK4Cr7hs70RxXQtGculkOsPkKFqvDZ9N50cXqy7RJu9IA2FaHWu5yzCrySua9SR5Vz9rYcIOh2kTncqqiots/j3dXAGKW0/uPwE=);strokeColor=#2e75b5;strokeWidth=4;spacingTop=-3;spacingBottom=-3;spacingLeft=-3;spacingRight=-3;points=[];labelBackgroundColor=none;rounded=0;html=1;whiteSpace=wrap;fontStyle=1" vertex="1" parent="1">
            <mxGeometry x="220.5" y="2215" width="324" height="149" as="geometry" />
          </mxCell>
        </UserObject>
        <UserObject label="&lt;div style=&quot;font-size: 1px&quot;&gt;&lt;font style=&quot;font-size:38.8px;font-family:simsun;color:#000000;direction:ltr;letter-spacing:0px;line-height:120%;opacity:1&quot;&gt;深层复杂语义信息学习表征&lt;/font&gt;&lt;font style=&quot;font-size:11.64px;font-family:helvetica;color:#000000;direction:ltr;letter-spacing:0px;line-height:120%;opacity:1&quot;&gt;&lt;br&gt;&lt;/font&gt;&lt;font style=&quot;font-size:11.64px;font-family:Helvetica;color:#000000;direction:ltr;letter-spacing:0px;line-height:120%;opacity:1&quot;&gt;&lt;br&gt;&lt;/font&gt;&lt;/div&gt;" tags="Background" id="0N5C-bSlOZF7z8Y1nU8M-156">
          <mxCell style="verticalAlign=middle;align=center;overflow=width;vsdxID=21;fillColor=none;gradientColor=none;shape=stencil(nZBLDoAgDERP0z3SIyjew0SURgSD+Lu9kMZoXLhwN9O+tukAlrNpJg1SzDH4QW/URgNYgZTkjA4UkwJUgGXng+6DX1zLfmoymdXo17xh5zmRJ6Q42BWCfc2oJfdAr+Yv+AP9Cb7OJ3H/2JG1HNGz/84klThPVCc=);strokeColor=none;spacingTop=-3;spacingBottom=-3;spacingLeft=-3;spacingRight=-3;points=[];labelBackgroundColor=none;rounded=0;html=1;whiteSpace=wrap;fontStyle=1" vertex="1" parent="1">
            <mxGeometry x="258" y="2061.5" width="243" height="100" as="geometry" />
          </mxCell>
        </UserObject>
        <UserObject label="&lt;div style=&quot;&quot;&gt;&lt;font face=&quot;宋体&quot; style=&quot;color: rgb(0, 0, 0); direction: ltr; letter-spacing: 0px; line-height: 120%; opacity: 1; font-size: 38.8px;&quot;&gt;多粒度跨模态信息对齐&lt;/font&gt;&lt;/div&gt;" tags="Background" id="0N5C-bSlOZF7z8Y1nU8M-157">
          <mxCell style="verticalAlign=middle;align=center;overflow=width;vsdxID=22;fillColor=none;gradientColor=none;shape=stencil(nZBLDoAgDERP0z3SIyjew0SURgSD+Lu9kMZoXLhwN9O+tukAlrNpJg1SzDH4QW/URgNYgZTkjA4UkwJUgGXng+6DX1zLfmoymdXo17xh5zmRJ6Q42BWCfc2oJfdAr+Yv+AP9Cb7OJ3H/2JG1HNGz/84klThPVCc=);strokeColor=none;spacingTop=-3;spacingBottom=-3;spacingLeft=-3;spacingRight=-3;points=[];labelBackgroundColor=none;rounded=0;html=1;whiteSpace=wrap;fontStyle=1" vertex="1" parent="1">
            <mxGeometry x="261.38" y="2238.5" width="236.25" height="102" as="geometry" />
          </mxCell>
        </UserObject>
        <UserObject label="&lt;div style=&quot;font-size: 1px&quot;&gt;&lt;font style=&quot;font-size:38.8px;font-family:宋体;color:#000000;direction:ltr;letter-spacing:0px;line-height:120%;opacity:1&quot;&gt;新型统一的多模态理解模型设计&lt;/font&gt;&lt;font style=&quot;font-size:11.64px;font-family:helvetica;color:#000000;direction:ltr;letter-spacing:0px;line-height:120%;opacity:1&quot;&gt;&lt;br&gt;&lt;/font&gt;&lt;font style=&quot;font-size:11.64px;font-family:Helvetica;color:#000000;direction:ltr;letter-spacing:0px;line-height:120%;opacity:1&quot;&gt;&lt;br&gt;&lt;/font&gt;&lt;/div&gt;" tags="Background" id="0N5C-bSlOZF7z8Y1nU8M-158">
          <mxCell style="verticalAlign=middle;align=center;overflow=width;vsdxID=23;fillColor=none;gradientColor=none;shape=stencil(nZBLDoAgDERP0z3SIyjew0SURgSD+Lu9kMZoXLhwN9O+tukAlrNpJg1SzDH4QW/URgNYgZTkjA4UkwJUgGXng+6DX1zLfmoymdXo17xh5zmRJ6Q42BWCfc2oJfdAr+Yv+AP9Cb7OJ3H/2JG1HNGz/84klThPVCc=);strokeColor=none;spacingTop=-3;spacingBottom=-3;spacingLeft=-3;spacingRight=-3;points=[];labelBackgroundColor=none;rounded=0;html=1;whiteSpace=wrap;fontStyle=1" vertex="1" parent="1">
            <mxGeometry x="688" y="2061.5" width="294.5" height="100" as="geometry" />
          </mxCell>
        </UserObject>
        <UserObject label="&lt;div style=&quot;font-size: 1px&quot;&gt;&lt;font style=&quot;font-size:38.8px;font-family:宋体;color:#000000;direction:ltr;letter-spacing:0px;line-height:120%;opacity:1&quot;&gt;高效多模态模型学习算法的设计&lt;/font&gt;&lt;font style=&quot;font-size:11.64px;font-family:helvetica;color:#000000;direction:ltr;letter-spacing:0px;line-height:120%;opacity:1&quot;&gt;&lt;br&gt;&lt;/font&gt;&lt;font style=&quot;font-size:11.64px;font-family:Helvetica;color:#000000;direction:ltr;letter-spacing:0px;line-height:120%;opacity:1&quot;&gt;&lt;br&gt;&lt;/font&gt;&lt;/div&gt;" tags="Background" id="0N5C-bSlOZF7z8Y1nU8M-159">
          <mxCell style="verticalAlign=middle;align=center;overflow=width;vsdxID=24;fillColor=none;gradientColor=none;shape=stencil(nZBLDoAgDERP0z3SIyjew0SURgSD+Lu9kMZoXLhwN9O+tukAlrNpJg1SzDH4QW/URgNYgZTkjA4UkwJUgGXng+6DX1zLfmoymdXo17xh5zmRJ6Q42BWCfc2oJfdAr+Yv+AP9Cb7OJ3H/2JG1HNGz/84klThPVCc=);strokeColor=none;spacingTop=-3;spacingBottom=-3;spacingLeft=-3;spacingRight=-3;points=[];labelBackgroundColor=none;rounded=0;html=1;whiteSpace=wrap;fontStyle=1" vertex="1" parent="1">
            <mxGeometry x="700.5" y="2243.5" width="266" height="92" as="geometry" />
          </mxCell>
        </UserObject>
        <UserObject label="&lt;div style=&quot;font-size: 1px&quot;&gt;&lt;font style=&quot;font-size:11.64px;font-family:Helvetica;color:#000000;direction:ltr;letter-spacing:0px;line-height:120%;opacity:1&quot;&gt;&lt;font style=&quot;border-color: var(--border-color); letter-spacing: 0px; font-size: 38.8px; font-family: 宋体; direction: ltr; line-height: 46.56px; opacity: 1;&quot;&gt;模态自适应的交互蒸馏&lt;/font&gt;&lt;font style=&quot;border-color: var(--border-color); letter-spacing: 0px; font-size: 11.64px; font-family: helvetica; direction: ltr; line-height: 13.968px; opacity: 1;&quot;&gt;&lt;br style=&quot;border-color: var(--border-color);&quot;&gt;&lt;/font&gt;&lt;/font&gt;&lt;/div&gt;" tags="Background" id="0N5C-bSlOZF7z8Y1nU8M-160">
          <mxCell style="verticalAlign=middle;align=center;overflow=width;vsdxID=25;fillColor=none;gradientColor=none;shape=stencil(nZBLDoAgDERP0z3SIyjew0SURgSD+Lu9kMZoXLhwN9O+tukAlrNpJg1SzDH4QW/URgNYgZTkjA4UkwJUgGXng+6DX1zLfmoymdXo17xh5zmRJ6Q42BWCfc2oJfdAr+Yv+AP9Cb7OJ3H/2JG1HNGz/84klThPVCc=);strokeColor=none;spacingTop=-3;spacingBottom=-3;spacingLeft=-3;spacingRight=-3;points=[];labelBackgroundColor=none;rounded=0;html=1;whiteSpace=wrap;fontStyle=1" vertex="1" parent="1">
            <mxGeometry x="1176.5" y="2061.5" width="216" height="90" as="geometry" />
          </mxCell>
        </UserObject>
        <UserObject label="&lt;div style=&quot;font-size: 1px&quot;&gt;&lt;font style=&quot;font-size:11.64px;font-family:Helvetica;color:#000000;direction:ltr;letter-spacing:0px;line-height:120%;opacity:1&quot;&gt;&lt;font style=&quot;border-color: var(--border-color); letter-spacing: 0px; font-size: 38.8px; font-family: 宋体; direction: ltr; line-height: 46.56px; opacity: 1;&quot;&gt;高斯分布式模型量化与低秩适配器性能补偿&lt;/font&gt;&lt;font style=&quot;border-color: var(--border-color); letter-spacing: 0px; font-size: 11.64px; font-family: helvetica; direction: ltr; line-height: 13.968px; opacity: 1;&quot;&gt;&lt;br style=&quot;border-color: var(--border-color);&quot;&gt;&lt;/font&gt;&lt;/font&gt;&lt;/div&gt;" tags="Background" id="0N5C-bSlOZF7z8Y1nU8M-161">
          <mxCell style="verticalAlign=middle;align=center;overflow=width;vsdxID=26;fillColor=none;gradientColor=none;shape=stencil(nZBLDoAgDERP0z3SIyjew0SURgSD+Lu9kMZoXLhwN9O+tukAlrNpJg1SzDH4QW/URgNYgZTkjA4UkwJUgGXng+6DX1zLfmoymdXo17xh5zmRJ6Q42BWCfc2oJfdAr+Yv+AP9Cb7OJ3H/2JG1HNGz/84klThPVCc=);strokeColor=none;spacingTop=-3;spacingBottom=-3;spacingLeft=-3;spacingRight=-3;points=[];labelBackgroundColor=none;rounded=0;html=1;whiteSpace=wrap;fontStyle=1" vertex="1" parent="1">
            <mxGeometry x="1145.5" y="2216.63" width="278" height="145.75" as="geometry" />
          </mxCell>
        </UserObject>
        <UserObject label="&lt;div style=&quot;font-size: 1px&quot;&gt;&lt;font style=&quot;font-size:11.64px;font-family:helvetica;color:#000000;direction:ltr;letter-spacing:0px;line-height:120%;opacity:1&quot;&gt;&lt;br&gt;&lt;/font&gt;&lt;font style=&quot;font-size:11.64px;font-family:Helvetica;color:#000000;direction:ltr;letter-spacing:0px;line-height:120%;opacity:1&quot;&gt;&lt;br&gt;&lt;/font&gt;&lt;/div&gt;" tags="Background" id="0N5C-bSlOZF7z8Y1nU8M-162">
          <mxCell style="verticalAlign=middle;align=center;overflow=width;vsdxID=31;rotation=270;fillColor=#ffe6cc;gradientColor=none;shape=stencil(zZLNDsIgEISfZo82lDWtnGt9jyalQkRoKPXn7YVsjFWTmnrR2wzMR7LLAFaDanoJnA3Bu4M86zYowC1wrq2SXoeoAGvAqnNe7r0bbUu+b1IyqaM7pRcuxLFEcHYllzPyO4oabSdRLDLxlF4hEyIryyVIvo7IRvwauQ/6PTG7qrdwsXSE/ySQf/jw2R1F8ahhp42hFk/vX2sbj6jyWN8A);strokeColor=#ED7D31;strokeWidth=4;spacingTop=-3;spacingBottom=-3;spacingLeft=-3;spacingRight=-3;flipH=1;flipV=1;points=[];labelBackgroundColor=none;rounded=0;html=1;whiteSpace=wrap;fontStyle=1" vertex="1" parent="1">
            <mxGeometry x="791.5" y="1555" width="84" height="1" as="geometry" />
          </mxCell>
        </UserObject>
        <UserObject label="&lt;div style=&quot;font-size: 1px&quot;&gt;&lt;font style=&quot;font-size:11.64px;font-family:helvetica;color:#000000;direction:ltr;letter-spacing:0px;line-height:120%;opacity:1&quot;&gt;&lt;br&gt;&lt;/font&gt;&lt;font style=&quot;font-size:11.64px;font-family:Helvetica;color:#000000;direction:ltr;letter-spacing:0px;line-height:120%;opacity:1&quot;&gt;&lt;br&gt;&lt;/font&gt;&lt;/div&gt;" tags="Background" id="0N5C-bSlOZF7z8Y1nU8M-163">
          <mxCell style="verticalAlign=middle;align=center;overflow=width;vsdxID=33;rotation=270;fillColor=#ffe6cc;gradientColor=none;shape=stencil(zZLNDsIgEISfZo82lDWtnGt9jyalQkRoKPXn7YVsjFWTmnrR2wzMR7LLAFaDanoJnA3Bu4M86zYowC1wrq2SXoeoAGvAqnNe7r0bbUu+b1IyqaM7pRcuxLFEcHYllzPyO4oabSdRLDLxlF4hEyIryyVIvo7IRvwauQ/6PTG7qrdwsXSE/ySQf/jw2R1F8ahhp42hFk/vX2sbj6jyWN8A);strokeColor=#ED7D31;strokeWidth=4;spacingTop=-3;spacingBottom=-3;spacingLeft=-3;spacingRight=-3;flipH=1;flipV=1;points=[];labelBackgroundColor=none;rounded=0;html=1;whiteSpace=wrap;fontStyle=1" vertex="1" parent="1">
            <mxGeometry x="792.5" y="1866" width="84" height="1" as="geometry" />
          </mxCell>
        </UserObject>
        <UserObject label="&lt;div style=&quot;font-size: 1px&quot;&gt;&lt;font style=&quot;font-size:11.64px;font-family:helvetica;color:#000000;direction:ltr;letter-spacing:0px;line-height:120%;opacity:1&quot;&gt;&lt;br&gt;&lt;/font&gt;&lt;font style=&quot;font-size:11.64px;font-family:Helvetica;color:#000000;direction:ltr;letter-spacing:0px;line-height:120%;opacity:1&quot;&gt;&lt;br&gt;&lt;/font&gt;&lt;/div&gt;" tags="Background" id="0N5C-bSlOZF7z8Y1nU8M-164">
          <mxCell style="verticalAlign=middle;align=center;overflow=width;vsdxID=37;rotation=270;fillColor=#d5e8d4;gradientColor=none;shape=stencil(zZLNDsIgEISfZo82lDWtnGt9jyalQkRoKPXn7YVsjFWTmnrR2wzMR7LLAFaDanoJnA3Bu4M86zYowC1wrq2SXoeoAGvAqnNe7r0bbUu+b1IyqaM7pRcuxLFEcHYllzPyO4oabSdRLDLxlF4hEyIryyVIvo7IRvwauQ/6PTG7qrdwsXSE/ySQf/jw2R1F8ahhp42hFk/vX2sbj6jyWN8A);strokeColor=#82b366;strokeWidth=4;spacingTop=-3;spacingBottom=-3;spacingLeft=-3;spacingRight=-3;flipH=1;flipV=1;points=[];labelBackgroundColor=none;rounded=0;html=1;whiteSpace=wrap;fontStyle=1" vertex="1" parent="1">
            <mxGeometry x="1241.5" y="1866" width="84" height="1" as="geometry" />
          </mxCell>
        </UserObject>
        <UserObject label="&lt;div style=&quot;font-size: 1px&quot;&gt;&lt;font style=&quot;font-size:11.64px;font-family:helvetica;color:#000000;direction:ltr;letter-spacing:0px;line-height:120%;opacity:1&quot;&gt;&lt;br&gt;&lt;/font&gt;&lt;font style=&quot;font-size:11.64px;font-family:Helvetica;color:#000000;direction:ltr;letter-spacing:0px;line-height:120%;opacity:1&quot;&gt;&lt;br&gt;&lt;/font&gt;&lt;/div&gt;" tags="Background" id="0N5C-bSlOZF7z8Y1nU8M-165">
          <mxCell style="verticalAlign=middle;align=center;overflow=width;vsdxID=38;rotation=270;fillColor=#d5e8d4;gradientColor=none;shape=stencil(zZLNDsIgEISfZo82lDWtnGt9jyalQkRoKPXn7YVsjFWTmnrR2wzMR7LLAFaDanoJnA3Bu4M86zYowC1wrq2SXoeoAGvAqnNe7r0bbUu+b1IyqaM7pRcuxLFEcHYllzPyO4oabSdRLDLxlF4hEyIryyVIvo7IRvwauQ/6PTG7qrdwsXSE/ySQf/jw2R1F8ahhp42hFk/vX2sbj6jyWN8A);strokeColor=#82b366;strokeWidth=4;spacingTop=-3;spacingBottom=-3;spacingLeft=-3;spacingRight=-3;flipH=1;flipV=1;points=[];labelBackgroundColor=none;rounded=0;html=1;whiteSpace=wrap;fontStyle=1" vertex="1" parent="1">
            <mxGeometry x="1241.5" y="1555" width="84" height="1" as="geometry" />
          </mxCell>
        </UserObject>
        <UserObject label="&lt;div style=&quot;font-size: 1px&quot;&gt;&lt;font style=&quot;font-size:11.64px;font-family:helvetica;color:#000000;direction:ltr;letter-spacing:0px;line-height:120%;opacity:1&quot;&gt;&lt;br&gt;&lt;/font&gt;&lt;font style=&quot;font-size:11.64px;font-family:Helvetica;color:#000000;direction:ltr;letter-spacing:0px;line-height:120%;opacity:1&quot;&gt;&lt;br&gt;&lt;/font&gt;&lt;/div&gt;" tags="Background" id="0N5C-bSlOZF7z8Y1nU8M-166">
          <mxCell style="verticalAlign=middle;align=center;overflow=width;vsdxID=40;rotation=270;fillColor=#bdd7ee;gradientColor=none;shape=stencil(zZLNDsIgEISfZo82lDWtnGt9jyalQkRoKPXn7YVsjFWTmnrR2wzMR7LLAFaDanoJnA3Bu4M86zYowC1wrq2SXoeoAGvAqnNe7r0bbUu+b1IyqaM7pRcuxLFEcHYllzPyO4oabSdRLDLxlF4hEyIryyVIvo7IRvwauQ/6PTG7qrdwsXSE/ySQf/jw2R1F8ahhp42hFk/vX2sbj6jyWN8A);strokeColor=#0070c0;strokeWidth=4;spacingTop=-3;spacingBottom=-3;spacingLeft=-3;spacingRight=-3;flipH=1;flipV=1;points=[];labelBackgroundColor=none;rounded=0;html=1;whiteSpace=wrap;fontStyle=1" vertex="1" parent="1">
            <mxGeometry x="339.5" y="2448" width="84" height="1" as="geometry" />
          </mxCell>
        </UserObject>
        <UserObject label="&lt;div style=&quot;font-size: 1px&quot;&gt;&lt;font style=&quot;font-size:11.64px;font-family:helvetica;color:#000000;direction:ltr;letter-spacing:0px;line-height:120%;opacity:1&quot;&gt;&lt;br&gt;&lt;/font&gt;&lt;font style=&quot;font-size:11.64px;font-family:Helvetica;color:#000000;direction:ltr;letter-spacing:0px;line-height:120%;opacity:1&quot;&gt;&lt;br&gt;&lt;/font&gt;&lt;/div&gt;" tags="Background" id="0N5C-bSlOZF7z8Y1nU8M-167">
          <mxCell style="verticalAlign=middle;align=center;overflow=width;vsdxID=41;rotation=270;fillColor=#ffe6cc;gradientColor=none;shape=stencil(zZLNDsIgEISfZo82lDWtnGt9jyalQkRoKPXn7YVsjFWTmnrR2wzMR7LLAFaDanoJnA3Bu4M86zYowC1wrq2SXoeoAGvAqnNe7r0bbUu+b1IyqaM7pRcuxLFEcHYllzPyO4oabSdRLDLxlF4hEyIryyVIvo7IRvwauQ/6PTG7qrdwsXSE/ySQf/jw2R1F8ahhp42hFk/vX2sbj6jyWN8A);strokeColor=#ED7D31;strokeWidth=4;spacingTop=-3;spacingBottom=-3;spacingLeft=-3;spacingRight=-3;flipH=1;flipV=1;points=[];labelBackgroundColor=none;rounded=0;html=1;whiteSpace=wrap;fontStyle=1" vertex="1" parent="1">
            <mxGeometry x="791.5" y="2448" width="84" height="1" as="geometry" />
          </mxCell>
        </UserObject>
        <UserObject label="&lt;div style=&quot;font-size: 1px&quot;&gt;&lt;font style=&quot;font-size:11.64px;font-family:helvetica;color:#000000;direction:ltr;letter-spacing:0px;line-height:120%;opacity:1&quot;&gt;&lt;br&gt;&lt;/font&gt;&lt;font style=&quot;font-size:11.64px;font-family:Helvetica;color:#000000;direction:ltr;letter-spacing:0px;line-height:120%;opacity:1&quot;&gt;&lt;br&gt;&lt;/font&gt;&lt;/div&gt;" tags="Background" id="0N5C-bSlOZF7z8Y1nU8M-168">
          <mxCell style="verticalAlign=middle;align=center;overflow=width;vsdxID=42;rotation=270;fillColor=#d5e8d4;gradientColor=none;shape=stencil(zZLNDsIgEISfZo82lDWtnGt9jyalQkRoKPXn7YVsjFWTmnrR2wzMR7LLAFaDanoJnA3Bu4M86zYowC1wrq2SXoeoAGvAqnNe7r0bbUu+b1IyqaM7pRcuxLFEcHYllzPyO4oabSdRLDLxlF4hEyIryyVIvo7IRvwauQ/6PTG7qrdwsXSE/ySQf/jw2R1F8ahhp42hFk/vX2sbj6jyWN8A);strokeColor=#82b366;strokeWidth=4;spacingTop=-3;spacingBottom=-3;spacingLeft=-3;spacingRight=-3;flipH=1;flipV=1;points=[];labelBackgroundColor=none;rounded=0;html=1;whiteSpace=wrap;fontStyle=1" vertex="1" parent="1">
            <mxGeometry x="1241.5" y="2448" width="84" height="1" as="geometry" />
          </mxCell>
        </UserObject>
        <UserObject label="" tags="Background" id="0N5C-bSlOZF7z8Y1nU8M-212">
          <mxCell style="vsdxID=36;fillColor=none;gradientColor=none;shape=stencil(rVTLcoMwDPwaH6PxE9vnNP2PTEIKUwoZQhry9zVj85CY0h5ys8WKXa0sMbW/FcdrziS/dW3zmT/Kc1cw9cakLOsib8sunJg6MLW/NG3+0Tb3+hzv1+OAHE5fzffwhz7mCT6kSP4cr/H+HrFVWS+w/mXY072NIkRCG9A+JYwhD87FUC+nkBcJNYbUlNgrTMWfKeAMGPe70hmf7hq03BIbEkBgsYKDMSux3GGxGTgs1VsQDovVwO0fTklHyEEpwi0hI9y7oFkTduLT/7u5gRQvQdKq7VTiWPRu6sFYtAarcc3BGPI2JDhD/RabzebgM8wcuqgxc9CSmjZThwdhMTdxe/XMsDvYnNUTXsvkxKAwGUZRh6YhW0xURseH6Nya8u3tEQ7z2rmUVRW31vI7XVMhFFecOvwA);strokeColor=#82b366;strokeWidth=4;spacingTop=-3;spacingBottom=-3;spacingLeft=-3;spacingRight=-3;points=[];labelBackgroundColor=none;rounded=0;html=1;whiteSpace=wrap;fontStyle=1" vertex="1" parent="1">
            <mxGeometry x="2873" y="200" width="380" height="200" as="geometry" />
          </mxCell>
        </UserObject>
        <UserObject label="" tags="Background" id="0N5C-bSlOZF7z8Y1nU8M-213">
          <mxCell style="vsdxID=30;fillColor=none;gradientColor=none;shape=stencil(rVTLcoMwDPwaH6PxE9vnNP2PTEIKUwoZQhry9zVj85CY0h5ys8WKXa0sMbW/FcdrziS/dW3zmT/Kc1cw9cakLOsib8sunJg6MLW/NG3+0Tb3+hzv1+OAHE5fzffwhz7mCT6kSP4cr/H+HrFVWS+w/mXY072NIkRCG9A+JYwhD87FUC+nkBcJNYbUlNgrTMWfKeAMGPe70hmf7hq03BIbEkBgsYKDMSux3GGxGTgs1VsQDovVwO0fTklHyEEpwi0hI9y7oFkTduLT/7u5gRQvQdKq7VTiWPRu6sFYtAarcc3BGPI2JDhD/RabzebgM8wcuqgxc9CSmjZThwdhMTdxe/XMsDvYnNUTXsvkxKAwGUZRh6YhW0xURseH6Nya8u3tEQ7z2rmUVRW31vI7XVMhFFecOvwA);strokeColor=#ED7D31;strokeWidth=4;spacingTop=-3;spacingBottom=-3;spacingLeft=-3;spacingRight=-3;points=[];labelBackgroundColor=none;rounded=0;html=1;whiteSpace=wrap;fontStyle=1" vertex="1" parent="1">
            <mxGeometry x="2423" y="200" width="380" height="200" as="geometry" />
          </mxCell>
        </UserObject>
        <UserObject label="" tags="Background" id="0N5C-bSlOZF7z8Y1nU8M-214">
          <mxCell style="vsdxID=34;fillColor=none;gradientColor=none;shape=stencil(rVRBcoMwDHyNj9XYsrHxOU3/kWlIYUoh45A2+X3tMRQkprSH3CyxZlcrS0LvLvXhXAmUlyH079VXcxxqoZ8FYtPVVWiGeBJ6L/Tu1IfqLfTX7pjj8yEh0+mj/0x/uOV7SqYrKO9TmOOXjG2bboH1D8O+XkMWoUZ0AcaPF6aUB1/k1A3nlBpRU8oBmhGlKZW8jwmvofS/K53xObag1JbWiAdFtRowbiVVllQqQllSpVG8KqlWBQ7/MAqZURIKy8gRLCN/kiAtY2c2/b+ZG0j1ECSv2oHWtOhUj6FVG3CGFh2d8bTm2INiZbjZopbgLaVG8JQ4aXGUOT4I1mtmNn9k1Btqzer9rjVKZk8aC8vt+ZmwxTgxlYrJ3Bzx7dURD/POOTVtm1fW8jvfUTGV95vefwM=);strokeColor=#82b366;strokeWidth=4;spacingTop=-3;spacingBottom=-3;spacingLeft=-3;spacingRight=-3;points=[];labelBackgroundColor=none;rounded=0;html=1;whiteSpace=wrap;fontStyle=1" vertex="1" parent="1">
            <mxGeometry x="2873" y="509" width="380" height="472" as="geometry" />
          </mxCell>
        </UserObject>
        <UserObject label="" tags="Background" id="0N5C-bSlOZF7z8Y1nU8M-215">
          <mxCell style="vsdxID=28;fillColor=none;gradientColor=none;shape=stencil(rVRBcoMwDHyNj9XYsrHxOU3/kWlIYUoh45A2+X3tMRQkprSH3CyxZlcrS0LvLvXhXAmUlyH079VXcxxqoZ8FYtPVVWiGeBJ6L/Tu1IfqLfTX7pjj8yEh0+mj/0x/uOV7SqYrKO9TmOOXjG2bboH1D8O+XkMWoUZ0AcaPF6aUB1/k1A3nlBpRU8oBmhGlKZW8jwmvofS/K53xObag1JbWiAdFtRowbiVVllQqQllSpVG8KqlWBQ7/MAqZURIKy8gRLCN/kiAtY2c2/b+ZG0j1ECSv2oHWtOhUj6FVG3CGFh2d8bTm2INiZbjZopbgLaVG8JQ4aXGUOT4I1mtmNn9k1Btqzer9rjVKZk8aC8vt+ZmwxTgxlYrJ3Bzx7dURD/POOTVtm1fW8jvfUTGV95vefwM=);strokeColor=#ED7D31;strokeWidth=4;spacingTop=-3;spacingBottom=-3;spacingLeft=-3;spacingRight=-3;points=[];labelBackgroundColor=none;rounded=0;html=1;whiteSpace=wrap;fontStyle=1" vertex="1" parent="1">
            <mxGeometry x="2423" y="509" width="380" height="472" as="geometry" />
          </mxCell>
        </UserObject>
        <UserObject label="" tags="Background" id="0N5C-bSlOZF7z8Y1nU8M-216">
          <mxCell style="vsdxID=11;fillColor=none;gradientColor=none;shape=stencil(rVTLcsIwDPwaH6uRbMePM4X/YEpoMk0TJoQW/r5OnQdWaXLhJskr70qWJdTmXOxPuZB47trmI/8uD10h1KuQsqyLvC27YAm1FWpzbNr8vW0u9SH6p32P7K3P5qu/4RrzNNg+R+It+oT46+8iuCrrO7DPQNMT4W+XNmqhIcGCV0PCGPLgXAxd5RTyo+gxhGCzAaVSKrwNAetB6//FzvjoSwlol8SGBECmlgzQX7WZTNUSAhPrHWQ+lWtAqZVeGZOySyDDyMMtPiV/QSDJ2DNAl7Ivv+qEXgUHrH4OltevpsGlqTCktHwJmrVegjJp8QTaCtZ5s0QcHo+/OoLTKTOmtDTeOdGy4QzChgF42Jp0NK0DT8sS+WCGD6I9bw6x5vR/jQ3mvB7Yt3ooc2WZBGNeQ8eyquIWuz/nayuE4spT2x8=);dashed=1;dashPattern=4.00 2.00;strokeColor=#002060;strokeWidth=4;spacingTop=-3;spacingBottom=-3;spacingLeft=-3;spacingRight=-3;points=[];labelBackgroundColor=none;rounded=0;html=1;whiteSpace=wrap;fontStyle=1" vertex="1" parent="1">
            <mxGeometry x="1879" y="177" width="1402" height="246" as="geometry" />
          </mxCell>
        </UserObject>
        <UserObject label="" tags="Background" id="0N5C-bSlOZF7z8Y1nU8M-217">
          <mxCell style="vsdxID=12;fillColor=none;gradientColor=none;shape=stencil(rVTLcsMgDPwajtUAAgznNP2PTOPUnrpxxnHa5O+Lix+R3NiX3EBeeZdlkcDNudidcqHluW3qz/yn3LeFwFehdXks8qZs40rgVuDmUDf5R1Nfjvu0P+06ZLf6qr+7P1xTn4Gs69HylvZKyr/9WwJX5fEOHCwY9UT4+6VJWlTfkEHAvmEoBQgmla56Kg2i9ciEAwoplbz1BR/AmcdiJ3y/V6D0ktjYAJKp9aDsTKzVVKwFHajW4MEGqhZBhRWrnKPkCmRg5A4wUPKXKNoxdgvSU/blSx3Rq+CINc/B8vPjmFs1HUzR42swzHo1uDrFBEwmmPOIS8wSLLv1GHNHmSWl9YDMc5bNGDb0j62hyYxBpuC5Qp7LeGl6Zo5i5nTvCqnMaTqwV/WvzJVZEhfTFDqUVZWG2P13PrViKU083P4C);dashed=1;dashPattern=4.00 2.00;strokeColor=#002060;strokeWidth=4;spacingTop=-3;spacingBottom=-3;spacingLeft=-3;spacingRight=-3;points=[];labelBackgroundColor=none;rounded=0;html=1;whiteSpace=wrap;fontStyle=1" vertex="1" parent="1">
            <mxGeometry x="1879" y="485" width="1402" height="520" as="geometry" />
          </mxCell>
        </UserObject>
        <UserObject label="" tags="Background" id="0N5C-bSlOZF7z8Y1nU8M-218">
          <mxCell style="vsdxID=39;fillColor=#d5e8d4;gradientColor=none;shape=stencil(rVTbUoMwEP0aHt3Jbu7Ptf5Hx1JhxNKhVMvfGwwIGwZGHd+Sw1nO2Us2k7trcbjkGYlr29Sv+Ud5bItMPmZE5bnIm7INp0zuM7k71U3+0tS38zHeL4ee2Z/e6vf+D/cYZ0BgH0SiiwAK8XV/iuyqPM/YHsHpf6Q/35poBocAA3IMGCEP3kfoTguoGyEJxg4syaVENwBOgzPrZif+cFeAastsCAA03C0KkLhw+50TjUXXmpv1FqzndiW4TflQq/4rUwekRFyBMFz8QQC5RH3WpwH6VVc3yIv5+jM3zV+B4tmHxITl6dPkdECQZ45giSdO4O2WrADtuK4Cr7hs70RxXQtGculkOsPkKFqvDZ9N50cXqy7RJu9IA2FaHWu5yzCrySua9SR5Vz9rYcIOh2kTncqqiots/j3dXAGKW0/uPwE=);strokeColor=#82b366;strokeWidth=4;spacingTop=-3;spacingBottom=-3;spacingLeft=-3;spacingRight=-3;points=[];labelBackgroundColor=none;rounded=0;html=1;whiteSpace=wrap;fontStyle=1" vertex="1" parent="1">
            <mxGeometry x="2904" y="815" width="324" height="149" as="geometry" />
          </mxCell>
        </UserObject>
        <UserObject label="" tags="Background" id="0N5C-bSlOZF7z8Y1nU8M-219">
          <mxCell style="vsdxID=35;fillColor=#d5e8d4;gradientColor=none;shape=stencil(rVTbUoMwEP0aHt3Jbu7Ptf5Hx1JhxNKhVMvfGwwIGwZGHd+Sw1nO2Us2k7trcbjkGYlr29Sv+Ud5bItMPmZE5bnIm7INp0zuM7k71U3+0tS38zHeL4ee2Z/e6vf+D/cYZ0BgH0SiiwAK8XV/iuyqPM/YHsHpf6Q/35poBocAA3IMGCEP3kfoTguoGyEJxg4syaVENwBOgzPrZif+cFeAastsCAA03C0KkLhw+50TjUXXmpv1FqzndiW4TflQq/4rUwekRFyBMFz8QQC5RH3WpwH6VVc3yIv5+jM3zV+B4tmHxITl6dPkdECQZ45giSdO4O2WrADtuK4Cr7hs70RxXQtGculkOsPkKFqvDZ9N50cXqy7RJu9IA2FaHWu5yzCrySua9SR5Vz9rYcIOh2kTncqqiots/j3dXAGKW0/uPwE=);strokeColor=#82b366;strokeWidth=4;spacingTop=-3;spacingBottom=-3;spacingLeft=-3;spacingRight=-3;points=[];labelBackgroundColor=none;rounded=0;html=1;whiteSpace=wrap;fontStyle=1" vertex="1" parent="1">
            <mxGeometry x="2903" y="637" width="324" height="149" as="geometry" />
          </mxCell>
        </UserObject>
        <UserObject label="" tags="Background" id="0N5C-bSlOZF7z8Y1nU8M-220">
          <mxCell style="vsdxID=32;fillColor=#FBE5D5;gradientColor=none;shape=stencil(rVTbUoMwEP0aHt3Jbu7Ptf5Hx1JhxNKhVMvfGwwIGwZGHd+Sw1nO2Us2k7trcbjkGYlr29Sv+Ud5bItMPmZE5bnIm7INp0zuM7k71U3+0tS38zHeL4ee2Z/e6vf+D/cYZ0BgH0SiiwAK8XV/iuyqPM/YHsHpf6Q/35poBocAA3IMGCEP3kfoTguoGyEJxg4syaVENwBOgzPrZif+cFeAastsCAA03C0KkLhw+50TjUXXmpv1FqzndiW4TflQq/4rUwekRFyBMFz8QQC5RH3WpwH6VVc3yIv5+jM3zV+B4tmHxITl6dPkdECQZ45giSdO4O2WrADtuK4Cr7hs70RxXQtGculkOsPkKFqvDZ9N50cXqy7RJu9IA2FaHWu5yzCrySua9SR5Vz9rYcIOh2kTncqqiots/j3dXAGKW0/uPwE=);strokeColor=#ED7D31;strokeWidth=4;spacingTop=-3;spacingBottom=-3;spacingLeft=-3;spacingRight=-3;points=[];labelBackgroundColor=none;rounded=0;html=1;whiteSpace=wrap;fontStyle=1" vertex="1" parent="1">
            <mxGeometry x="2454" y="815" width="324" height="149" as="geometry" />
          </mxCell>
        </UserObject>
        <UserObject label="" tags="Background" id="0N5C-bSlOZF7z8Y1nU8M-221">
          <mxCell style="vsdxID=29;fillColor=#FBE5D5;gradientColor=none;shape=stencil(rVTbUoMwEP0aHt3Jbu7Ptf5Hx1JhxNKhVMvfGwwIGwZGHd+Sw1nO2Us2k7trcbjkGYlr29Sv+Ud5bItMPmZE5bnIm7INp0zuM7k71U3+0tS38zHeL4ee2Z/e6vf+D/cYZ0BgH0SiiwAK8XV/iuyqPM/YHsHpf6Q/35poBocAA3IMGCEP3kfoTguoGyEJxg4syaVENwBOgzPrZif+cFeAastsCAA03C0KkLhw+50TjUXXmpv1FqzndiW4TflQq/4rUwekRFyBMFz8QQC5RH3WpwH6VVc3yIv5+jM3zV+B4tmHxITl6dPkdECQZ45giSdO4O2WrADtuK4Cr7hs70RxXQtGculkOsPkKFqvDZ9N50cXqy7RJu9IA2FaHWu5yzCrySua9SR5Vz9rYcIOh2kTncqqiots/j3dXAGKW0/uPwE=);strokeColor=#ED7D31;strokeWidth=4;spacingTop=-3;spacingBottom=-3;spacingLeft=-3;spacingRight=-3;points=[];labelBackgroundColor=none;rounded=0;html=1;whiteSpace=wrap;fontStyle=1" vertex="1" parent="1">
            <mxGeometry x="2453" y="637" width="324" height="149" as="geometry" />
          </mxCell>
        </UserObject>
        <UserObject label="" tags="Background" id="0N5C-bSlOZF7z8Y1nU8M-222">
          <mxCell style="vsdxID=27;fillColor=#deebf6;gradientColor=none;shape=stencil(rVTbUoMwEP0aHt3Jbu7Ptf5Hx1JhxNKhVMvfGwwIGwZGHd+Sw1nO2Us2k7trcbjkGYlr29Sv+Ud5bItMPmZE5bnIm7INp0zuM7k71U3+0tS38zHeL4ee2Z/e6vf+D/cYZ0BgH0SiiwAK8XV/iuyqPM/YHsHpf6Q/35poBocAA3IMGCEP3kfoTguoGyEJxg4syaVENwBOgzPrZif+cFeAastsCAA03C0KkLhw+50TjUXXmpv1FqzndiW4TflQq/4rUwekRFyBMFz8QQC5RH3WpwH6VVc3yIv5+jM3zV+B4tmHxITl6dPkdECQZ45giSdO4O2WrADtuK4Cr7hs70RxXQtGculkOsPkKFqvDZ9N50cXqy7RJu9IA2FaHWu5yzCrySua9SR5Vz9rYcIOh2kTncqqiots/j3dXAGKW0/uPwE=);strokeColor=#2e75b5;strokeWidth=4;spacingTop=-3;spacingBottom=-3;spacingLeft=-3;spacingRight=-3;points=[];labelBackgroundColor=none;rounded=0;html=1;whiteSpace=wrap;fontStyle=1" vertex="1" parent="1">
            <mxGeometry x="2001" y="637" width="324" height="149" as="geometry" />
          </mxCell>
        </UserObject>
        <UserObject label="" tags="Background" id="0N5C-bSlOZF7z8Y1nU8M-223">
          <mxCell style="vsdxID=1;fillColor=none;gradientColor=none;shape=stencil(rVTLcoMwDPwaH6PxE9vnNP2PTEIKUwoZQhry9zVj85CY0h5ys8WKXa0sMbW/FcdrziS/dW3zmT/Kc1cw9cakLOsib8sunJg6MLW/NG3+0Tb3+hzv1+OAHE5fzffwhz7mCT6kSP4cr/H+HrFVWS+w/mXY072NIkRCG9A+JYwhD87FUC+nkBcJNYbUlNgrTMWfKeAMGPe70hmf7hq03BIbEkBgsYKDMSux3GGxGTgs1VsQDovVwO0fTklHyEEpwi0hI9y7oFkTduLT/7u5gRQvQdKq7VTiWPRu6sFYtAarcc3BGPI2JDhD/RabzebgM8wcuqgxc9CSmjZThwdhMTdxe/XMsDvYnNUTXsvkxKAwGUZRh6YhW0xURseH6Nya8u3tEQ7z2rmUVRW31vI7XVMhFFecOvwA);strokeColor=#2e75b5;strokeWidth=4;spacingTop=-3;spacingBottom=-3;spacingLeft=-3;spacingRight=-3;points=[];labelBackgroundColor=none;rounded=0;html=1;whiteSpace=wrap;fontStyle=1" vertex="1" parent="1">
            <mxGeometry x="1971" y="200" width="380" height="200" as="geometry" />
          </mxCell>
        </UserObject>
        <UserObject label="&lt;div style=&quot;font-size: 1px&quot;&gt;&lt;font style=&quot;font-size:11.64px;font-family:Helvetica;color:#000000;direction:ltr;letter-spacing:0px;line-height:120%;opacity:1&quot;&gt;&lt;font style=&quot;border-color: var(--border-color); letter-spacing: 0px; font-size: 38.8px; font-family: 宋体; direction: ltr; line-height: 46.56px; opacity: 1;&quot;&gt;模型的安全性缺少系统性评估的问题&lt;/font&gt;&lt;font style=&quot;border-color: var(--border-color); letter-spacing: 0px; font-size: 11.64px; font-family: helvetica; direction: ltr; line-height: 13.968px; opacity: 1;&quot;&gt;&lt;br style=&quot;border-color: var(--border-color);&quot;&gt;&lt;/font&gt;&lt;/font&gt;&lt;/div&gt;" tags="Background" id="0N5C-bSlOZF7z8Y1nU8M-224">
          <mxCell style="verticalAlign=middle;align=center;overflow=width;vsdxID=2;fillColor=none;gradientColor=none;shape=stencil(nZBLDoAgDERP0z3SIyjew0SURgSD+Lu9kMZoXLhwN9O+tukAlrNpJg1SzDH4QW/URgNYgZTkjA4UkwJUgGXng+6DX1zLfmoymdXo17xh5zmRJ6Q42BWCfc2oJfdAr+Yv+AP9Cb7OJ3H/2JG1HNGz/84klThPVCc=);strokeColor=none;spacingTop=-3;spacingBottom=-3;spacingLeft=-3;spacingRight=-3;points=[];labelBackgroundColor=none;rounded=0;html=1;whiteSpace=wrap;fontStyle=1" vertex="1" parent="1">
            <mxGeometry x="1975.5" y="249" width="371" height="102" as="geometry" />
          </mxCell>
        </UserObject>
        <UserObject label="" tags="Background" id="0N5C-bSlOZF7z8Y1nU8M-225">
          <mxCell style="vsdxID=3;fillColor=none;gradientColor=none;shape=stencil(rVRBcoMwDHyNj9XYsrHxOU3/kWlIYUoh45A2+X3tMRQkprSH3CyxZlcrS0LvLvXhXAmUlyH079VXcxxqoZ8FYtPVVWiGeBJ6L/Tu1IfqLfTX7pjj8yEh0+mj/0x/uOV7SqYrKO9TmOOXjG2bboH1D8O+XkMWoUZ0AcaPF6aUB1/k1A3nlBpRU8oBmhGlKZW8jwmvofS/K53xObag1JbWiAdFtRowbiVVllQqQllSpVG8KqlWBQ7/MAqZURIKy8gRLCN/kiAtY2c2/b+ZG0j1ECSv2oHWtOhUj6FVG3CGFh2d8bTm2INiZbjZopbgLaVG8JQ4aXGUOT4I1mtmNn9k1Btqzer9rjVKZk8aC8vt+ZmwxTgxlYrJ3Bzx7dURD/POOTVtm1fW8jvfUTGV95vefwM=);strokeColor=#2e75b5;strokeWidth=4;spacingTop=-3;spacingBottom=-3;spacingLeft=-3;spacingRight=-3;points=[];labelBackgroundColor=none;rounded=0;html=1;whiteSpace=wrap;fontStyle=1" vertex="1" parent="1">
            <mxGeometry x="1971" y="509" width="380" height="472" as="geometry" />
          </mxCell>
        </UserObject>
        <UserObject label="&lt;div style=&quot;font-size: 1px&quot;&gt;&lt;font style=&quot;font-size: 11.64px; color: rgb(0, 0, 0); direction: ltr; letter-spacing: 0px; line-height: 120%; opacity: 1;&quot;&gt;&lt;font style=&quot;border-color: var(--border-color); letter-spacing: 0px; font-size: 38.8px; direction: ltr; line-height: 46.56px; opacity: 1;&quot;&gt;模型安全性评估&lt;br style=&quot;border-color: var(--border-color);&quot;&gt;&lt;/font&gt;&lt;font style=&quot;border-color: var(--border-color); letter-spacing: 0px; font-size: 11.64px; direction: ltr; line-height: 13.968px; opacity: 1;&quot;&gt;&lt;br style=&quot;border-color: var(--border-color);&quot;&gt;&lt;/font&gt;&lt;/font&gt;&lt;/div&gt;" tags="Background" id="0N5C-bSlOZF7z8Y1nU8M-226">
          <mxCell style="verticalAlign=middle;align=center;overflow=width;vsdxID=4;fillColor=none;gradientColor=none;shape=stencil(nZBLDoAgDERP0z3SIyjew0SURgSD+Lu9kMZoXLhwN9O+tukAlrNpJg1SzDH4QW/URgNYgZTkjA4UkwJUgGXng+6DX1zLfmoymdXo17xh5zmRJ6Q42BWCfc2oJfdAr+Yv+AP9Cb7OJ3H/2JG1HNGz/84klThPVCc=);strokeColor=none;spacingTop=-3;spacingBottom=-3;spacingLeft=-3;spacingRight=-3;points=[];labelBackgroundColor=none;rounded=0;html=1;whiteSpace=wrap;fontStyle=1;fontFamily=黑体;" vertex="1" parent="1">
            <mxGeometry x="2016" y="530" width="290" height="100" as="geometry" />
          </mxCell>
        </UserObject>
        <UserObject label="&lt;div style=&quot;font-size: 1px&quot;&gt;&lt;font style=&quot;font-size: 38.8px; color: rgb(0, 0, 0); direction: ltr; letter-spacing: 0px; line-height: 120%; opacity: 1;&quot;&gt;模型生成内容安全&lt;br&gt;&lt;/font&gt;&lt;font style=&quot;font-size: 11.64px; color: rgb(0, 0, 0); direction: ltr; letter-spacing: 0px; line-height: 120%; opacity: 1;&quot;&gt;&lt;br&gt;&lt;/font&gt;&lt;font style=&quot;font-size: 11.64px; color: rgb(0, 0, 0); direction: ltr; letter-spacing: 0px; line-height: 120%; opacity: 1;&quot;&gt;&lt;br&gt;&lt;/font&gt;&lt;/div&gt;" tags="Background" id="0N5C-bSlOZF7z8Y1nU8M-227">
          <mxCell style="verticalAlign=middle;align=center;overflow=width;vsdxID=5;fillColor=none;gradientColor=none;shape=stencil(nZBLDoAgDERP0z3SIyjew0SURgSD+Lu9kMZoXLhwN9O+tukAlrNpJg1SzDH4QW/URgNYgZTkjA4UkwJUgGXng+6DX1zLfmoymdXo17xh5zmRJ6Q42BWCfc2oJfdAr+Yv+AP9Cb7OJ3H/2JG1HNGz/84klThPVCc=);strokeColor=none;spacingTop=-3;spacingBottom=-3;spacingLeft=-3;spacingRight=-3;points=[];labelBackgroundColor=none;rounded=0;html=1;whiteSpace=wrap;fontStyle=1;fontFamily=黑体;" vertex="1" parent="1">
            <mxGeometry x="2460.5" y="548" width="311" height="60" as="geometry" />
          </mxCell>
        </UserObject>
        <UserObject label="&lt;div style=&quot;font-size: 1px&quot;&gt;&lt;font style=&quot;font-size: 38.8px; color: rgb(0, 0, 0); direction: ltr; letter-spacing: 0px; line-height: 120%; opacity: 1;&quot;&gt;模型供应链安全性&lt;br&gt;&lt;/font&gt;&lt;font style=&quot;font-size: 11.64px; color: rgb(0, 0, 0); direction: ltr; letter-spacing: 0px; line-height: 120%; opacity: 1;&quot;&gt;&lt;br&gt;&lt;/font&gt;&lt;font style=&quot;font-size: 11.64px; color: rgb(0, 0, 0); direction: ltr; letter-spacing: 0px; line-height: 120%; opacity: 1;&quot;&gt;&lt;br&gt;&lt;/font&gt;&lt;/div&gt;" tags="Background" id="0N5C-bSlOZF7z8Y1nU8M-228">
          <mxCell style="verticalAlign=middle;align=center;overflow=width;vsdxID=6;fillColor=none;gradientColor=none;shape=stencil(nZBLDoAgDERP0z3SIyjew0SURgSD+Lu9kMZoXLhwN9O+tukAlrNpJg1SzDH4QW/URgNYgZTkjA4UkwJUgGXng+6DX1zLfmoymdXo17xh5zmRJ6Q42BWCfc2oJfdAr+Yv+AP9Cb7OJ3H/2JG1HNGz/84klThPVCc=);strokeColor=none;spacingTop=-3;spacingBottom=-3;spacingLeft=-3;spacingRight=-3;points=[];labelBackgroundColor=none;rounded=0;html=1;whiteSpace=wrap;fontStyle=1;fontFamily=黑体;" vertex="1" parent="1">
            <mxGeometry x="2897.5" y="548" width="337" height="50" as="geometry" />
          </mxCell>
        </UserObject>
        <UserObject label="" tags="Background" id="0N5C-bSlOZF7z8Y1nU8M-229">
          <mxCell style="vsdxID=7;fillColor=none;gradientColor=none;shape=stencil(rVRdc4MgEPw1PvYG7kDhOU3+R6Yx1amNGWNa8++LBT84R6ft9A3WPXdvD0hodyuO1zxBcWub+i3/LE9tkdBzglheirwpW7dKaJ/Q7lw3+WtT3y8nv78ee2a/eq8/+j90vg7B2L4IxcMDUojv/cGzq/IyY9sU0uwf6S/3xpuRocCADvwBsZAGgx2OkDWBFaDMgApCHcVK4hEAjYB63evE93uVQaa3vLoCEDJ2SxoELdyOGQTIhZ4xt44lVOxX0sBaD0sxfTX9eJDPQKex/JMAZOqzOQXoV1PdIC/O15+5vH0EiXH3fWMmbl8CsfAJrI27F2CIRS/ByC3tSWjQlm7MbPLOjkAmLoBY9uyUKufYrEcUn1FtIMVNn7FJI0EtA4otjvdgMDibCrtaPxsiY7vF9Bady6ryT9n8O3+7HOTfPdp/AQ==);strokeColor=#c00000;strokeWidth=4;spacingTop=-3;spacingBottom=-3;spacingLeft=-3;spacingRight=-3;points=[];labelBackgroundColor=none;rounded=0;html=1;whiteSpace=wrap;fontStyle=1;fontFamily=黑体;" vertex="1" parent="1">
            <mxGeometry x="1878" y="30" width="1404" height="82" as="geometry" />
          </mxCell>
        </UserObject>
        <UserObject label="&lt;div style=&quot;font-size: 1px&quot;&gt;&lt;font style=&quot;font-size: 11.64px; color: rgb(0, 0, 0); direction: ltr; letter-spacing: 0px; line-height: 120%; opacity: 1;&quot;&gt;&lt;font style=&quot;border-color: var(--border-color); letter-spacing: 0px; font-size: 38.8px; direction: ltr; line-height: 46.56px; opacity: 1;&quot;&gt;研究目标&lt;/font&gt;&lt;font style=&quot;border-color: var(--border-color); letter-spacing: 0px; font-size: 38.8px; direction: ltr; line-height: 46.56px; opacity: 1;&quot;&gt;：构造&lt;/font&gt;&lt;font style=&quot;border-color: var(--border-color); letter-spacing: 0px; font-size: 38.8px; direction: ltr; line-height: 46.56px; opacity: 1;&quot;&gt;可控、可信、安全的&lt;/font&gt;&lt;font style=&quot;border-color: var(--border-color); letter-spacing: 0px; font-size: 38.8px; direction: ltr; line-height: 46.56px; opacity: 1;&quot;&gt;跨模态语言智能模型&lt;br style=&quot;border-color: var(--border-color);&quot;&gt;&lt;/font&gt;&lt;font style=&quot;border-color: var(--border-color); letter-spacing: 0px; font-size: 38.8px; direction: ltr; line-height: 46.56px; opacity: 1;&quot;&gt;&lt;br style=&quot;border-color: var(--border-color);&quot;&gt;&lt;/font&gt;&lt;font style=&quot;border-color: var(--border-color); letter-spacing: 0px; font-size: 11.64px; direction: ltr; line-height: 13.968px; opacity: 1;&quot;&gt;&lt;br style=&quot;border-color: var(--border-color);&quot;&gt;&lt;/font&gt;&lt;/font&gt;&lt;/div&gt;" tags="Background" id="0N5C-bSlOZF7z8Y1nU8M-230">
          <mxCell style="verticalAlign=middle;align=center;overflow=width;vsdxID=8;fillColor=none;gradientColor=none;shape=stencil(nZBLDoAgDERP0z3SIyjew0SURgSD+Lu9kMZoXLhwN9O+tukAlrNpJg1SzDH4QW/URgNYgZTkjA4UkwJUgGXng+6DX1zLfmoymdXo17xh5zmRJ6Q42BWCfc2oJfdAr+Yv+AP9Cb7OJ3H/2JG1HNGz/84klThPVCc=);strokeColor=none;spacingTop=-3;spacingBottom=-3;spacingLeft=-3;spacingRight=-3;points=[];labelBackgroundColor=none;rounded=0;html=1;whiteSpace=wrap;fontStyle=1;fontFamily=黑体;" vertex="1" parent="1">
            <mxGeometry x="1924" y="47.5" width="1330" height="49" as="geometry" />
          </mxCell>
        </UserObject>
        <UserObject label="&lt;div style=&quot;font-size: 1px&quot;&gt;&lt;font style=&quot;font-size: 38.8px; color: rgb(0, 0, 0); direction: ltr; letter-spacing: 0px; line-height: 120%; opacity: 1;&quot;&gt;研&lt;br&gt;&lt;/font&gt;&lt;font style=&quot;font-size: 38.8px; color: rgb(0, 0, 0); direction: ltr; letter-spacing: 0px; line-height: 120%; opacity: 1;&quot;&gt;究&lt;br&gt;&lt;/font&gt;&lt;font style=&quot;font-size: 38.8px; color: rgb(0, 0, 0); direction: ltr; letter-spacing: 0px; line-height: 120%; opacity: 1;&quot;&gt;内&lt;br&gt;&lt;/font&gt;&lt;font style=&quot;font-size: 38.8px; color: rgb(0, 0, 0); direction: ltr; letter-spacing: 0px; line-height: 120%; opacity: 1;&quot;&gt;容&lt;br&gt;&lt;/font&gt;&lt;font style=&quot;font-size: 11.64px; color: rgb(0, 0, 0); direction: ltr; letter-spacing: 0px; line-height: 120%; opacity: 1;&quot;&gt;&lt;br&gt;&lt;/font&gt;&lt;font style=&quot;font-size: 11.64px; color: rgb(0, 0, 0); direction: ltr; letter-spacing: 0px; line-height: 120%; opacity: 1;&quot;&gt;&lt;br&gt;&lt;/font&gt;&lt;/div&gt;" tags="Background" id="0N5C-bSlOZF7z8Y1nU8M-231">
          <mxCell style="verticalAlign=middle;align=center;overflow=width;vsdxID=9;fillColor=none;gradientColor=none;shape=stencil(nZBLDoAgDERP0z3SIyjew0SURgSD+Lu9kMZoXLhwN9O+tukAlrNpJg1SzDH4QW/URgNYgZTkjA4UkwJUgGXng+6DX1zLfmoymdXo17xh5zmRJ6Q42BWCfc2oJfdAr+Yv+AP9Cb7OJ3H/2JG1HNGz/84klThPVCc=);strokeColor=none;spacingTop=-3;spacingBottom=-3;spacingLeft=-3;spacingRight=-3;points=[];labelBackgroundColor=none;rounded=0;html=1;whiteSpace=wrap;fontStyle=1;fontFamily=黑体;" vertex="1" parent="1">
            <mxGeometry x="1869" y="643" width="109" height="207" as="geometry" />
          </mxCell>
        </UserObject>
        <UserObject label="&lt;div style=&quot;font-size: 1px&quot;&gt;&lt;font style=&quot;font-size: 38.8px; color: rgb(0, 0, 0); direction: ltr; letter-spacing: 0px; line-height: 120%; opacity: 1;&quot;&gt;关&lt;br&gt;&lt;/font&gt;&lt;font style=&quot;font-size: 38.8px; color: rgb(0, 0, 0); direction: ltr; letter-spacing: 0px; line-height: 120%; opacity: 1;&quot;&gt;键&lt;br&gt;&lt;/font&gt;&lt;font style=&quot;font-size: 38.8px; color: rgb(0, 0, 0); direction: ltr; letter-spacing: 0px; line-height: 120%; opacity: 1;&quot;&gt;问&lt;br&gt;&lt;/font&gt;&lt;font style=&quot;font-size: 38.8px; color: rgb(0, 0, 0); direction: ltr; letter-spacing: 0px; line-height: 120%; opacity: 1;&quot;&gt;题&lt;br&gt;&lt;/font&gt;&lt;font style=&quot;font-size: 11.64px; color: rgb(0, 0, 0); direction: ltr; letter-spacing: 0px; line-height: 120%; opacity: 1;&quot;&gt;&lt;br&gt;&lt;/font&gt;&lt;font style=&quot;font-size: 11.64px; color: rgb(0, 0, 0); direction: ltr; letter-spacing: 0px; line-height: 120%; opacity: 1;&quot;&gt;&lt;br&gt;&lt;/font&gt;&lt;/div&gt;" tags="Background" id="0N5C-bSlOZF7z8Y1nU8M-232">
          <mxCell style="verticalAlign=middle;align=center;overflow=width;vsdxID=10;fillColor=none;gradientColor=none;shape=stencil(nZBLDoAgDERP0z3SIyjew0SURgSD+Lu9kMZoXLhwN9O+tukAlrNpJg1SzDH4QW/URgNYgZTkjA4UkwJUgGXng+6DX1zLfmoymdXo17xh5zmRJ6Q42BWCfc2oJfdAr+Yv+AP9Cb7OJ3H/2JG1HNGz/84klThPVCc=);strokeColor=none;spacingTop=-3;spacingBottom=-3;spacingLeft=-3;spacingRight=-3;points=[];labelBackgroundColor=none;rounded=0;html=1;whiteSpace=wrap;fontStyle=1;fontFamily=黑体;" vertex="1" parent="1">
            <mxGeometry x="1869" y="211" width="109" height="205" as="geometry" />
          </mxCell>
        </UserObject>
        <UserObject label="&lt;div style=&quot;font-size: 1px&quot;&gt;&lt;font style=&quot;font-size:11.64px;font-family:helvetica;color:#000000;direction:ltr;letter-spacing:0px;line-height:120%;opacity:1&quot;&gt;&lt;br&gt;&lt;/font&gt;&lt;font style=&quot;font-size:11.64px;font-family:Helvetica;color:#000000;direction:ltr;letter-spacing:0px;line-height:120%;opacity:1&quot;&gt;&lt;br&gt;&lt;/font&gt;&lt;/div&gt;" tags="Background" id="0N5C-bSlOZF7z8Y1nU8M-233">
          <mxCell style="verticalAlign=middle;align=center;overflow=width;vsdxID=13;rotation=270;fillColor=#bdd7ee;gradientColor=none;shape=stencil(zZLNDsIgEISfZo82lDWtnGt9jyalQkRoKPXn7YVsjFWTmnrR2wzMR7LLAFaDanoJnA3Bu4M86zYowC1wrq2SXoeoAGvAqnNe7r0bbUu+b1IyqaM7pRcuxLFEcHYllzPyO4oabSdRLDLxlF4hEyIryyVIvo7IRvwauQ/6PTG7qrdwsXSE/ySQf/jw2R1F8ahhp42hFk/vX2sbj6jyWN8A);strokeColor=#0070c0;strokeWidth=4;spacingTop=-3;spacingBottom=-3;spacingLeft=-3;spacingRight=-3;flipH=1;flipV=1;points=[];labelBackgroundColor=none;rounded=0;html=1;whiteSpace=wrap;fontStyle=1" vertex="1" parent="1">
            <mxGeometry x="2121" y="466" width="84" height="1" as="geometry" />
          </mxCell>
        </UserObject>
        <UserObject label="" tags="Background" id="0N5C-bSlOZF7z8Y1nU8M-234">
          <mxCell style="vsdxID=1410000;fillColor=none;gradientColor=none;strokeColor=none;spacingTop=-3;spacingBottom=-3;spacingLeft=-3;spacingRight=-3;points=[];labelBackgroundColor=none;rounded=0;html=1;whiteSpace=wrap;fontStyle=1;fontFamily=黑体;" vertex="1" parent="1">
            <mxGeometry x="1820" y="1093" width="1569" height="82" as="geometry" />
          </mxCell>
        </UserObject>
        <mxCell id="0N5C-bSlOZF7z8Y1nU8M-235" style="vsdxID=15;fillColor=none;gradientColor=none;shape=stencil(rVRdc4MgEPw1PvYG7kDhOU3+R6Yx1amNGWNa8++LBT84R6ft9A3WPXdvD0hodyuO1zxBcWub+i3/LE9tkdBzglheirwpW7dKaJ/Q7lw3+WtT3y8nv78ee2a/eq8/+j90vg7B2L4IxcMDUojv/cGzq/IyY9sU0uwf6S/3xpuRocCADvwBsZAGgx2OkDWBFaDMgApCHcVK4hEAjYB63evE93uVQaa3vLoCEDJ2SxoELdyOGQTIhZ4xt44lVOxX0sBaD0sxfTX9eJDPQKex/JMAZOqzOQXoV1PdIC/O15+5vH0EiXH3fWMmbl8CsfAJrI27F2CIRS/ByC3tSWjQlm7MbPLOjkAmLoBY9uyUKufYrEcUn1FtIMVNn7FJI0EtA4otjvdgMDibCrtaPxsiY7vF9Bady6ryT9n8O3+7HOTfPdp/AQ==);strokeColor=#c00000;strokeWidth=4;spacingTop=-3;spacingBottom=-3;spacingLeft=-3;spacingRight=-3;points=[];labelBackgroundColor=none;rounded=0;html=1;whiteSpace=wrap;fontStyle=1;fontFamily=黑体;" vertex="1" parent="0N5C-bSlOZF7z8Y1nU8M-234">
          <mxGeometry x="54" width="1407" height="82" as="geometry" />
        </mxCell>
        <mxCell id="0N5C-bSlOZF7z8Y1nU8M-236" value="&lt;div style=&quot;font-size: 1px&quot;&gt;&lt;font style=&quot;font-size: 11.64px; color: rgb(0, 0, 0); direction: ltr; letter-spacing: 0px; line-height: 120%; opacity: 1;&quot;&gt;&lt;font style=&quot;border-color: var(--border-color); letter-spacing: 0px; font-size: 38.8px; direction: ltr; line-height: 46.56px; opacity: 1;&quot;&gt;基础技术：隐私计算、密码学、联邦学习、数据挖掘等&lt;br style=&quot;border-color: var(--border-color);&quot;&gt;&lt;/font&gt;&lt;font style=&quot;border-color: var(--border-color); letter-spacing: 0px; font-size: 11.64px; direction: ltr; line-height: 13.968px; opacity: 1;&quot;&gt;&lt;br style=&quot;border-color: var(--border-color);&quot;&gt;&lt;/font&gt;&lt;/font&gt;&lt;/div&gt;" style="verticalAlign=middle;align=center;overflow=width;vsdxID=16;fillColor=none;gradientColor=none;shape=stencil(nZBLDoAgDERP0z3SIyjew0SURgSD+Lu9kMZoXLhwN9O+tukAlrNpJg1SzDH4QW/URgNYgZTkjA4UkwJUgGXng+6DX1zLfmoymdXo17xh5zmRJ6Q42BWCfc2oJfdAr+Yv+AP9Cb7OJ3H/2JG1HNGz/84klThPVCc=);strokeColor=none;spacingTop=-3;spacingBottom=-3;spacingLeft=-3;spacingRight=-3;points=[];labelBackgroundColor=none;rounded=0;html=1;whiteSpace=wrap;fontStyle=1;fontFamily=黑体;" vertex="1" parent="0N5C-bSlOZF7z8Y1nU8M-234">
          <mxGeometry x="-23" y="12" width="1591" height="70" as="geometry" />
        </mxCell>
        <UserObject label="&lt;div style=&quot;font-size: 1px&quot;&gt;&lt;font style=&quot;font-size:11.64px;font-family:helvetica;color:#000000;direction:ltr;letter-spacing:0px;line-height:120%;opacity:1&quot;&gt;&lt;br&gt;&lt;/font&gt;&lt;font style=&quot;font-size:11.64px;font-family:Helvetica;color:#000000;direction:ltr;letter-spacing:0px;line-height:120%;opacity:1&quot;&gt;&lt;br&gt;&lt;/font&gt;&lt;/div&gt;" tags="Background" id="0N5C-bSlOZF7z8Y1nU8M-237">
          <mxCell style="verticalAlign=middle;align=center;overflow=width;vsdxID=17;rotation=270;fillColor=#bdd7ee;gradientColor=none;shape=stencil(zZLNDsIgEISfZo82lDWtnGt9jyalQkRoKPXn7YVsjFWTmnrR2wzMR7LLAFaDanoJnA3Bu4M86zYowC1wrq2SXoeoAGvAqnNe7r0bbUu+b1IyqaM7pRcuxLFEcHYllzPyO4oabSdRLDLxlF4hEyIryyVIvo7IRvwauQ/6PTG7qrdwsXSE/ySQf/jw2R1F8ahhp42hFk/vX2sbj6jyWN8A);strokeColor=#0070c0;strokeWidth=4;spacingTop=-3;spacingBottom=-3;spacingLeft=-3;spacingRight=-3;flipH=1;flipV=1;points=[];labelBackgroundColor=none;rounded=0;html=1;whiteSpace=wrap;fontStyle=1" vertex="1" parent="1">
            <mxGeometry x="2121" y="155" width="84" height="1" as="geometry" />
          </mxCell>
        </UserObject>
        <UserObject label="&lt;div style=&quot;font-size: 1px&quot;&gt;&lt;font style=&quot;font-size:11.64px;font-family:Helvetica;color:#000000;direction:ltr;letter-spacing:0px;line-height:120%;opacity:1&quot;&gt;&lt;font style=&quot;border-color: var(--border-color); letter-spacing: 0px; font-size: 38.8px; font-family: 宋体; direction: ltr; line-height: 46.56px; opacity: 1;&quot;&gt;模型生成内容缺乏审查和监管的问题&lt;/font&gt;&lt;font style=&quot;border-color: var(--border-color); letter-spacing: 0px; font-size: 11.64px; font-family: helvetica; direction: ltr; line-height: 13.968px; opacity: 1;&quot;&gt;&lt;br style=&quot;border-color: var(--border-color);&quot;&gt;&lt;/font&gt;&lt;/font&gt;&lt;/div&gt;" tags="Background" id="0N5C-bSlOZF7z8Y1nU8M-238">
          <mxCell style="verticalAlign=middle;align=center;overflow=width;vsdxID=18;fillColor=none;gradientColor=none;shape=stencil(nZBLDoAgDERP0z3SIyjew0SURgSD+Lu9kMZoXLhwN9O+tukAlrNpJg1SzDH4QW/URgNYgZTkjA4UkwJUgGXng+6DX1zLfmoymdXo17xh5zmRJ6Q42BWCfc2oJfdAr+Yv+AP9Cb7OJ3H/2JG1HNGz/84klThPVCc=);strokeColor=none;spacingTop=-3;spacingBottom=-3;spacingLeft=-3;spacingRight=-3;points=[];labelBackgroundColor=none;rounded=0;html=1;whiteSpace=wrap;fontStyle=1" vertex="1" parent="1">
            <mxGeometry x="2435.75" y="249" width="358.5" height="102" as="geometry" />
          </mxCell>
        </UserObject>
        <UserObject label="&lt;div style=&quot;font-size: 1px&quot;&gt;&lt;font style=&quot;font-size:11.64px;font-family:Helvetica;color:#000000;direction:ltr;letter-spacing:0px;line-height:120%;opacity:1&quot;&gt;&lt;font style=&quot;border-color: var(--border-color); letter-spacing: 0px; font-size: 38.8px; font-family: 宋体; direction: ltr; line-height: 46.56px; opacity: 1;&quot;&gt;模型训练数据易受到污染或投毒问题&lt;/font&gt;&lt;font style=&quot;border-color: var(--border-color); letter-spacing: 0px; font-size: 11.64px; font-family: helvetica; direction: ltr; line-height: 13.968px; opacity: 1;&quot;&gt;&lt;br style=&quot;border-color: var(--border-color);&quot;&gt;&lt;/font&gt;&lt;/font&gt;&lt;/div&gt;" tags="Background" id="0N5C-bSlOZF7z8Y1nU8M-239">
          <mxCell style="verticalAlign=middle;align=center;overflow=width;vsdxID=19;fillColor=none;gradientColor=none;shape=stencil(nZBLDoAgDERP0z3SIyjew0SURgSD+Lu9kMZoXLhwN9O+tukAlrNpJg1SzDH4QW/URgNYgZTkjA4UkwJUgGXng+6DX1zLfmoymdXo17xh5zmRJ6Q42BWCfc2oJfdAr+Yv+AP9Cb7OJ3H/2JG1HNGz/84klThPVCc=);strokeColor=none;spacingTop=-3;spacingBottom=-3;spacingLeft=-3;spacingRight=-3;points=[];labelBackgroundColor=none;rounded=0;html=1;whiteSpace=wrap;fontStyle=1" vertex="1" parent="1">
            <mxGeometry x="2901" y="249" width="323" height="102" as="geometry" />
          </mxCell>
        </UserObject>
        <UserObject label="" tags="Background" id="0N5C-bSlOZF7z8Y1nU8M-240">
          <mxCell style="vsdxID=20;fillColor=#deebf6;gradientColor=none;shape=stencil(rVTbUoMwEP0aHt3Jbu7Ptf5Hx1JhxNKhVMvfGwwIGwZGHd+Sw1nO2Us2k7trcbjkGYlr29Sv+Ud5bItMPmZE5bnIm7INp0zuM7k71U3+0tS38zHeL4ee2Z/e6vf+D/cYZ0BgH0SiiwAK8XV/iuyqPM/YHsHpf6Q/35poBocAA3IMGCEP3kfoTguoGyEJxg4syaVENwBOgzPrZif+cFeAastsCAA03C0KkLhw+50TjUXXmpv1FqzndiW4TflQq/4rUwekRFyBMFz8QQC5RH3WpwH6VVc3yIv5+jM3zV+B4tmHxITl6dPkdECQZ45giSdO4O2WrADtuK4Cr7hs70RxXQtGculkOsPkKFqvDZ9N50cXqy7RJu9IA2FaHWu5yzCrySua9SR5Vz9rYcIOh2kTncqqiots/j3dXAGKW0/uPwE=);strokeColor=#2e75b5;strokeWidth=4;spacingTop=-3;spacingBottom=-3;spacingLeft=-3;spacingRight=-3;points=[];labelBackgroundColor=none;rounded=0;html=1;whiteSpace=wrap;fontStyle=1" vertex="1" parent="1">
            <mxGeometry x="2002" y="815" width="324" height="149" as="geometry" />
          </mxCell>
        </UserObject>
        <UserObject label="&lt;div style=&quot;font-size: 1px&quot;&gt;&lt;font style=&quot;font-size:11.64px;font-family:helvetica;color:#000000;direction:ltr;letter-spacing:0px;line-height:120%;opacity:1&quot;&gt;&lt;br&gt;&lt;/font&gt;&lt;font style=&quot;font-size:11.64px;font-family:Helvetica;color:#000000;direction:ltr;letter-spacing:0px;line-height:120%;opacity:1&quot;&gt;&lt;br&gt;&lt;/font&gt;&lt;/div&gt;" tags="Background" id="0N5C-bSlOZF7z8Y1nU8M-247">
          <mxCell style="verticalAlign=middle;align=center;overflow=width;vsdxID=31;rotation=270;fillColor=#ffe6cc;gradientColor=none;shape=stencil(zZLNDsIgEISfZo82lDWtnGt9jyalQkRoKPXn7YVsjFWTmnrR2wzMR7LLAFaDanoJnA3Bu4M86zYowC1wrq2SXoeoAGvAqnNe7r0bbUu+b1IyqaM7pRcuxLFEcHYllzPyO4oabSdRLDLxlF4hEyIryyVIvo7IRvwauQ/6PTG7qrdwsXSE/ySQf/jw2R1F8ahhp42hFk/vX2sbj6jyWN8A);strokeColor=#ED7D31;strokeWidth=4;spacingTop=-3;spacingBottom=-3;spacingLeft=-3;spacingRight=-3;flipH=1;flipV=1;points=[];labelBackgroundColor=none;rounded=0;html=1;whiteSpace=wrap;fontStyle=1" vertex="1" parent="1">
            <mxGeometry x="2573" y="155" width="84" height="1" as="geometry" />
          </mxCell>
        </UserObject>
        <UserObject label="&lt;div style=&quot;font-size: 1px&quot;&gt;&lt;font style=&quot;font-size:11.64px;font-family:helvetica;color:#000000;direction:ltr;letter-spacing:0px;line-height:120%;opacity:1&quot;&gt;&lt;br&gt;&lt;/font&gt;&lt;font style=&quot;font-size:11.64px;font-family:Helvetica;color:#000000;direction:ltr;letter-spacing:0px;line-height:120%;opacity:1&quot;&gt;&lt;br&gt;&lt;/font&gt;&lt;/div&gt;" tags="Background" id="0N5C-bSlOZF7z8Y1nU8M-248">
          <mxCell style="verticalAlign=middle;align=center;overflow=width;vsdxID=33;rotation=270;fillColor=#ffe6cc;gradientColor=none;shape=stencil(zZLNDsIgEISfZo82lDWtnGt9jyalQkRoKPXn7YVsjFWTmnrR2wzMR7LLAFaDanoJnA3Bu4M86zYowC1wrq2SXoeoAGvAqnNe7r0bbUu+b1IyqaM7pRcuxLFEcHYllzPyO4oabSdRLDLxlF4hEyIryyVIvo7IRvwauQ/6PTG7qrdwsXSE/ySQf/jw2R1F8ahhp42hFk/vX2sbj6jyWN8A);strokeColor=#ED7D31;strokeWidth=4;spacingTop=-3;spacingBottom=-3;spacingLeft=-3;spacingRight=-3;flipH=1;flipV=1;points=[];labelBackgroundColor=none;rounded=0;html=1;whiteSpace=wrap;fontStyle=1" vertex="1" parent="1">
            <mxGeometry x="2574" y="466" width="84" height="1" as="geometry" />
          </mxCell>
        </UserObject>
        <UserObject label="&lt;div style=&quot;font-size: 1px&quot;&gt;&lt;font style=&quot;font-size:11.64px;font-family:helvetica;color:#000000;direction:ltr;letter-spacing:0px;line-height:120%;opacity:1&quot;&gt;&lt;br&gt;&lt;/font&gt;&lt;font style=&quot;font-size:11.64px;font-family:Helvetica;color:#000000;direction:ltr;letter-spacing:0px;line-height:120%;opacity:1&quot;&gt;&lt;br&gt;&lt;/font&gt;&lt;/div&gt;" tags="Background" id="0N5C-bSlOZF7z8Y1nU8M-249">
          <mxCell style="verticalAlign=middle;align=center;overflow=width;vsdxID=37;rotation=270;fillColor=#d5e8d4;gradientColor=none;shape=stencil(zZLNDsIgEISfZo82lDWtnGt9jyalQkRoKPXn7YVsjFWTmnrR2wzMR7LLAFaDanoJnA3Bu4M86zYowC1wrq2SXoeoAGvAqnNe7r0bbUu+b1IyqaM7pRcuxLFEcHYllzPyO4oabSdRLDLxlF4hEyIryyVIvo7IRvwauQ/6PTG7qrdwsXSE/ySQf/jw2R1F8ahhp42hFk/vX2sbj6jyWN8A);strokeColor=#82b366;strokeWidth=4;spacingTop=-3;spacingBottom=-3;spacingLeft=-3;spacingRight=-3;flipH=1;flipV=1;points=[];labelBackgroundColor=none;rounded=0;html=1;whiteSpace=wrap;fontStyle=1" vertex="1" parent="1">
            <mxGeometry x="3023" y="466" width="84" height="1" as="geometry" />
          </mxCell>
        </UserObject>
        <UserObject label="&lt;div style=&quot;font-size: 1px&quot;&gt;&lt;font style=&quot;font-size:11.64px;font-family:helvetica;color:#000000;direction:ltr;letter-spacing:0px;line-height:120%;opacity:1&quot;&gt;&lt;br&gt;&lt;/font&gt;&lt;font style=&quot;font-size:11.64px;font-family:Helvetica;color:#000000;direction:ltr;letter-spacing:0px;line-height:120%;opacity:1&quot;&gt;&lt;br&gt;&lt;/font&gt;&lt;/div&gt;" tags="Background" id="0N5C-bSlOZF7z8Y1nU8M-250">
          <mxCell style="verticalAlign=middle;align=center;overflow=width;vsdxID=38;rotation=270;fillColor=#d5e8d4;gradientColor=none;shape=stencil(zZLNDsIgEISfZo82lDWtnGt9jyalQkRoKPXn7YVsjFWTmnrR2wzMR7LLAFaDanoJnA3Bu4M86zYowC1wrq2SXoeoAGvAqnNe7r0bbUu+b1IyqaM7pRcuxLFEcHYllzPyO4oabSdRLDLxlF4hEyIryyVIvo7IRvwauQ/6PTG7qrdwsXSE/ySQf/jw2R1F8ahhp42hFk/vX2sbj6jyWN8A);strokeColor=#82b366;strokeWidth=4;spacingTop=-3;spacingBottom=-3;spacingLeft=-3;spacingRight=-3;flipH=1;flipV=1;points=[];labelBackgroundColor=none;rounded=0;html=1;whiteSpace=wrap;fontStyle=1" vertex="1" parent="1">
            <mxGeometry x="3023" y="155" width="84" height="1" as="geometry" />
          </mxCell>
        </UserObject>
        <UserObject label="&lt;div style=&quot;font-size: 1px&quot;&gt;&lt;font style=&quot;font-size:11.64px;font-family:helvetica;color:#000000;direction:ltr;letter-spacing:0px;line-height:120%;opacity:1&quot;&gt;&lt;br&gt;&lt;/font&gt;&lt;font style=&quot;font-size:11.64px;font-family:Helvetica;color:#000000;direction:ltr;letter-spacing:0px;line-height:120%;opacity:1&quot;&gt;&lt;br&gt;&lt;/font&gt;&lt;/div&gt;" tags="Background" id="0N5C-bSlOZF7z8Y1nU8M-251">
          <mxCell style="verticalAlign=middle;align=center;overflow=width;vsdxID=40;rotation=270;fillColor=#bdd7ee;gradientColor=none;shape=stencil(zZLNDsIgEISfZo82lDWtnGt9jyalQkRoKPXn7YVsjFWTmnrR2wzMR7LLAFaDanoJnA3Bu4M86zYowC1wrq2SXoeoAGvAqnNe7r0bbUu+b1IyqaM7pRcuxLFEcHYllzPyO4oabSdRLDLxlF4hEyIryyVIvo7IRvwauQ/6PTG7qrdwsXSE/ySQf/jw2R1F8ahhp42hFk/vX2sbj6jyWN8A);strokeColor=#0070c0;strokeWidth=4;spacingTop=-3;spacingBottom=-3;spacingLeft=-3;spacingRight=-3;flipH=1;flipV=1;points=[];labelBackgroundColor=none;rounded=0;html=1;whiteSpace=wrap;fontStyle=1" vertex="1" parent="1">
            <mxGeometry x="2121" y="1048" width="84" height="1" as="geometry" />
          </mxCell>
        </UserObject>
        <UserObject label="&lt;div style=&quot;font-size: 1px&quot;&gt;&lt;font style=&quot;font-size:11.64px;font-family:helvetica;color:#000000;direction:ltr;letter-spacing:0px;line-height:120%;opacity:1&quot;&gt;&lt;br&gt;&lt;/font&gt;&lt;font style=&quot;font-size:11.64px;font-family:Helvetica;color:#000000;direction:ltr;letter-spacing:0px;line-height:120%;opacity:1&quot;&gt;&lt;br&gt;&lt;/font&gt;&lt;/div&gt;" tags="Background" id="0N5C-bSlOZF7z8Y1nU8M-252">
          <mxCell style="verticalAlign=middle;align=center;overflow=width;vsdxID=41;rotation=270;fillColor=#ffe6cc;gradientColor=none;shape=stencil(zZLNDsIgEISfZo82lDWtnGt9jyalQkRoKPXn7YVsjFWTmnrR2wzMR7LLAFaDanoJnA3Bu4M86zYowC1wrq2SXoeoAGvAqnNe7r0bbUu+b1IyqaM7pRcuxLFEcHYllzPyO4oabSdRLDLxlF4hEyIryyVIvo7IRvwauQ/6PTG7qrdwsXSE/ySQf/jw2R1F8ahhp42hFk/vX2sbj6jyWN8A);strokeColor=#ED7D31;strokeWidth=4;spacingTop=-3;spacingBottom=-3;spacingLeft=-3;spacingRight=-3;flipH=1;flipV=1;points=[];labelBackgroundColor=none;rounded=0;html=1;whiteSpace=wrap;fontStyle=1" vertex="1" parent="1">
            <mxGeometry x="2573" y="1048" width="84" height="1" as="geometry" />
          </mxCell>
        </UserObject>
        <UserObject label="&lt;div style=&quot;font-size: 1px&quot;&gt;&lt;font style=&quot;font-size:11.64px;font-family:helvetica;color:#000000;direction:ltr;letter-spacing:0px;line-height:120%;opacity:1&quot;&gt;&lt;br&gt;&lt;/font&gt;&lt;font style=&quot;font-size:11.64px;font-family:Helvetica;color:#000000;direction:ltr;letter-spacing:0px;line-height:120%;opacity:1&quot;&gt;&lt;br&gt;&lt;/font&gt;&lt;/div&gt;" tags="Background" id="0N5C-bSlOZF7z8Y1nU8M-253">
          <mxCell style="verticalAlign=middle;align=center;overflow=width;vsdxID=42;rotation=270;fillColor=#d5e8d4;gradientColor=none;shape=stencil(zZLNDsIgEISfZo82lDWtnGt9jyalQkRoKPXn7YVsjFWTmnrR2wzMR7LLAFaDanoJnA3Bu4M86zYowC1wrq2SXoeoAGvAqnNe7r0bbUu+b1IyqaM7pRcuxLFEcHYllzPyO4oabSdRLDLxlF4hEyIryyVIvo7IRvwauQ/6PTG7qrdwsXSE/ySQf/jw2R1F8ahhp42hFk/vX2sbj6jyWN8A);strokeColor=#82b366;strokeWidth=4;spacingTop=-3;spacingBottom=-3;spacingLeft=-3;spacingRight=-3;flipH=1;flipV=1;points=[];labelBackgroundColor=none;rounded=0;html=1;whiteSpace=wrap;fontStyle=1" vertex="1" parent="1">
            <mxGeometry x="3023" y="1048" width="84" height="1" as="geometry" />
          </mxCell>
        </UserObject>
        <UserObject label="&lt;div style=&quot;font-size: 1px&quot;&gt;&lt;font style=&quot;font-size:38.8px;font-family:simsun;color:#000000;direction:ltr;letter-spacing:0px;line-height:120%;opacity:1&quot;&gt;模型安全性度量研究&lt;/font&gt;&lt;font style=&quot;font-size:11.64px;font-family:helvetica;color:#000000;direction:ltr;letter-spacing:0px;line-height:120%;opacity:1&quot;&gt;&lt;br&gt;&lt;/font&gt;&lt;font style=&quot;font-size:11.64px;font-family:Helvetica;color:#000000;direction:ltr;letter-spacing:0px;line-height:120%;opacity:1&quot;&gt;&lt;br&gt;&lt;/font&gt;&lt;/div&gt;" tags="Background" id="0N5C-bSlOZF7z8Y1nU8M-257">
          <mxCell style="verticalAlign=middle;align=center;overflow=width;vsdxID=21;fillColor=none;gradientColor=none;shape=stencil(nZBLDoAgDERP0z3SIyjew0SURgSD+Lu9kMZoXLhwN9O+tukAlrNpJg1SzDH4QW/URgNYgZTkjA4UkwJUgGXng+6DX1zLfmoymdXo17xh5zmRJ6Q42BWCfc2oJfdAr+Yv+AP9Cb7OJ3H/2JG1HNGz/84klThPVCc=);strokeColor=none;spacingTop=-3;spacingBottom=-3;spacingLeft=-3;spacingRight=-3;points=[];labelBackgroundColor=none;rounded=0;html=1;whiteSpace=wrap;fontStyle=1" vertex="1" parent="1">
            <mxGeometry x="2047.25" y="663" width="227.5" height="97" as="geometry" />
          </mxCell>
        </UserObject>
        <UserObject label="&lt;div style=&quot;font-size: 1px&quot;&gt;&lt;font style=&quot;font-size:38.8px;font-family:宋体;color:#000000;direction:ltr;letter-spacing:0px;line-height:120%;opacity:1&quot;&gt;模型安全评估平台建设&lt;/font&gt;&lt;font style=&quot;font-size:11.64px;font-family:helvetica;color:#000000;direction:ltr;letter-spacing:0px;line-height:120%;opacity:1&quot;&gt;&lt;br&gt;&lt;/font&gt;&lt;font style=&quot;font-size:11.64px;font-family:Helvetica;color:#000000;direction:ltr;letter-spacing:0px;line-height:120%;opacity:1&quot;&gt;&lt;br&gt;&lt;/font&gt;&lt;/div&gt;" tags="Background" id="0N5C-bSlOZF7z8Y1nU8M-258">
          <mxCell style="verticalAlign=middle;align=center;overflow=width;vsdxID=22;fillColor=none;gradientColor=none;shape=stencil(nZBLDoAgDERP0z3SIyjew0SURgSD+Lu9kMZoXLhwN9O+tukAlrNpJg1SzDH4QW/URgNYgZTkjA4UkwJUgGXng+6DX1zLfmoymdXo17xh5zmRJ6Q42BWCfc2oJfdAr+Yv+AP9Cb7OJ3H/2JG1HNGz/84klThPVCc=);strokeColor=none;spacingTop=-3;spacingBottom=-3;spacingLeft=-3;spacingRight=-3;points=[];labelBackgroundColor=none;rounded=0;html=1;whiteSpace=wrap;fontStyle=1" vertex="1" parent="1">
            <mxGeometry x="2053.25" y="841" width="221.5" height="97" as="geometry" />
          </mxCell>
        </UserObject>
        <UserObject label="&lt;div style=&quot;font-size: 1px&quot;&gt;&lt;font style=&quot;font-size:38.8px;font-family:宋体;color:#000000;direction:ltr;letter-spacing:0px;line-height:120%;opacity:1&quot;&gt;模型网络意识形态审查&lt;/font&gt;&lt;font style=&quot;font-size:11.64px;font-family:helvetica;color:#000000;direction:ltr;letter-spacing:0px;line-height:120%;opacity:1&quot;&gt;&lt;br&gt;&lt;/font&gt;&lt;font style=&quot;font-size:11.64px;font-family:Helvetica;color:#000000;direction:ltr;letter-spacing:0px;line-height:120%;opacity:1&quot;&gt;&lt;br&gt;&lt;/font&gt;&lt;/div&gt;" tags="Background" id="0N5C-bSlOZF7z8Y1nU8M-259">
          <mxCell style="verticalAlign=middle;align=center;overflow=width;vsdxID=23;fillColor=none;gradientColor=none;shape=stencil(nZBLDoAgDERP0z3SIyjew0SURgSD+Lu9kMZoXLhwN9O+tukAlrNpJg1SzDH4QW/URgNYgZTkjA4UkwJUgGXng+6DX1zLfmoymdXo17xh5zmRJ6Q42BWCfc2oJfdAr+Yv+AP9Cb7OJ3H/2JG1HNGz/84klThPVCc=);strokeColor=none;spacingTop=-3;spacingBottom=-3;spacingLeft=-3;spacingRight=-3;points=[];labelBackgroundColor=none;rounded=0;html=1;whiteSpace=wrap;fontStyle=1" vertex="1" parent="1">
            <mxGeometry x="2505.25" y="665" width="221.5" height="93" as="geometry" />
          </mxCell>
        </UserObject>
        <UserObject label="&lt;div style=&quot;font-size: 1px&quot;&gt;&lt;font style=&quot;font-size:38.8px;font-family:宋体;color:#000000;direction:ltr;letter-spacing:0px;line-height:120%;opacity:1&quot;&gt;模型人类价值观对齐&lt;/font&gt;&lt;font style=&quot;font-size:11.64px;font-family:helvetica;color:#000000;direction:ltr;letter-spacing:0px;line-height:120%;opacity:1&quot;&gt;&lt;br&gt;&lt;/font&gt;&lt;font style=&quot;font-size:11.64px;font-family:Helvetica;color:#000000;direction:ltr;letter-spacing:0px;line-height:120%;opacity:1&quot;&gt;&lt;br&gt;&lt;/font&gt;&lt;/div&gt;" tags="Background" id="0N5C-bSlOZF7z8Y1nU8M-260">
          <mxCell style="verticalAlign=middle;align=center;overflow=width;vsdxID=24;fillColor=none;gradientColor=none;shape=stencil(nZBLDoAgDERP0z3SIyjew0SURgSD+Lu9kMZoXLhwN9O+tukAlrNpJg1SzDH4QW/URgNYgZTkjA4UkwJUgGXng+6DX1zLfmoymdXo17xh5zmRJ6Q42BWCfc2oJfdAr+Yv+AP9Cb7OJ3H/2JG1HNGz/84klThPVCc=);strokeColor=none;spacingTop=-3;spacingBottom=-3;spacingLeft=-3;spacingRight=-3;points=[];labelBackgroundColor=none;rounded=0;html=1;whiteSpace=wrap;fontStyle=1" vertex="1" parent="1">
            <mxGeometry x="2502.75" y="841" width="226.5" height="97" as="geometry" />
          </mxCell>
        </UserObject>
        <UserObject label="&lt;div style=&quot;font-size: 1px&quot;&gt;&lt;font style=&quot;font-size:38.8px;font-family:宋体;color:#000000;direction:ltr;letter-spacing:0px;line-height:120%;opacity:1&quot;&gt;模型训练数据审查&lt;/font&gt;&lt;font style=&quot;font-size:11.64px;font-family:helvetica;color:#000000;direction:ltr;letter-spacing:0px;line-height:120%;opacity:1&quot;&gt;&lt;br&gt;&lt;/font&gt;&lt;font style=&quot;font-size:11.64px;font-family:Helvetica;color:#000000;direction:ltr;letter-spacing:0px;line-height:120%;opacity:1&quot;&gt;&lt;br&gt;&lt;/font&gt;&lt;/div&gt;" tags="Background" id="0N5C-bSlOZF7z8Y1nU8M-261">
          <mxCell style="verticalAlign=middle;align=center;overflow=width;vsdxID=25;fillColor=none;gradientColor=none;shape=stencil(nZBLDoAgDERP0z3SIyjew0SURgSD+Lu9kMZoXLhwN9O+tukAlrNpJg1SzDH4QW/URgNYgZTkjA4UkwJUgGXng+6DX1zLfmoymdXo17xh5zmRJ6Q42BWCfc2oJfdAr+Yv+AP9Cb7OJ3H/2JG1HNGz/84klThPVCc=);strokeColor=none;spacingTop=-3;spacingBottom=-3;spacingLeft=-3;spacingRight=-3;points=[];labelBackgroundColor=none;rounded=0;html=1;whiteSpace=wrap;fontStyle=1" vertex="1" parent="1">
            <mxGeometry x="2949.37" y="665" width="233.25" height="93" as="geometry" />
          </mxCell>
        </UserObject>
        <UserObject label="&lt;div style=&quot;font-size: 1px&quot;&gt;&lt;font style=&quot;font-size:38.8px;font-family:宋体;color:#000000;direction:ltr;letter-spacing:0px;line-height:120%;opacity:1&quot;&gt;模型后门检测&lt;/font&gt;&lt;font style=&quot;font-size:11.64px;font-family:helvetica;color:#000000;direction:ltr;letter-spacing:0px;line-height:120%;opacity:1&quot;&gt;&lt;br&gt;&lt;/font&gt;&lt;font style=&quot;font-size:11.64px;font-family:Helvetica;color:#000000;direction:ltr;letter-spacing:0px;line-height:120%;opacity:1&quot;&gt;&lt;br&gt;&lt;/font&gt;&lt;/div&gt;" tags="Background" id="0N5C-bSlOZF7z8Y1nU8M-262">
          <mxCell style="verticalAlign=middle;align=center;overflow=width;vsdxID=26;fillColor=none;gradientColor=none;shape=stencil(nZBLDoAgDERP0z3SIyjew0SURgSD+Lu9kMZoXLhwN9O+tukAlrNpJg1SzDH4QW/URgNYgZTkjA4UkwJUgGXng+6DX1zLfmoymdXo17xh5zmRJ6Q42BWCfc2oJfdAr+Yv+AP9Cb7OJ3H/2JG1HNGz/84klThPVCc=);strokeColor=none;spacingTop=-3;spacingBottom=-3;spacingLeft=-3;spacingRight=-3;points=[];labelBackgroundColor=none;rounded=0;html=1;whiteSpace=wrap;fontStyle=1" vertex="1" parent="1">
            <mxGeometry x="2922" y="861" width="288" height="67" as="geometry" />
          </mxCell>
        </UserObject>
        <UserObject label="" tags="Background" id="0N5C-bSlOZF7z8Y1nU8M-305">
          <mxCell style="vsdxID=36;fillColor=none;gradientColor=none;shape=stencil(rVTLcoMwDPwaH6PxE9vnNP2PTEIKUwoZQhry9zVj85CY0h5ys8WKXa0sMbW/FcdrziS/dW3zmT/Kc1cw9cakLOsib8sunJg6MLW/NG3+0Tb3+hzv1+OAHE5fzffwhz7mCT6kSP4cr/H+HrFVWS+w/mXY072NIkRCG9A+JYwhD87FUC+nkBcJNYbUlNgrTMWfKeAMGPe70hmf7hq03BIbEkBgsYKDMSux3GGxGTgs1VsQDovVwO0fTklHyEEpwi0hI9y7oFkTduLT/7u5gRQvQdKq7VTiWPRu6sFYtAarcc3BGPI2JDhD/RabzebgM8wcuqgxc9CSmjZThwdhMTdxe/XMsDvYnNUTXsvkxKAwGUZRh6YhW0xURseH6Nya8u3tEQ7z2rmUVRW31vI7XVMhFFecOvwA);strokeColor=#82b366;strokeWidth=4;spacingTop=-3;spacingBottom=-3;spacingLeft=-3;spacingRight=-3;points=[];labelBackgroundColor=none;rounded=0;html=1;whiteSpace=wrap;fontStyle=1" vertex="1" parent="1">
            <mxGeometry x="2932" y="1616.5" width="380" height="200" as="geometry" />
          </mxCell>
        </UserObject>
        <UserObject label="" tags="Background" id="0N5C-bSlOZF7z8Y1nU8M-306">
          <mxCell style="vsdxID=30;fillColor=none;gradientColor=none;shape=stencil(rVTLcoMwDPwaH6PxE9vnNP2PTEIKUwoZQhry9zVj85CY0h5ys8WKXa0sMbW/FcdrziS/dW3zmT/Kc1cw9cakLOsib8sunJg6MLW/NG3+0Tb3+hzv1+OAHE5fzffwhz7mCT6kSP4cr/H+HrFVWS+w/mXY072NIkRCG9A+JYwhD87FUC+nkBcJNYbUlNgrTMWfKeAMGPe70hmf7hq03BIbEkBgsYKDMSux3GGxGTgs1VsQDovVwO0fTklHyEEpwi0hI9y7oFkTduLT/7u5gRQvQdKq7VTiWPRu6sFYtAarcc3BGPI2JDhD/RabzebgM8wcuqgxc9CSmjZThwdhMTdxe/XMsDvYnNUTXsvkxKAwGUZRh6YhW0xURseH6Nya8u3tEQ7z2rmUVRW31vI7XVMhFFecOvwA);strokeColor=#ED7D31;strokeWidth=4;spacingTop=-3;spacingBottom=-3;spacingLeft=-3;spacingRight=-3;points=[];labelBackgroundColor=none;rounded=0;html=1;whiteSpace=wrap;fontStyle=1" vertex="1" parent="1">
            <mxGeometry x="2482" y="1616.5" width="380" height="200" as="geometry" />
          </mxCell>
        </UserObject>
        <UserObject label="" tags="Background" id="0N5C-bSlOZF7z8Y1nU8M-307">
          <mxCell style="vsdxID=34;fillColor=none;gradientColor=none;shape=stencil(rVRBcoMwDHyNj9XYsrHxOU3/kWlIYUoh45A2+X3tMRQkprSH3CyxZlcrS0LvLvXhXAmUlyH079VXcxxqoZ8FYtPVVWiGeBJ6L/Tu1IfqLfTX7pjj8yEh0+mj/0x/uOV7SqYrKO9TmOOXjG2bboH1D8O+XkMWoUZ0AcaPF6aUB1/k1A3nlBpRU8oBmhGlKZW8jwmvofS/K53xObag1JbWiAdFtRowbiVVllQqQllSpVG8KqlWBQ7/MAqZURIKy8gRLCN/kiAtY2c2/b+ZG0j1ECSv2oHWtOhUj6FVG3CGFh2d8bTm2INiZbjZopbgLaVG8JQ4aXGUOT4I1mtmNn9k1Btqzer9rjVKZk8aC8vt+ZmwxTgxlYrJ3Bzx7dURD/POOTVtm1fW8jvfUTGV95vefwM=);strokeColor=#82b366;strokeWidth=4;spacingTop=-3;spacingBottom=-3;spacingLeft=-3;spacingRight=-3;points=[];labelBackgroundColor=none;rounded=0;html=1;whiteSpace=wrap;fontStyle=1" vertex="1" parent="1">
            <mxGeometry x="2932" y="1925.5" width="380" height="472" as="geometry" />
          </mxCell>
        </UserObject>
        <UserObject label="" tags="Background" id="0N5C-bSlOZF7z8Y1nU8M-308">
          <mxCell style="vsdxID=28;fillColor=none;gradientColor=none;shape=stencil(rVRBcoMwDHyNj9XYsrHxOU3/kWlIYUoh45A2+X3tMRQkprSH3CyxZlcrS0LvLvXhXAmUlyH079VXcxxqoZ8FYtPVVWiGeBJ6L/Tu1IfqLfTX7pjj8yEh0+mj/0x/uOV7SqYrKO9TmOOXjG2bboH1D8O+XkMWoUZ0AcaPF6aUB1/k1A3nlBpRU8oBmhGlKZW8jwmvofS/K53xObag1JbWiAdFtRowbiVVllQqQllSpVG8KqlWBQ7/MAqZURIKy8gRLCN/kiAtY2c2/b+ZG0j1ECSv2oHWtOhUj6FVG3CGFh2d8bTm2INiZbjZopbgLaVG8JQ4aXGUOT4I1mtmNn9k1Btqzer9rjVKZk8aC8vt+ZmwxTgxlYrJ3Bzx7dURD/POOTVtm1fW8jvfUTGV95vefwM=);strokeColor=#ED7D31;strokeWidth=4;spacingTop=-3;spacingBottom=-3;spacingLeft=-3;spacingRight=-3;points=[];labelBackgroundColor=none;rounded=0;html=1;whiteSpace=wrap;fontStyle=1" vertex="1" parent="1">
            <mxGeometry x="2482" y="1925.5" width="380" height="472" as="geometry" />
          </mxCell>
        </UserObject>
        <UserObject label="" tags="Background" id="0N5C-bSlOZF7z8Y1nU8M-309">
          <mxCell style="vsdxID=11;fillColor=none;gradientColor=none;shape=stencil(rVTLcsIwDPwaH6uRbMePM4X/YEpoMk0TJoQW/r5OnQdWaXLhJskr70qWJdTmXOxPuZB47trmI/8uD10h1KuQsqyLvC27YAm1FWpzbNr8vW0u9SH6p32P7K3P5qu/4RrzNNg+R+It+oT46+8iuCrrO7DPQNMT4W+XNmqhIcGCV0PCGPLgXAxd5RTyo+gxhGCzAaVSKrwNAetB6//FzvjoSwlol8SGBECmlgzQX7WZTNUSAhPrHWQ+lWtAqZVeGZOySyDDyMMtPiV/QSDJ2DNAl7Ivv+qEXgUHrH4OltevpsGlqTCktHwJmrVegjJp8QTaCtZ5s0QcHo+/OoLTKTOmtDTeOdGy4QzChgF42Jp0NK0DT8sS+WCGD6I9bw6x5vR/jQ3mvB7Yt3ooc2WZBGNeQ8eyquIWuz/nayuE4spT2x8=);dashed=1;dashPattern=4.00 2.00;strokeColor=#002060;strokeWidth=4;spacingTop=-3;spacingBottom=-3;spacingLeft=-3;spacingRight=-3;points=[];labelBackgroundColor=none;rounded=0;html=1;whiteSpace=wrap;fontStyle=1" vertex="1" parent="1">
            <mxGeometry x="1938" y="1593.5" width="1402" height="246" as="geometry" />
          </mxCell>
        </UserObject>
        <UserObject label="" tags="Background" id="0N5C-bSlOZF7z8Y1nU8M-310">
          <mxCell style="vsdxID=12;fillColor=none;gradientColor=none;shape=stencil(rVTLcsMgDPwajtUAAgznNP2PTOPUnrpxxnHa5O+Lix+R3NiX3EBeeZdlkcDNudidcqHluW3qz/yn3LeFwFehdXks8qZs40rgVuDmUDf5R1Nfjvu0P+06ZLf6qr+7P1xTn4Gs69HylvZKyr/9WwJX5fEOHCwY9UT4+6VJWlTfkEHAvmEoBQgmla56Kg2i9ciEAwoplbz1BR/AmcdiJ3y/V6D0ktjYAJKp9aDsTKzVVKwFHajW4MEGqhZBhRWrnKPkCmRg5A4wUPKXKNoxdgvSU/blSx3Rq+CINc/B8vPjmFs1HUzR42swzHo1uDrFBEwmmPOIS8wSLLv1GHNHmSWl9YDMc5bNGDb0j62hyYxBpuC5Qp7LeGl6Zo5i5nTvCqnMaTqwV/WvzJVZEhfTFDqUVZWG2P13PrViKU083P4C);dashed=1;dashPattern=4.00 2.00;strokeColor=#002060;strokeWidth=4;spacingTop=-3;spacingBottom=-3;spacingLeft=-3;spacingRight=-3;points=[];labelBackgroundColor=none;rounded=0;html=1;whiteSpace=wrap;fontStyle=1" vertex="1" parent="1">
            <mxGeometry x="1938" y="1901.5" width="1402" height="520" as="geometry" />
          </mxCell>
        </UserObject>
        <UserObject label="" tags="Background" id="0N5C-bSlOZF7z8Y1nU8M-311">
          <mxCell style="vsdxID=39;fillColor=#d5e8d4;gradientColor=none;shape=stencil(rVTbUoMwEP0aHt3Jbu7Ptf5Hx1JhxNKhVMvfGwwIGwZGHd+Sw1nO2Us2k7trcbjkGYlr29Sv+Ud5bItMPmZE5bnIm7INp0zuM7k71U3+0tS38zHeL4ee2Z/e6vf+D/cYZ0BgH0SiiwAK8XV/iuyqPM/YHsHpf6Q/35poBocAA3IMGCEP3kfoTguoGyEJxg4syaVENwBOgzPrZif+cFeAastsCAA03C0KkLhw+50TjUXXmpv1FqzndiW4TflQq/4rUwekRFyBMFz8QQC5RH3WpwH6VVc3yIv5+jM3zV+B4tmHxITl6dPkdECQZ45giSdO4O2WrADtuK4Cr7hs70RxXQtGculkOsPkKFqvDZ9N50cXqy7RJu9IA2FaHWu5yzCrySua9SR5Vz9rYcIOh2kTncqqiots/j3dXAGKW0/uPwE=);strokeColor=#82b366;strokeWidth=4;spacingTop=-3;spacingBottom=-3;spacingLeft=-3;spacingRight=-3;points=[];labelBackgroundColor=none;rounded=0;html=1;whiteSpace=wrap;fontStyle=1" vertex="1" parent="1">
            <mxGeometry x="2963" y="2231.5" width="324" height="149" as="geometry" />
          </mxCell>
        </UserObject>
        <UserObject label="" tags="Background" id="0N5C-bSlOZF7z8Y1nU8M-312">
          <mxCell style="vsdxID=35;fillColor=#d5e8d4;gradientColor=none;shape=stencil(rVTbUoMwEP0aHt3Jbu7Ptf5Hx1JhxNKhVMvfGwwIGwZGHd+Sw1nO2Us2k7trcbjkGYlr29Sv+Ud5bItMPmZE5bnIm7INp0zuM7k71U3+0tS38zHeL4ee2Z/e6vf+D/cYZ0BgH0SiiwAK8XV/iuyqPM/YHsHpf6Q/35poBocAA3IMGCEP3kfoTguoGyEJxg4syaVENwBOgzPrZif+cFeAastsCAA03C0KkLhw+50TjUXXmpv1FqzndiW4TflQq/4rUwekRFyBMFz8QQC5RH3WpwH6VVc3yIv5+jM3zV+B4tmHxITl6dPkdECQZ45giSdO4O2WrADtuK4Cr7hs70RxXQtGculkOsPkKFqvDZ9N50cXqy7RJu9IA2FaHWu5yzCrySua9SR5Vz9rYcIOh2kTncqqiots/j3dXAGKW0/uPwE=);strokeColor=#82b366;strokeWidth=4;spacingTop=-3;spacingBottom=-3;spacingLeft=-3;spacingRight=-3;points=[];labelBackgroundColor=none;rounded=0;html=1;whiteSpace=wrap;fontStyle=1" vertex="1" parent="1">
            <mxGeometry x="2962" y="2053.5" width="324" height="149" as="geometry" />
          </mxCell>
        </UserObject>
        <UserObject label="" tags="Background" id="0N5C-bSlOZF7z8Y1nU8M-313">
          <mxCell style="vsdxID=32;fillColor=#FBE5D5;gradientColor=none;shape=stencil(rVTbUoMwEP0aHt3Jbu7Ptf5Hx1JhxNKhVMvfGwwIGwZGHd+Sw1nO2Us2k7trcbjkGYlr29Sv+Ud5bItMPmZE5bnIm7INp0zuM7k71U3+0tS38zHeL4ee2Z/e6vf+D/cYZ0BgH0SiiwAK8XV/iuyqPM/YHsHpf6Q/35poBocAA3IMGCEP3kfoTguoGyEJxg4syaVENwBOgzPrZif+cFeAastsCAA03C0KkLhw+50TjUXXmpv1FqzndiW4TflQq/4rUwekRFyBMFz8QQC5RH3WpwH6VVc3yIv5+jM3zV+B4tmHxITl6dPkdECQZ45giSdO4O2WrADtuK4Cr7hs70RxXQtGculkOsPkKFqvDZ9N50cXqy7RJu9IA2FaHWu5yzCrySua9SR5Vz9rYcIOh2kTncqqiots/j3dXAGKW0/uPwE=);strokeColor=#ED7D31;strokeWidth=4;spacingTop=-3;spacingBottom=-3;spacingLeft=-3;spacingRight=-3;points=[];labelBackgroundColor=none;rounded=0;html=1;whiteSpace=wrap;fontStyle=1" vertex="1" parent="1">
            <mxGeometry x="2513" y="2231.5" width="324" height="149" as="geometry" />
          </mxCell>
        </UserObject>
        <UserObject label="" tags="Background" id="0N5C-bSlOZF7z8Y1nU8M-314">
          <mxCell style="vsdxID=29;fillColor=#FBE5D5;gradientColor=none;shape=stencil(rVTbUoMwEP0aHt3Jbu7Ptf5Hx1JhxNKhVMvfGwwIGwZGHd+Sw1nO2Us2k7trcbjkGYlr29Sv+Ud5bItMPmZE5bnIm7INp0zuM7k71U3+0tS38zHeL4ee2Z/e6vf+D/cYZ0BgH0SiiwAK8XV/iuyqPM/YHsHpf6Q/35poBocAA3IMGCEP3kfoTguoGyEJxg4syaVENwBOgzPrZif+cFeAastsCAA03C0KkLhw+50TjUXXmpv1FqzndiW4TflQq/4rUwekRFyBMFz8QQC5RH3WpwH6VVc3yIv5+jM3zV+B4tmHxITl6dPkdECQZ45giSdO4O2WrADtuK4Cr7hs70RxXQtGculkOsPkKFqvDZ9N50cXqy7RJu9IA2FaHWu5yzCrySua9SR5Vz9rYcIOh2kTncqqiots/j3dXAGKW0/uPwE=);strokeColor=#ED7D31;strokeWidth=4;spacingTop=-3;spacingBottom=-3;spacingLeft=-3;spacingRight=-3;points=[];labelBackgroundColor=none;rounded=0;html=1;whiteSpace=wrap;fontStyle=1" vertex="1" parent="1">
            <mxGeometry x="2512" y="2053.5" width="324" height="149" as="geometry" />
          </mxCell>
        </UserObject>
        <UserObject label="" tags="Background" id="0N5C-bSlOZF7z8Y1nU8M-315">
          <mxCell style="vsdxID=27;fillColor=#deebf6;gradientColor=none;shape=stencil(rVTbUoMwEP0aHt3Jbu7Ptf5Hx1JhxNKhVMvfGwwIGwZGHd+Sw1nO2Us2k7trcbjkGYlr29Sv+Ud5bItMPmZE5bnIm7INp0zuM7k71U3+0tS38zHeL4ee2Z/e6vf+D/cYZ0BgH0SiiwAK8XV/iuyqPM/YHsHpf6Q/35poBocAA3IMGCEP3kfoTguoGyEJxg4syaVENwBOgzPrZif+cFeAastsCAA03C0KkLhw+50TjUXXmpv1FqzndiW4TflQq/4rUwekRFyBMFz8QQC5RH3WpwH6VVc3yIv5+jM3zV+B4tmHxITl6dPkdECQZ45giSdO4O2WrADtuK4Cr7hs70RxXQtGculkOsPkKFqvDZ9N50cXqy7RJu9IA2FaHWu5yzCrySua9SR5Vz9rYcIOh2kTncqqiots/j3dXAGKW0/uPwE=);strokeColor=#2e75b5;strokeWidth=4;spacingTop=-3;spacingBottom=-3;spacingLeft=-3;spacingRight=-3;points=[];labelBackgroundColor=none;rounded=0;html=1;whiteSpace=wrap;fontStyle=1" vertex="1" parent="1">
            <mxGeometry x="2060" y="2053.5" width="324" height="149" as="geometry" />
          </mxCell>
        </UserObject>
        <UserObject label="" tags="Background" id="0N5C-bSlOZF7z8Y1nU8M-316">
          <mxCell style="vsdxID=1;fillColor=none;gradientColor=none;shape=stencil(rVTLcoMwDPwaH6PxE9vnNP2PTEIKUwoZQhry9zVj85CY0h5ys8WKXa0sMbW/FcdrziS/dW3zmT/Kc1cw9cakLOsib8sunJg6MLW/NG3+0Tb3+hzv1+OAHE5fzffwhz7mCT6kSP4cr/H+HrFVWS+w/mXY072NIkRCG9A+JYwhD87FUC+nkBcJNYbUlNgrTMWfKeAMGPe70hmf7hq03BIbEkBgsYKDMSux3GGxGTgs1VsQDovVwO0fTklHyEEpwi0hI9y7oFkTduLT/7u5gRQvQdKq7VTiWPRu6sFYtAarcc3BGPI2JDhD/RabzebgM8wcuqgxc9CSmjZThwdhMTdxe/XMsDvYnNUTXsvkxKAwGUZRh6YhW0xURseH6Nya8u3tEQ7z2rmUVRW31vI7XVMhFFecOvwA);strokeColor=#2e75b5;strokeWidth=4;spacingTop=-3;spacingBottom=-3;spacingLeft=-3;spacingRight=-3;points=[];labelBackgroundColor=none;rounded=0;html=1;whiteSpace=wrap;fontStyle=1" vertex="1" parent="1">
            <mxGeometry x="2030" y="1616.5" width="380" height="200" as="geometry" />
          </mxCell>
        </UserObject>
        <UserObject label="&lt;div style=&quot;font-size: 1px&quot;&gt;&lt;font style=&quot;font-size:11.64px;font-family:Helvetica;color:#000000;direction:ltr;letter-spacing:0px;line-height:120%;opacity:1&quot;&gt;&lt;font style=&quot;border-color: var(--border-color); letter-spacing: 0px; font-size: 38.8px; font-family: 宋体; direction: ltr; line-height: 46.56px; opacity: 1;&quot;&gt;对环境中多模态传感信号综合感知难的问题&lt;/font&gt;&lt;font style=&quot;border-color: var(--border-color); letter-spacing: 0px; font-size: 11.64px; font-family: helvetica; direction: ltr; line-height: 13.968px; opacity: 1;&quot;&gt;&lt;br style=&quot;border-color: var(--border-color);&quot;&gt;&lt;/font&gt;&lt;/font&gt;&lt;/div&gt;" tags="Background" id="0N5C-bSlOZF7z8Y1nU8M-317">
          <mxCell style="verticalAlign=middle;align=center;overflow=width;vsdxID=2;fillColor=none;gradientColor=none;shape=stencil(nZBLDoAgDERP0z3SIyjew0SURgSD+Lu9kMZoXLhwN9O+tukAlrNpJg1SzDH4QW/URgNYgZTkjA4UkwJUgGXng+6DX1zLfmoymdXo17xh5zmRJ6Q42BWCfc2oJfdAr+Yv+AP9Cb7OJ3H/2JG1HNGz/84klThPVCc=);strokeColor=none;spacingTop=-3;spacingBottom=-3;spacingLeft=-3;spacingRight=-3;points=[];labelBackgroundColor=none;rounded=0;html=1;whiteSpace=wrap;fontStyle=1" vertex="1" parent="1">
            <mxGeometry x="2056.12" y="1644.25" width="327.75" height="144.5" as="geometry" />
          </mxCell>
        </UserObject>
        <UserObject label="" tags="Background" id="0N5C-bSlOZF7z8Y1nU8M-318">
          <mxCell style="vsdxID=3;fillColor=none;gradientColor=none;shape=stencil(rVRBcoMwDHyNj9XYsrHxOU3/kWlIYUoh45A2+X3tMRQkprSH3CyxZlcrS0LvLvXhXAmUlyH079VXcxxqoZ8FYtPVVWiGeBJ6L/Tu1IfqLfTX7pjj8yEh0+mj/0x/uOV7SqYrKO9TmOOXjG2bboH1D8O+XkMWoUZ0AcaPF6aUB1/k1A3nlBpRU8oBmhGlKZW8jwmvofS/K53xObag1JbWiAdFtRowbiVVllQqQllSpVG8KqlWBQ7/MAqZURIKy8gRLCN/kiAtY2c2/b+ZG0j1ECSv2oHWtOhUj6FVG3CGFh2d8bTm2INiZbjZopbgLaVG8JQ4aXGUOT4I1mtmNn9k1Btqzer9rjVKZk8aC8vt+ZmwxTgxlYrJ3Bzx7dURD/POOTVtm1fW8jvfUTGV95vefwM=);strokeColor=#2e75b5;strokeWidth=4;spacingTop=-3;spacingBottom=-3;spacingLeft=-3;spacingRight=-3;points=[];labelBackgroundColor=none;rounded=0;html=1;whiteSpace=wrap;fontStyle=1" vertex="1" parent="1">
            <mxGeometry x="2030" y="1925.5" width="380" height="472" as="geometry" />
          </mxCell>
        </UserObject>
        <UserObject label="&lt;div style=&quot;font-size: 1px&quot;&gt;&lt;font style=&quot;font-size: 11.64px; color: rgb(0, 0, 0); direction: ltr; letter-spacing: 0px; line-height: 120%; opacity: 1;&quot;&gt;&lt;font style=&quot;border-color: var(--border-color); letter-spacing: 0px; font-size: 38.8px; direction: ltr; line-height: 46.56px; opacity: 1;&quot;&gt;基于多模态识别与定位的具身感知&lt;br style=&quot;border-color: var(--border-color);&quot;&gt;&lt;/font&gt;&lt;font style=&quot;border-color: var(--border-color); letter-spacing: 0px; font-size: 11.64px; direction: ltr; line-height: 13.968px; opacity: 1;&quot;&gt;&lt;br style=&quot;border-color: var(--border-color);&quot;&gt;&lt;/font&gt;&lt;/font&gt;&lt;/div&gt;" tags="Background" id="0N5C-bSlOZF7z8Y1nU8M-319">
          <mxCell style="verticalAlign=middle;align=center;overflow=width;vsdxID=4;fillColor=none;gradientColor=none;shape=stencil(nZBLDoAgDERP0z3SIyjew0SURgSD+Lu9kMZoXLhwN9O+tukAlrNpJg1SzDH4QW/URgNYgZTkjA4UkwJUgGXng+6DX1zLfmoymdXo17xh5zmRJ6Q42BWCfc2oJfdAr+Yv+AP9Cb7OJ3H/2JG1HNGz/84klThPVCc=);strokeColor=none;spacingTop=-3;spacingBottom=-3;spacingLeft=-3;spacingRight=-3;points=[];labelBackgroundColor=none;rounded=0;html=1;whiteSpace=wrap;fontStyle=1;fontFamily=黑体;" vertex="1" parent="1">
            <mxGeometry x="2054.5" y="1941.5" width="335" height="100" as="geometry" />
          </mxCell>
        </UserObject>
        <UserObject label="&lt;div style=&quot;font-size: 1px&quot;&gt;&lt;font style=&quot;font-size: 38.8px; color: rgb(0, 0, 0); direction: ltr; letter-spacing: 0px; line-height: 120%; opacity: 1;&quot;&gt;基于多模态理解与推理的具身规划&lt;br&gt;&lt;/font&gt;&lt;font style=&quot;font-size: 11.64px; color: rgb(0, 0, 0); direction: ltr; letter-spacing: 0px; line-height: 120%; opacity: 1;&quot;&gt;&lt;br&gt;&lt;/font&gt;&lt;font style=&quot;font-size: 11.64px; color: rgb(0, 0, 0); direction: ltr; letter-spacing: 0px; line-height: 120%; opacity: 1;&quot;&gt;&lt;br&gt;&lt;/font&gt;&lt;/div&gt;" tags="Background" id="0N5C-bSlOZF7z8Y1nU8M-320">
          <mxCell style="verticalAlign=middle;align=center;overflow=width;vsdxID=5;fillColor=none;gradientColor=none;shape=stencil(nZBLDoAgDERP0z3SIyjew0SURgSD+Lu9kMZoXLhwN9O+tukAlrNpJg1SzDH4QW/URgNYgZTkjA4UkwJUgGXng+6DX1zLfmoymdXo17xh5zmRJ6Q42BWCfc2oJfdAr+Yv+AP9Cb7OJ3H/2JG1HNGz/84klThPVCc=);strokeColor=none;spacingTop=-3;spacingBottom=-3;spacingLeft=-3;spacingRight=-3;points=[];labelBackgroundColor=none;rounded=0;html=1;whiteSpace=wrap;fontStyle=1;fontFamily=黑体;" vertex="1" parent="1">
            <mxGeometry x="2519.5" y="1943" width="311" height="100" as="geometry" />
          </mxCell>
        </UserObject>
        <UserObject label="&lt;div style=&quot;font-size: 1px&quot;&gt;&lt;font style=&quot;font-size: 38.8px; color: rgb(0, 0, 0); direction: ltr; letter-spacing: 0px; line-height: 120%; opacity: 1;&quot;&gt;人机交互融合智能&lt;br&gt;&lt;/font&gt;&lt;font style=&quot;font-size: 11.64px; color: rgb(0, 0, 0); direction: ltr; letter-spacing: 0px; line-height: 120%; opacity: 1;&quot;&gt;&lt;br&gt;&lt;/font&gt;&lt;font style=&quot;font-size: 11.64px; color: rgb(0, 0, 0); direction: ltr; letter-spacing: 0px; line-height: 120%; opacity: 1;&quot;&gt;&lt;br&gt;&lt;/font&gt;&lt;/div&gt;" tags="Background" id="0N5C-bSlOZF7z8Y1nU8M-321">
          <mxCell style="verticalAlign=middle;align=center;overflow=width;vsdxID=6;fillColor=none;gradientColor=none;shape=stencil(nZBLDoAgDERP0z3SIyjew0SURgSD+Lu9kMZoXLhwN9O+tukAlrNpJg1SzDH4QW/URgNYgZTkjA4UkwJUgGXng+6DX1zLfmoymdXo17xh5zmRJ6Q42BWCfc2oJfdAr+Yv+AP9Cb7OJ3H/2JG1HNGz/84klThPVCc=);strokeColor=none;spacingTop=-3;spacingBottom=-3;spacingLeft=-3;spacingRight=-3;points=[];labelBackgroundColor=none;rounded=0;html=1;whiteSpace=wrap;fontStyle=1;fontFamily=黑体;" vertex="1" parent="1">
            <mxGeometry x="2956.5" y="1964.5" width="337" height="50" as="geometry" />
          </mxCell>
        </UserObject>
        <UserObject label="" tags="Background" id="0N5C-bSlOZF7z8Y1nU8M-322">
          <mxCell style="vsdxID=7;fillColor=none;gradientColor=none;shape=stencil(rVRdc4MgEPw1PvYG7kDhOU3+R6Yx1amNGWNa8++LBT84R6ft9A3WPXdvD0hodyuO1zxBcWub+i3/LE9tkdBzglheirwpW7dKaJ/Q7lw3+WtT3y8nv78ee2a/eq8/+j90vg7B2L4IxcMDUojv/cGzq/IyY9sU0uwf6S/3xpuRocCADvwBsZAGgx2OkDWBFaDMgApCHcVK4hEAjYB63evE93uVQaa3vLoCEDJ2SxoELdyOGQTIhZ4xt44lVOxX0sBaD0sxfTX9eJDPQKex/JMAZOqzOQXoV1PdIC/O15+5vH0EiXH3fWMmbl8CsfAJrI27F2CIRS/ByC3tSWjQlm7MbPLOjkAmLoBY9uyUKufYrEcUn1FtIMVNn7FJI0EtA4otjvdgMDibCrtaPxsiY7vF9Bady6ryT9n8O3+7HOTfPdp/AQ==);strokeColor=#c00000;strokeWidth=4;spacingTop=-3;spacingBottom=-3;spacingLeft=-3;spacingRight=-3;points=[];labelBackgroundColor=none;rounded=0;html=1;whiteSpace=wrap;fontStyle=1;fontFamily=黑体;" vertex="1" parent="1">
            <mxGeometry x="1937" y="1446.5" width="1404" height="82" as="geometry" />
          </mxCell>
        </UserObject>
        <UserObject label="&lt;div style=&quot;font-size: 1px&quot;&gt;&lt;font style=&quot;font-size: 11.64px; color: rgb(0, 0, 0); direction: ltr; letter-spacing: 0px; line-height: 120%; opacity: 1;&quot;&gt;&lt;font style=&quot;border-color: var(--border-color); letter-spacing: 0px; font-size: 38.8px; direction: ltr; line-height: 46.56px; opacity: 1;&quot;&gt;研究目标&lt;/font&gt;&lt;font style=&quot;border-color: var(--border-color); letter-spacing: 0px; font-size: 38.8px; direction: ltr; line-height: 46.56px; opacity: 1;&quot;&gt;：&lt;/font&gt;&lt;font style=&quot;border-color: var(--border-color); letter-spacing: 0px; font-size: 38.8px; direction: ltr; line-height: 46.56px; opacity: 1;&quot;&gt;构造感知、认知、决策类脑跨模态语言智能模型&lt;/font&gt;&lt;font style=&quot;border-color: var(--border-color); letter-spacing: 0px; font-size: 38.8px; direction: ltr; line-height: 46.56px; opacity: 1;&quot;&gt;&lt;br style=&quot;border-color: var(--border-color);&quot;&gt;&lt;/font&gt;&lt;font style=&quot;border-color: var(--border-color); letter-spacing: 0px; font-size: 38.8px; direction: ltr; line-height: 46.56px; opacity: 1;&quot;&gt;&lt;br style=&quot;border-color: var(--border-color);&quot;&gt;&lt;/font&gt;&lt;font style=&quot;border-color: var(--border-color); letter-spacing: 0px; font-size: 11.64px; direction: ltr; line-height: 13.968px; opacity: 1;&quot;&gt;&lt;br style=&quot;border-color: var(--border-color);&quot;&gt;&lt;/font&gt;&lt;/font&gt;&lt;/div&gt;" tags="Background" id="0N5C-bSlOZF7z8Y1nU8M-323">
          <mxCell style="verticalAlign=middle;align=center;overflow=width;vsdxID=8;fillColor=none;gradientColor=none;shape=stencil(nZBLDoAgDERP0z3SIyjew0SURgSD+Lu9kMZoXLhwN9O+tukAlrNpJg1SzDH4QW/URgNYgZTkjA4UkwJUgGXng+6DX1zLfmoymdXo17xh5zmRJ6Q42BWCfc2oJfdAr+Yv+AP9Cb7OJ3H/2JG1HNGz/84klThPVCc=);strokeColor=none;spacingTop=-3;spacingBottom=-3;spacingLeft=-3;spacingRight=-3;points=[];labelBackgroundColor=none;rounded=0;html=1;whiteSpace=wrap;fontStyle=1;fontFamily=黑体;" vertex="1" parent="1">
            <mxGeometry x="1974" y="1464" width="1330" height="49" as="geometry" />
          </mxCell>
        </UserObject>
        <UserObject label="&lt;div style=&quot;font-size: 1px&quot;&gt;&lt;font style=&quot;font-size: 38.8px; color: rgb(0, 0, 0); direction: ltr; letter-spacing: 0px; line-height: 120%; opacity: 1;&quot;&gt;研&lt;br&gt;&lt;/font&gt;&lt;font style=&quot;font-size: 38.8px; color: rgb(0, 0, 0); direction: ltr; letter-spacing: 0px; line-height: 120%; opacity: 1;&quot;&gt;究&lt;br&gt;&lt;/font&gt;&lt;font style=&quot;font-size: 38.8px; color: rgb(0, 0, 0); direction: ltr; letter-spacing: 0px; line-height: 120%; opacity: 1;&quot;&gt;内&lt;br&gt;&lt;/font&gt;&lt;font style=&quot;font-size: 38.8px; color: rgb(0, 0, 0); direction: ltr; letter-spacing: 0px; line-height: 120%; opacity: 1;&quot;&gt;容&lt;br&gt;&lt;/font&gt;&lt;font style=&quot;font-size: 11.64px; color: rgb(0, 0, 0); direction: ltr; letter-spacing: 0px; line-height: 120%; opacity: 1;&quot;&gt;&lt;br&gt;&lt;/font&gt;&lt;font style=&quot;font-size: 11.64px; color: rgb(0, 0, 0); direction: ltr; letter-spacing: 0px; line-height: 120%; opacity: 1;&quot;&gt;&lt;br&gt;&lt;/font&gt;&lt;/div&gt;" tags="Background" id="0N5C-bSlOZF7z8Y1nU8M-324">
          <mxCell style="verticalAlign=middle;align=center;overflow=width;vsdxID=9;fillColor=none;gradientColor=none;shape=stencil(nZBLDoAgDERP0z3SIyjew0SURgSD+Lu9kMZoXLhwN9O+tukAlrNpJg1SzDH4QW/URgNYgZTkjA4UkwJUgGXng+6DX1zLfmoymdXo17xh5zmRJ6Q42BWCfc2oJfdAr+Yv+AP9Cb7OJ3H/2JG1HNGz/84klThPVCc=);strokeColor=none;spacingTop=-3;spacingBottom=-3;spacingLeft=-3;spacingRight=-3;points=[];labelBackgroundColor=none;rounded=0;html=1;whiteSpace=wrap;fontStyle=1;fontFamily=黑体;" vertex="1" parent="1">
            <mxGeometry x="1928" y="2059.5" width="109" height="207" as="geometry" />
          </mxCell>
        </UserObject>
        <UserObject label="&lt;div style=&quot;font-size: 1px&quot;&gt;&lt;font style=&quot;font-size: 38.8px; color: rgb(0, 0, 0); direction: ltr; letter-spacing: 0px; line-height: 120%; opacity: 1;&quot;&gt;关&lt;br&gt;&lt;/font&gt;&lt;font style=&quot;font-size: 38.8px; color: rgb(0, 0, 0); direction: ltr; letter-spacing: 0px; line-height: 120%; opacity: 1;&quot;&gt;键&lt;br&gt;&lt;/font&gt;&lt;font style=&quot;font-size: 38.8px; color: rgb(0, 0, 0); direction: ltr; letter-spacing: 0px; line-height: 120%; opacity: 1;&quot;&gt;问&lt;br&gt;&lt;/font&gt;&lt;font style=&quot;font-size: 38.8px; color: rgb(0, 0, 0); direction: ltr; letter-spacing: 0px; line-height: 120%; opacity: 1;&quot;&gt;题&lt;br&gt;&lt;/font&gt;&lt;font style=&quot;font-size: 11.64px; color: rgb(0, 0, 0); direction: ltr; letter-spacing: 0px; line-height: 120%; opacity: 1;&quot;&gt;&lt;br&gt;&lt;/font&gt;&lt;font style=&quot;font-size: 11.64px; color: rgb(0, 0, 0); direction: ltr; letter-spacing: 0px; line-height: 120%; opacity: 1;&quot;&gt;&lt;br&gt;&lt;/font&gt;&lt;/div&gt;" tags="Background" id="0N5C-bSlOZF7z8Y1nU8M-325">
          <mxCell style="verticalAlign=middle;align=center;overflow=width;vsdxID=10;fillColor=none;gradientColor=none;shape=stencil(nZBLDoAgDERP0z3SIyjew0SURgSD+Lu9kMZoXLhwN9O+tukAlrNpJg1SzDH4QW/URgNYgZTkjA4UkwJUgGXng+6DX1zLfmoymdXo17xh5zmRJ6Q42BWCfc2oJfdAr+Yv+AP9Cb7OJ3H/2JG1HNGz/84klThPVCc=);strokeColor=none;spacingTop=-3;spacingBottom=-3;spacingLeft=-3;spacingRight=-3;points=[];labelBackgroundColor=none;rounded=0;html=1;whiteSpace=wrap;fontStyle=1;fontFamily=黑体;" vertex="1" parent="1">
            <mxGeometry x="1928" y="1627.5" width="109" height="205" as="geometry" />
          </mxCell>
        </UserObject>
        <UserObject label="&lt;div style=&quot;font-size: 1px&quot;&gt;&lt;font style=&quot;font-size:11.64px;font-family:helvetica;color:#000000;direction:ltr;letter-spacing:0px;line-height:120%;opacity:1&quot;&gt;&lt;br&gt;&lt;/font&gt;&lt;font style=&quot;font-size:11.64px;font-family:Helvetica;color:#000000;direction:ltr;letter-spacing:0px;line-height:120%;opacity:1&quot;&gt;&lt;br&gt;&lt;/font&gt;&lt;/div&gt;" tags="Background" id="0N5C-bSlOZF7z8Y1nU8M-326">
          <mxCell style="verticalAlign=middle;align=center;overflow=width;vsdxID=13;rotation=270;fillColor=#bdd7ee;gradientColor=none;shape=stencil(zZLNDsIgEISfZo82lDWtnGt9jyalQkRoKPXn7YVsjFWTmnrR2wzMR7LLAFaDanoJnA3Bu4M86zYowC1wrq2SXoeoAGvAqnNe7r0bbUu+b1IyqaM7pRcuxLFEcHYllzPyO4oabSdRLDLxlF4hEyIryyVIvo7IRvwauQ/6PTG7qrdwsXSE/ySQf/jw2R1F8ahhp42hFk/vX2sbj6jyWN8A);strokeColor=#0070c0;strokeWidth=4;spacingTop=-3;spacingBottom=-3;spacingLeft=-3;spacingRight=-3;flipH=1;flipV=1;points=[];labelBackgroundColor=none;rounded=0;html=1;whiteSpace=wrap;fontStyle=1" vertex="1" parent="1">
            <mxGeometry x="2180" y="1882.5" width="84" height="1" as="geometry" />
          </mxCell>
        </UserObject>
        <UserObject label="" tags="Background" id="0N5C-bSlOZF7z8Y1nU8M-327">
          <mxCell style="vsdxID=1410000;fillColor=none;gradientColor=none;strokeColor=none;spacingTop=-3;spacingBottom=-3;spacingLeft=-3;spacingRight=-3;points=[];labelBackgroundColor=none;rounded=0;html=1;whiteSpace=wrap;fontStyle=1;fontFamily=黑体;" vertex="1" parent="1">
            <mxGeometry x="1879" y="2509.5" width="1569" height="82" as="geometry" />
          </mxCell>
        </UserObject>
        <mxCell id="0N5C-bSlOZF7z8Y1nU8M-328" style="vsdxID=15;fillColor=none;gradientColor=none;shape=stencil(rVRdc4MgEPw1PvYG7kDhOU3+R6Yx1amNGWNa8++LBT84R6ft9A3WPXdvD0hodyuO1zxBcWub+i3/LE9tkdBzglheirwpW7dKaJ/Q7lw3+WtT3y8nv78ee2a/eq8/+j90vg7B2L4IxcMDUojv/cGzq/IyY9sU0uwf6S/3xpuRocCADvwBsZAGgx2OkDWBFaDMgApCHcVK4hEAjYB63evE93uVQaa3vLoCEDJ2SxoELdyOGQTIhZ4xt44lVOxX0sBaD0sxfTX9eJDPQKex/JMAZOqzOQXoV1PdIC/O15+5vH0EiXH3fWMmbl8CsfAJrI27F2CIRS/ByC3tSWjQlm7MbPLOjkAmLoBY9uyUKufYrEcUn1FtIMVNn7FJI0EtA4otjvdgMDibCrtaPxsiY7vF9Bady6ryT9n8O3+7HOTfPdp/AQ==);strokeColor=#c00000;strokeWidth=4;spacingTop=-3;spacingBottom=-3;spacingLeft=-3;spacingRight=-3;points=[];labelBackgroundColor=none;rounded=0;html=1;whiteSpace=wrap;fontStyle=1;fontFamily=黑体;" vertex="1" parent="0N5C-bSlOZF7z8Y1nU8M-327">
          <mxGeometry x="54" width="1407" height="82" as="geometry" />
        </mxCell>
        <mxCell id="0N5C-bSlOZF7z8Y1nU8M-329" value="&lt;div style=&quot;font-size: 1px&quot;&gt;&lt;font style=&quot;font-size: 11.64px; color: rgb(0, 0, 0); direction: ltr; letter-spacing: 0px; line-height: 120%; opacity: 1;&quot;&gt;&lt;font style=&quot;border-color: var(--border-color); letter-spacing: 0px; font-size: 38.8px; direction: ltr; line-height: 46.56px; opacity: 1;&quot;&gt;基础技术：认知建模、情境感知学习、类脑计算、协作学习等&lt;br style=&quot;border-color: var(--border-color);&quot;&gt;&lt;/font&gt;&lt;font style=&quot;border-color: var(--border-color); letter-spacing: 0px; font-size: 11.64px; direction: ltr; line-height: 13.968px; opacity: 1;&quot;&gt;&lt;br style=&quot;border-color: var(--border-color);&quot;&gt;&lt;/font&gt;&lt;/font&gt;&lt;/div&gt;" style="verticalAlign=middle;align=center;overflow=width;vsdxID=16;fillColor=none;gradientColor=none;shape=stencil(nZBLDoAgDERP0z3SIyjew0SURgSD+Lu9kMZoXLhwN9O+tukAlrNpJg1SzDH4QW/URgNYgZTkjA4UkwJUgGXng+6DX1zLfmoymdXo17xh5zmRJ6Q42BWCfc2oJfdAr+Yv+AP9Cb7OJ3H/2JG1HNGz/84klThPVCc=);strokeColor=none;spacingTop=-3;spacingBottom=-3;spacingLeft=-3;spacingRight=-3;points=[];labelBackgroundColor=none;rounded=0;html=1;whiteSpace=wrap;fontStyle=1;fontFamily=黑体;" vertex="1" parent="0N5C-bSlOZF7z8Y1nU8M-327">
          <mxGeometry x="-22" y="12" width="1591" height="70" as="geometry" />
        </mxCell>
        <UserObject label="&lt;div style=&quot;font-size: 1px&quot;&gt;&lt;font style=&quot;font-size:11.64px;font-family:helvetica;color:#000000;direction:ltr;letter-spacing:0px;line-height:120%;opacity:1&quot;&gt;&lt;br&gt;&lt;/font&gt;&lt;font style=&quot;font-size:11.64px;font-family:Helvetica;color:#000000;direction:ltr;letter-spacing:0px;line-height:120%;opacity:1&quot;&gt;&lt;br&gt;&lt;/font&gt;&lt;/div&gt;" tags="Background" id="0N5C-bSlOZF7z8Y1nU8M-330">
          <mxCell style="verticalAlign=middle;align=center;overflow=width;vsdxID=17;rotation=270;fillColor=#bdd7ee;gradientColor=none;shape=stencil(zZLNDsIgEISfZo82lDWtnGt9jyalQkRoKPXn7YVsjFWTmnrR2wzMR7LLAFaDanoJnA3Bu4M86zYowC1wrq2SXoeoAGvAqnNe7r0bbUu+b1IyqaM7pRcuxLFEcHYllzPyO4oabSdRLDLxlF4hEyIryyVIvo7IRvwauQ/6PTG7qrdwsXSE/ySQf/jw2R1F8ahhp42hFk/vX2sbj6jyWN8A);strokeColor=#0070c0;strokeWidth=4;spacingTop=-3;spacingBottom=-3;spacingLeft=-3;spacingRight=-3;flipH=1;flipV=1;points=[];labelBackgroundColor=none;rounded=0;html=1;whiteSpace=wrap;fontStyle=1" vertex="1" parent="1">
            <mxGeometry x="2180" y="1571.5" width="84" height="1" as="geometry" />
          </mxCell>
        </UserObject>
        <UserObject label="&lt;div style=&quot;font-size: 1px&quot;&gt;&lt;font style=&quot;font-size:11.64px;font-family:Helvetica;color:#000000;direction:ltr;letter-spacing:0px;line-height:120%;opacity:1&quot;&gt;&lt;font style=&quot;border-color: var(--border-color); letter-spacing: 0px; font-size: 38.8px; font-family: 宋体; direction: ltr; line-height: 46.56px; opacity: 1;&quot;&gt;对复杂未见任务规划难的问题&lt;/font&gt;&lt;font style=&quot;border-color: var(--border-color); letter-spacing: 0px; font-size: 11.64px; font-family: helvetica; direction: ltr; line-height: 13.968px; opacity: 1;&quot;&gt;&lt;br style=&quot;border-color: var(--border-color);&quot;&gt;&lt;/font&gt;&lt;/font&gt;&lt;/div&gt;" tags="Background" id="0N5C-bSlOZF7z8Y1nU8M-331">
          <mxCell style="verticalAlign=middle;align=center;overflow=width;vsdxID=18;fillColor=none;gradientColor=none;shape=stencil(nZBLDoAgDERP0z3SIyjew0SURgSD+Lu9kMZoXLhwN9O+tukAlrNpJg1SzDH4QW/URgNYgZTkjA4UkwJUgGXng+6DX1zLfmoymdXo17xh5zmRJ6Q42BWCfc2oJfdAr+Yv+AP9Cb7OJ3H/2JG1HNGz/84klThPVCc=);strokeColor=none;spacingTop=-3;spacingBottom=-3;spacingLeft=-3;spacingRight=-3;points=[];labelBackgroundColor=none;rounded=0;html=1;whiteSpace=wrap;fontStyle=1" vertex="1" parent="1">
            <mxGeometry x="2494.75" y="1665.5" width="345.25" height="102" as="geometry" />
          </mxCell>
        </UserObject>
        <UserObject label="&lt;div style=&quot;font-size: 1px&quot;&gt;&lt;font style=&quot;font-size:11.64px;font-family:Helvetica;color:#000000;direction:ltr;letter-spacing:0px;line-height:120%;opacity:1&quot;&gt;&lt;font style=&quot;border-color: var(--border-color); letter-spacing: 0px; font-size: 38.8px; font-family: 宋体; direction: ltr; line-height: 46.56px; opacity: 1;&quot;&gt;人机多源异质数据的对齐和融合困难的问题&lt;/font&gt;&lt;font style=&quot;border-color: var(--border-color); letter-spacing: 0px; font-size: 11.64px; font-family: helvetica; direction: ltr; line-height: 13.968px; opacity: 1;&quot;&gt;&lt;br style=&quot;border-color: var(--border-color);&quot;&gt;&lt;/font&gt;&lt;/font&gt;&lt;/div&gt;" tags="Background" id="0N5C-bSlOZF7z8Y1nU8M-332">
          <mxCell style="verticalAlign=middle;align=center;overflow=width;vsdxID=19;fillColor=none;gradientColor=none;shape=stencil(nZBLDoAgDERP0z3SIyjew0SURgSD+Lu9kMZoXLhwN9O+tukAlrNpJg1SzDH4QW/URgNYgZTkjA4UkwJUgGXng+6DX1zLfmoymdXo17xh5zmRJ6Q42BWCfc2oJfdAr+Yv+AP9Cb7OJ3H/2JG1HNGz/84klThPVCc=);strokeColor=none;spacingTop=-3;spacingBottom=-3;spacingLeft=-3;spacingRight=-3;points=[];labelBackgroundColor=none;rounded=0;html=1;whiteSpace=wrap;fontStyle=1" vertex="1" parent="1">
            <mxGeometry x="2960.5" y="1650.5" width="323" height="134.5" as="geometry" />
          </mxCell>
        </UserObject>
        <UserObject label="" tags="Background" id="0N5C-bSlOZF7z8Y1nU8M-333">
          <mxCell style="vsdxID=20;fillColor=#deebf6;gradientColor=none;shape=stencil(rVTbUoMwEP0aHt3Jbu7Ptf5Hx1JhxNKhVMvfGwwIGwZGHd+Sw1nO2Us2k7trcbjkGYlr29Sv+Ud5bItMPmZE5bnIm7INp0zuM7k71U3+0tS38zHeL4ee2Z/e6vf+D/cYZ0BgH0SiiwAK8XV/iuyqPM/YHsHpf6Q/35poBocAA3IMGCEP3kfoTguoGyEJxg4syaVENwBOgzPrZif+cFeAastsCAA03C0KkLhw+50TjUXXmpv1FqzndiW4TflQq/4rUwekRFyBMFz8QQC5RH3WpwH6VVc3yIv5+jM3zV+B4tmHxITl6dPkdECQZ45giSdO4O2WrADtuK4Cr7hs70RxXQtGculkOsPkKFqvDZ9N50cXqy7RJu9IA2FaHWu5yzCrySua9SR5Vz9rYcIOh2kTncqqiots/j3dXAGKW0/uPwE=);strokeColor=#2e75b5;strokeWidth=4;spacingTop=-3;spacingBottom=-3;spacingLeft=-3;spacingRight=-3;points=[];labelBackgroundColor=none;rounded=0;html=1;whiteSpace=wrap;fontStyle=1" vertex="1" parent="1">
            <mxGeometry x="2061" y="2231.5" width="324" height="149" as="geometry" />
          </mxCell>
        </UserObject>
        <UserObject label="&lt;div style=&quot;font-size: 1px&quot;&gt;&lt;font style=&quot;font-size:11.64px;font-family:helvetica;color:#000000;direction:ltr;letter-spacing:0px;line-height:120%;opacity:1&quot;&gt;&lt;br&gt;&lt;/font&gt;&lt;font style=&quot;font-size:11.64px;font-family:Helvetica;color:#000000;direction:ltr;letter-spacing:0px;line-height:120%;opacity:1&quot;&gt;&lt;br&gt;&lt;/font&gt;&lt;/div&gt;" tags="Background" id="0N5C-bSlOZF7z8Y1nU8M-334">
          <mxCell style="verticalAlign=middle;align=center;overflow=width;vsdxID=31;rotation=270;fillColor=#ffe6cc;gradientColor=none;shape=stencil(zZLNDsIgEISfZo82lDWtnGt9jyalQkRoKPXn7YVsjFWTmnrR2wzMR7LLAFaDanoJnA3Bu4M86zYowC1wrq2SXoeoAGvAqnNe7r0bbUu+b1IyqaM7pRcuxLFEcHYllzPyO4oabSdRLDLxlF4hEyIryyVIvo7IRvwauQ/6PTG7qrdwsXSE/ySQf/jw2R1F8ahhp42hFk/vX2sbj6jyWN8A);strokeColor=#ED7D31;strokeWidth=4;spacingTop=-3;spacingBottom=-3;spacingLeft=-3;spacingRight=-3;flipH=1;flipV=1;points=[];labelBackgroundColor=none;rounded=0;html=1;whiteSpace=wrap;fontStyle=1" vertex="1" parent="1">
            <mxGeometry x="2632" y="1571.5" width="84" height="1" as="geometry" />
          </mxCell>
        </UserObject>
        <UserObject label="&lt;div style=&quot;font-size: 1px&quot;&gt;&lt;font style=&quot;font-size:11.64px;font-family:helvetica;color:#000000;direction:ltr;letter-spacing:0px;line-height:120%;opacity:1&quot;&gt;&lt;br&gt;&lt;/font&gt;&lt;font style=&quot;font-size:11.64px;font-family:Helvetica;color:#000000;direction:ltr;letter-spacing:0px;line-height:120%;opacity:1&quot;&gt;&lt;br&gt;&lt;/font&gt;&lt;/div&gt;" tags="Background" id="0N5C-bSlOZF7z8Y1nU8M-335">
          <mxCell style="verticalAlign=middle;align=center;overflow=width;vsdxID=33;rotation=270;fillColor=#ffe6cc;gradientColor=none;shape=stencil(zZLNDsIgEISfZo82lDWtnGt9jyalQkRoKPXn7YVsjFWTmnrR2wzMR7LLAFaDanoJnA3Bu4M86zYowC1wrq2SXoeoAGvAqnNe7r0bbUu+b1IyqaM7pRcuxLFEcHYllzPyO4oabSdRLDLxlF4hEyIryyVIvo7IRvwauQ/6PTG7qrdwsXSE/ySQf/jw2R1F8ahhp42hFk/vX2sbj6jyWN8A);strokeColor=#ED7D31;strokeWidth=4;spacingTop=-3;spacingBottom=-3;spacingLeft=-3;spacingRight=-3;flipH=1;flipV=1;points=[];labelBackgroundColor=none;rounded=0;html=1;whiteSpace=wrap;fontStyle=1" vertex="1" parent="1">
            <mxGeometry x="2633" y="1882.5" width="84" height="1" as="geometry" />
          </mxCell>
        </UserObject>
        <UserObject label="&lt;div style=&quot;font-size: 1px&quot;&gt;&lt;font style=&quot;font-size:11.64px;font-family:helvetica;color:#000000;direction:ltr;letter-spacing:0px;line-height:120%;opacity:1&quot;&gt;&lt;br&gt;&lt;/font&gt;&lt;font style=&quot;font-size:11.64px;font-family:Helvetica;color:#000000;direction:ltr;letter-spacing:0px;line-height:120%;opacity:1&quot;&gt;&lt;br&gt;&lt;/font&gt;&lt;/div&gt;" tags="Background" id="0N5C-bSlOZF7z8Y1nU8M-336">
          <mxCell style="verticalAlign=middle;align=center;overflow=width;vsdxID=37;rotation=270;fillColor=#d5e8d4;gradientColor=none;shape=stencil(zZLNDsIgEISfZo82lDWtnGt9jyalQkRoKPXn7YVsjFWTmnrR2wzMR7LLAFaDanoJnA3Bu4M86zYowC1wrq2SXoeoAGvAqnNe7r0bbUu+b1IyqaM7pRcuxLFEcHYllzPyO4oabSdRLDLxlF4hEyIryyVIvo7IRvwauQ/6PTG7qrdwsXSE/ySQf/jw2R1F8ahhp42hFk/vX2sbj6jyWN8A);strokeColor=#82b366;strokeWidth=4;spacingTop=-3;spacingBottom=-3;spacingLeft=-3;spacingRight=-3;flipH=1;flipV=1;points=[];labelBackgroundColor=none;rounded=0;html=1;whiteSpace=wrap;fontStyle=1" vertex="1" parent="1">
            <mxGeometry x="3082" y="1882.5" width="84" height="1" as="geometry" />
          </mxCell>
        </UserObject>
        <UserObject label="&lt;div style=&quot;font-size: 1px&quot;&gt;&lt;font style=&quot;font-size:11.64px;font-family:helvetica;color:#000000;direction:ltr;letter-spacing:0px;line-height:120%;opacity:1&quot;&gt;&lt;br&gt;&lt;/font&gt;&lt;font style=&quot;font-size:11.64px;font-family:Helvetica;color:#000000;direction:ltr;letter-spacing:0px;line-height:120%;opacity:1&quot;&gt;&lt;br&gt;&lt;/font&gt;&lt;/div&gt;" tags="Background" id="0N5C-bSlOZF7z8Y1nU8M-337">
          <mxCell style="verticalAlign=middle;align=center;overflow=width;vsdxID=38;rotation=270;fillColor=#d5e8d4;gradientColor=none;shape=stencil(zZLNDsIgEISfZo82lDWtnGt9jyalQkRoKPXn7YVsjFWTmnrR2wzMR7LLAFaDanoJnA3Bu4M86zYowC1wrq2SXoeoAGvAqnNe7r0bbUu+b1IyqaM7pRcuxLFEcHYllzPyO4oabSdRLDLxlF4hEyIryyVIvo7IRvwauQ/6PTG7qrdwsXSE/ySQf/jw2R1F8ahhp42hFk/vX2sbj6jyWN8A);strokeColor=#82b366;strokeWidth=4;spacingTop=-3;spacingBottom=-3;spacingLeft=-3;spacingRight=-3;flipH=1;flipV=1;points=[];labelBackgroundColor=none;rounded=0;html=1;whiteSpace=wrap;fontStyle=1" vertex="1" parent="1">
            <mxGeometry x="3082" y="1571.5" width="84" height="1" as="geometry" />
          </mxCell>
        </UserObject>
        <UserObject label="&lt;div style=&quot;font-size: 1px&quot;&gt;&lt;font style=&quot;font-size:11.64px;font-family:helvetica;color:#000000;direction:ltr;letter-spacing:0px;line-height:120%;opacity:1&quot;&gt;&lt;br&gt;&lt;/font&gt;&lt;font style=&quot;font-size:11.64px;font-family:Helvetica;color:#000000;direction:ltr;letter-spacing:0px;line-height:120%;opacity:1&quot;&gt;&lt;br&gt;&lt;/font&gt;&lt;/div&gt;" tags="Background" id="0N5C-bSlOZF7z8Y1nU8M-338">
          <mxCell style="verticalAlign=middle;align=center;overflow=width;vsdxID=40;rotation=270;fillColor=#bdd7ee;gradientColor=none;shape=stencil(zZLNDsIgEISfZo82lDWtnGt9jyalQkRoKPXn7YVsjFWTmnrR2wzMR7LLAFaDanoJnA3Bu4M86zYowC1wrq2SXoeoAGvAqnNe7r0bbUu+b1IyqaM7pRcuxLFEcHYllzPyO4oabSdRLDLxlF4hEyIryyVIvo7IRvwauQ/6PTG7qrdwsXSE/ySQf/jw2R1F8ahhp42hFk/vX2sbj6jyWN8A);strokeColor=#0070c0;strokeWidth=4;spacingTop=-3;spacingBottom=-3;spacingLeft=-3;spacingRight=-3;flipH=1;flipV=1;points=[];labelBackgroundColor=none;rounded=0;html=1;whiteSpace=wrap;fontStyle=1" vertex="1" parent="1">
            <mxGeometry x="2180" y="2464.5" width="84" height="1" as="geometry" />
          </mxCell>
        </UserObject>
        <UserObject label="&lt;div style=&quot;font-size: 1px&quot;&gt;&lt;font style=&quot;font-size:11.64px;font-family:helvetica;color:#000000;direction:ltr;letter-spacing:0px;line-height:120%;opacity:1&quot;&gt;&lt;br&gt;&lt;/font&gt;&lt;font style=&quot;font-size:11.64px;font-family:Helvetica;color:#000000;direction:ltr;letter-spacing:0px;line-height:120%;opacity:1&quot;&gt;&lt;br&gt;&lt;/font&gt;&lt;/div&gt;" tags="Background" id="0N5C-bSlOZF7z8Y1nU8M-339">
          <mxCell style="verticalAlign=middle;align=center;overflow=width;vsdxID=41;rotation=270;fillColor=#ffe6cc;gradientColor=none;shape=stencil(zZLNDsIgEISfZo82lDWtnGt9jyalQkRoKPXn7YVsjFWTmnrR2wzMR7LLAFaDanoJnA3Bu4M86zYowC1wrq2SXoeoAGvAqnNe7r0bbUu+b1IyqaM7pRcuxLFEcHYllzPyO4oabSdRLDLxlF4hEyIryyVIvo7IRvwauQ/6PTG7qrdwsXSE/ySQf/jw2R1F8ahhp42hFk/vX2sbj6jyWN8A);strokeColor=#ED7D31;strokeWidth=4;spacingTop=-3;spacingBottom=-3;spacingLeft=-3;spacingRight=-3;flipH=1;flipV=1;points=[];labelBackgroundColor=none;rounded=0;html=1;whiteSpace=wrap;fontStyle=1" vertex="1" parent="1">
            <mxGeometry x="2632" y="2464.5" width="84" height="1" as="geometry" />
          </mxCell>
        </UserObject>
        <UserObject label="&lt;div style=&quot;font-size: 1px&quot;&gt;&lt;font style=&quot;font-size:11.64px;font-family:helvetica;color:#000000;direction:ltr;letter-spacing:0px;line-height:120%;opacity:1&quot;&gt;&lt;br&gt;&lt;/font&gt;&lt;font style=&quot;font-size:11.64px;font-family:Helvetica;color:#000000;direction:ltr;letter-spacing:0px;line-height:120%;opacity:1&quot;&gt;&lt;br&gt;&lt;/font&gt;&lt;/div&gt;" tags="Background" id="0N5C-bSlOZF7z8Y1nU8M-340">
          <mxCell style="verticalAlign=middle;align=center;overflow=width;vsdxID=42;rotation=270;fillColor=#d5e8d4;gradientColor=none;shape=stencil(zZLNDsIgEISfZo82lDWtnGt9jyalQkRoKPXn7YVsjFWTmnrR2wzMR7LLAFaDanoJnA3Bu4M86zYowC1wrq2SXoeoAGvAqnNe7r0bbUu+b1IyqaM7pRcuxLFEcHYllzPyO4oabSdRLDLxlF4hEyIryyVIvo7IRvwauQ/6PTG7qrdwsXSE/ySQf/jw2R1F8ahhp42hFk/vX2sbj6jyWN8A);strokeColor=#82b366;strokeWidth=4;spacingTop=-3;spacingBottom=-3;spacingLeft=-3;spacingRight=-3;flipH=1;flipV=1;points=[];labelBackgroundColor=none;rounded=0;html=1;whiteSpace=wrap;fontStyle=1" vertex="1" parent="1">
            <mxGeometry x="3082" y="2464.5" width="84" height="1" as="geometry" />
          </mxCell>
        </UserObject>
        <UserObject label="&lt;div style=&quot;font-size: 1px&quot;&gt;&lt;font style=&quot;font-size:38.8px;font-family:simsun;color:#000000;direction:ltr;letter-spacing:0px;line-height:120%;opacity:1&quot;&gt;多模态传感信息的对齐与融合&lt;/font&gt;&lt;font style=&quot;font-size:11.64px;font-family:helvetica;color:#000000;direction:ltr;letter-spacing:0px;line-height:120%;opacity:1&quot;&gt;&lt;br&gt;&lt;/font&gt;&lt;font style=&quot;font-size:11.64px;font-family:Helvetica;color:#000000;direction:ltr;letter-spacing:0px;line-height:120%;opacity:1&quot;&gt;&lt;br&gt;&lt;/font&gt;&lt;/div&gt;" tags="Background" id="0N5C-bSlOZF7z8Y1nU8M-341">
          <mxCell style="verticalAlign=middle;align=center;overflow=width;vsdxID=21;fillColor=none;gradientColor=none;shape=stencil(nZBLDoAgDERP0z3SIyjew0SURgSD+Lu9kMZoXLhwN9O+tukAlrNpJg1SzDH4QW/URgNYgZTkjA4UkwJUgGXng+6DX1zLfmoymdXo17xh5zmRJ6Q42BWCfc2oJfdAr+Yv+AP9Cb7OJ3H/2JG1HNGz/84klThPVCc=);strokeColor=none;spacingTop=-3;spacingBottom=-3;spacingLeft=-3;spacingRight=-3;points=[];labelBackgroundColor=none;rounded=0;html=1;whiteSpace=wrap;fontStyle=1" vertex="1" parent="1">
            <mxGeometry x="2077.56" y="2077.5" width="284.87" height="97" as="geometry" />
          </mxCell>
        </UserObject>
        <UserObject label="&lt;div style=&quot;font-size: 1px&quot;&gt;&lt;font style=&quot;font-size:38.8px;font-family:宋体;color:#000000;direction:ltr;letter-spacing:0px;line-height:120%;opacity:1&quot;&gt;通用感知到具身感知的微调&lt;/font&gt;&lt;/div&gt;" tags="Background" id="0N5C-bSlOZF7z8Y1nU8M-342">
          <mxCell style="verticalAlign=middle;align=center;overflow=width;vsdxID=22;fillColor=none;gradientColor=none;shape=stencil(nZBLDoAgDERP0z3SIyjew0SURgSD+Lu9kMZoXLhwN9O+tukAlrNpJg1SzDH4QW/URgNYgZTkjA4UkwJUgGXng+6DX1zLfmoymdXo17xh5zmRJ6Q42BWCfc2oJfdAr+Yv+AP9Cb7OJ3H/2JG1HNGz/84klThPVCc=);strokeColor=none;spacingTop=-3;spacingBottom=-3;spacingLeft=-3;spacingRight=-3;points=[];labelBackgroundColor=none;rounded=0;html=1;whiteSpace=wrap;fontStyle=1" vertex="1" parent="1">
            <mxGeometry x="2092.63" y="2257.5" width="260.75" height="97" as="geometry" />
          </mxCell>
        </UserObject>
        <UserObject label="&lt;div style=&quot;font-size: 1px&quot;&gt;&lt;font style=&quot;font-size:38.8px;font-family:宋体;color:#000000;direction:ltr;letter-spacing:0px;line-height:120%;opacity:1&quot;&gt;用户任务的语义理解&lt;/font&gt;&lt;font style=&quot;font-size:11.64px;font-family:helvetica;color:#000000;direction:ltr;letter-spacing:0px;line-height:120%;opacity:1&quot;&gt;&lt;br&gt;&lt;/font&gt;&lt;font style=&quot;font-size:11.64px;font-family:Helvetica;color:#000000;direction:ltr;letter-spacing:0px;line-height:120%;opacity:1&quot;&gt;&lt;br&gt;&lt;/font&gt;&lt;/div&gt;" tags="Background" id="0N5C-bSlOZF7z8Y1nU8M-343">
          <mxCell style="verticalAlign=middle;align=center;overflow=width;vsdxID=23;fillColor=none;gradientColor=none;shape=stencil(nZBLDoAgDERP0z3SIyjew0SURgSD+Lu9kMZoXLhwN9O+tukAlrNpJg1SzDH4QW/URgNYgZTkjA4UkwJUgGXng+6DX1zLfmoymdXo17xh5zmRJ6Q42BWCfc2oJfdAr+Yv+AP9Cb7OJ3H/2JG1HNGz/84klThPVCc=);strokeColor=none;spacingTop=-3;spacingBottom=-3;spacingLeft=-3;spacingRight=-3;points=[];labelBackgroundColor=none;rounded=0;html=1;whiteSpace=wrap;fontStyle=1" vertex="1" parent="1">
            <mxGeometry x="2564.37" y="2080" width="221.5" height="92.5" as="geometry" />
          </mxCell>
        </UserObject>
        <UserObject label="&lt;div style=&quot;font-size: 1px&quot;&gt;&lt;font style=&quot;font-size:38.8px;font-family:宋体;color:#000000;direction:ltr;letter-spacing:0px;line-height:120%;opacity:1&quot;&gt;人类知识辅助的任务拆解&lt;/font&gt;&lt;font style=&quot;font-size:11.64px;font-family:helvetica;color:#000000;direction:ltr;letter-spacing:0px;line-height:120%;opacity:1&quot;&gt;&lt;br&gt;&lt;/font&gt;&lt;font style=&quot;font-size:11.64px;font-family:Helvetica;color:#000000;direction:ltr;letter-spacing:0px;line-height:120%;opacity:1&quot;&gt;&lt;br&gt;&lt;/font&gt;&lt;/div&gt;" tags="Background" id="0N5C-bSlOZF7z8Y1nU8M-344">
          <mxCell style="verticalAlign=middle;align=center;overflow=width;vsdxID=24;fillColor=none;gradientColor=none;shape=stencil(nZBLDoAgDERP0z3SIyjew0SURgSD+Lu9kMZoXLhwN9O+tukAlrNpJg1SzDH4QW/URgNYgZTkjA4UkwJUgGXng+6DX1zLfmoymdXo17xh5zmRJ6Q42BWCfc2oJfdAr+Yv+AP9Cb7OJ3H/2JG1HNGz/84klThPVCc=);strokeColor=none;spacingTop=-3;spacingBottom=-3;spacingLeft=-3;spacingRight=-3;points=[];labelBackgroundColor=none;rounded=0;html=1;whiteSpace=wrap;fontStyle=1" vertex="1" parent="1">
            <mxGeometry x="2556" y="2257.5" width="238.25" height="97" as="geometry" />
          </mxCell>
        </UserObject>
        <UserObject label="&lt;div style=&quot;font-size: 1px&quot;&gt;&lt;font style=&quot;font-size:38.8px;font-family:宋体;color:#000000;direction:ltr;letter-spacing:0px;line-height:120%;opacity:1&quot;&gt;人体和机器多源异质数据的对齐和理解&lt;/font&gt;&lt;font style=&quot;font-size:11.64px;font-family:helvetica;color:#000000;direction:ltr;letter-spacing:0px;line-height:120%;opacity:1&quot;&gt;&lt;br&gt;&lt;/font&gt;&lt;font style=&quot;font-size:11.64px;font-family:Helvetica;color:#000000;direction:ltr;letter-spacing:0px;line-height:120%;opacity:1&quot;&gt;&lt;br&gt;&lt;/font&gt;&lt;/div&gt;" tags="Background" id="0N5C-bSlOZF7z8Y1nU8M-345">
          <mxCell style="verticalAlign=middle;align=center;overflow=width;vsdxID=25;fillColor=none;gradientColor=none;shape=stencil(nZBLDoAgDERP0z3SIyjew0SURgSD+Lu9kMZoXLhwN9O+tukAlrNpJg1SzDH4QW/URgNYgZTkjA4UkwJUgGXng+6DX1zLfmoymdXo17xh5zmRJ6Q42BWCfc2oJfdAr+Yv+AP9Cb7OJ3H/2JG1HNGz/84klThPVCc=);strokeColor=none;spacingTop=-3;spacingBottom=-3;spacingLeft=-3;spacingRight=-3;points=[];labelBackgroundColor=none;rounded=0;html=1;whiteSpace=wrap;fontStyle=1" vertex="1" parent="1">
            <mxGeometry x="2996.19" y="2059.5" width="251.62" height="135.5" as="geometry" />
          </mxCell>
        </UserObject>
        <UserObject label="&lt;div style=&quot;font-size: 1px&quot;&gt;&lt;font style=&quot;font-size:38.8px;font-family:宋体;color:#000000;direction:ltr;letter-spacing:0px;line-height:120%;opacity:1&quot;&gt;复杂环境和任务下的人机协同与智能融合&lt;/font&gt;&lt;font style=&quot;font-size:11.64px;font-family:helvetica;color:#000000;direction:ltr;letter-spacing:0px;line-height:120%;opacity:1&quot;&gt;&lt;br&gt;&lt;/font&gt;&lt;font style=&quot;font-size:11.64px;font-family:Helvetica;color:#000000;direction:ltr;letter-spacing:0px;line-height:120%;opacity:1&quot;&gt;&lt;br&gt;&lt;/font&gt;&lt;/div&gt;" tags="Background" id="0N5C-bSlOZF7z8Y1nU8M-346">
          <mxCell style="verticalAlign=middle;align=center;overflow=width;vsdxID=26;fillColor=none;gradientColor=none;shape=stencil(nZBLDoAgDERP0z3SIyjew0SURgSD+Lu9kMZoXLhwN9O+tukAlrNpJg1SzDH4QW/URgNYgZTkjA4UkwJUgGXng+6DX1zLfmoymdXo17xh5zmRJ6Q42BWCfc2oJfdAr+Yv+AP9Cb7OJ3H/2JG1HNGz/84klThPVCc=);strokeColor=none;spacingTop=-3;spacingBottom=-3;spacingLeft=-3;spacingRight=-3;points=[];labelBackgroundColor=none;rounded=0;html=1;whiteSpace=wrap;fontStyle=1" vertex="1" parent="1">
            <mxGeometry x="2981" y="2235.25" width="288" height="141.5" as="geometry" />
          </mxCell>
        </UserObject>
      </root>
    </mxGraphModel>
  </diagram>
</mxfile>
